SplineFontDB: 3.0
FontName: Overlock-Black
FullName: Overlock-Black
FamilyName: Overlock
Weight: Black
Copyright: Copyright (c) 2011, Dario Manuel Muhafara (http://www.tipo.net.ar), with Reserved Font Name "Overlock".
Version: 1.001
ItalicAngle: 0
UnderlinePosition: -113
UnderlineWidth: 20
Ascent: 800
Descent: 200
sfntRevision: 0x00010042
LayerCount: 2
Layer: 0 1 "Back"  1
Layer: 1 1 "Fore"  0
XUID: [1021 288 713564382 2300645]
FSType: 0
OS2Version: 2
OS2_WeightWidthSlopeOnly: 0
OS2_UseTypoMetrics: 1
CreationTime: 1324052772
ModificationTime: 1324081838
PfmFamily: 17
TTFWeight: 900
TTFWidth: 5
LineGap: 0
VLineGap: 0
Panose: 2 0 5 3 3 0 0 2 0 4
OS2TypoAscent: 166
OS2TypoAOffset: 1
OS2TypoDescent: -54
OS2TypoDOffset: 1
OS2TypoLinegap: 0
OS2WinAscent: 0
OS2WinAOffset: 1
OS2WinDescent: 1
OS2WinDOffset: 1
HheadAscent: 0
HheadAOffset: 1
HheadDescent: -1
HheadDOffset: 1
OS2SubXSize: 700
OS2SubYSize: 650
OS2SubXOff: 0
OS2SubYOff: 140
OS2SupXSize: 700
OS2SupYSize: 650
OS2SupXOff: 0
OS2SupYOff: 477
OS2StrikeYSize: 50
OS2StrikeYPos: 250
OS2Vendor: 'pyrs'
OS2CodePages: 20000001.00000000
OS2UnicodeRanges: 800000af.4000204b.00000000.00000000
Lookup: 258 0 0 "'kern' Horizontal Kerning in Latin lookup 0"  {"'kern' Horizontal Kerning in Latin lookup 0 subtable"  } ['kern' ('DFLT' <'dflt' > 'latn' <'dflt' > ) ]
MarkAttachClasses: 1
DEI: 91125
TtTable: prep
PUSHW_1
 511
SCANCTRL
PUSHB_1
 4
SCANTYPE
EndTTInstrs
ShortTable: maxp 16
  1
  0
  281
  131
  7
  0
  0
  2
  0
  1
  1
  0
  64
  0
  0
  0
EndShort
LangName: 1033 "" "" "" "DarioManuelMuhafara: Overlock Black: 2011" "" "Version 1.001" "" "Overlock is a trademark of Dario Manuel Muhafara." "Dario Manuel Muhafara" "Dario Muhafara" "" "www.tipo.net.ar" "www.tipo.net.ar" "This Font Software is licensed under the SIL Open Font License,+AA0A-Version 1.1. This license is available with a FAQ at:+AA0A-http://scripts.sil.org/OFL" "http://scripts.sil.org/OFL" 
GaspTable: 1 65535 15
Encoding: UnicodeBmp
UnicodeInterp: none

StartChar: exclam
Encoding: 33 33 4
Width: 315
GlyphClass: 2
Flags: W
LayerCount: 2
Fore
SplineSet
165 -10 m 0,0,1
 127 -10 127 -10 101 15 c 128,-1,2
 75 40 75 40 75 79 c 0,3,4
 75 116 75 116 102.5 142 c 128,-1,5
 130 168 130 168 167 168 c 0,6,7
 203 168 203 168 229.5 142 c 128,-1,8
 256 116 256 116 256 79 c 0,9,10
 256 41 256 41 228.5 15.5 c 128,-1,11
 201 -10 201 -10 165 -10 c 0,0,1
244 619 m 0,12,13
 244 588 244 588 236 512.5 c 128,-1,14
 228 437 228 437 228 395 c 0,15,16
 228 283 228 283 241 248 c 1,17,18
 203 229 203 229 167 229 c 0,19,20
 132 229 132 229 108.5 245 c 128,-1,21
 85 261 85 261 85 291 c 0,22,23
 85 299 85 299 85.5 328 c 128,-1,24
 86 357 86 357 86 378 c 0,25,26
 86 610 86 610 65 683 c 1,27,28
 111 694 111 694 159 694 c 0,29,30
 244 694 244 694 244 619 c 0,12,13
EndSplineSet
EndChar

StartChar: quotedbl
Encoding: 34 34 5
Width: 433
GlyphClass: 2
Flags: W
LayerCount: 2
Fore
SplineSet
335 737 m 0,0,1
 405 737 405 737 405 682 c 0,2,3
 405 620 405 620 384 504 c 0,4,5
 375 455 375 455 318 455 c 0,6,7
 291 455 291 455 267 463 c 1,8,9
 270 482 270 482 270 505 c 0,10,11
 270 552 270 552 263 609 c 128,-1,12
 256 666 256 666 256 682 c 0,13,14
 256 709 256 709 272.5 723 c 128,-1,15
 289 737 289 737 335 737 c 0,0,1
109 737 m 0,16,17
 179 737 179 737 179 682 c 0,18,19
 179 620 179 620 158 504 c 0,20,21
 149 455 149 455 92 455 c 0,22,23
 65 455 65 455 41 463 c 1,24,25
 44 483 44 483 44 505 c 0,26,27
 44 552 44 552 37 609 c 128,-1,28
 30 666 30 666 30 682 c 0,29,30
 30 709 30 709 46.5 723 c 128,-1,31
 63 737 63 737 109 737 c 0,16,17
EndSplineSet
EndChar

StartChar: numbersign
Encoding: 35 35 6
Width: 574
GlyphClass: 2
Flags: W
LayerCount: 2
Fore
SplineSet
222 266 m 1,0,1
 301 266 301 266 338 268 c 1,2,3
 341 283 341 283 353 388 c 1,4,5
 321 390 321 390 280 390 c 2,6,-1
 241 390 l 1,7,8
 227 306 227 306 222 266 c 1,0,1
418 641 m 0,9,10
 438 641 438 641 452 630 c 128,-1,11
 466 619 466 619 466 596 c 0,12,13
 466 582 466 582 441 463 c 1,14,15
 455 464 455 464 581 472 c 1,16,17
 581 453 581 453 580 443.5 c 128,-1,18
 579 434 579 434 575.5 419 c 128,-1,19
 572 404 572 404 565 397 c 128,-1,20
 558 390 558 390 545 384 c 128,-1,21
 532 378 532 378 513 378 c 0,22,23
 509 378 509 378 487.5 381 c 128,-1,24
 466 384 466 384 428 385 c 1,25,26
 419 342 419 342 409 268 c 1,27,28
 444 269 444 269 554 278 c 1,29,30
 554 259 554 259 553 249.5 c 128,-1,31
 552 240 552 240 548.5 225 c 128,-1,32
 545 210 545 210 538 202.5 c 128,-1,33
 531 195 531 195 518 189.5 c 128,-1,34
 505 184 505 184 486 184 c 0,35,36
 480 184 480 184 458 186.5 c 128,-1,37
 436 189 436 189 399 191 c 1,38,39
 396 143 396 143 396 85 c 0,40,41
 396 39 396 39 397 24 c 1,42,43
 377 13 377 13 347 13 c 0,44,45
 324 13 324 13 314 24 c 128,-1,46
 304 35 304 35 304 60 c 0,47,48
 304 73 304 73 315 129 c 128,-1,49
 326 185 326 185 326 194 c 1,50,51
 287 195 287 195 254 195 c 2,52,-1
 213 195 l 1,53,54
 204 108 204 108 204 72 c 0,55,56
 204 41 204 41 205 24 c 1,57,58
 185 13 185 13 160 13 c 0,59,60
 137 13 137 13 127 24 c 128,-1,61
 117 35 117 35 117 60 c 0,62,63
 117 65 117 65 139 194 c 1,64,65
 65 191 65 191 -3 168 c 1,66,67
 -7 183 -7 183 -7 212 c 128,-1,68
 -7 241 -7 241 13 255 c 128,-1,69
 33 269 33 269 83 269 c 0,70,71
 90 269 90 269 112.5 268.5 c 128,-1,72
 135 268 135 268 152 268 c 1,73,-1
 166 388 l 1,74,75
 121 386 121 386 98 381.5 c 128,-1,76
 75 377 75 377 24 362 c 1,77,78
 20 377 20 377 20 406 c 0,79,80
 20 434 20 434 40.5 448.5 c 128,-1,81
 61 463 61 463 110 463 c 2,82,-1
 175 462 l 1,83,84
 191 593 191 593 193 637 c 1,85,86
 213 641 213 641 231 641 c 0,87,88
 251 641 251 641 265 630 c 128,-1,89
 279 619 279 619 279 596 c 0,90,91
 279 588 279 588 253 460 c 1,92,-1
 362 460 l 1,93,94
 377 589 377 589 380 637 c 1,95,96
 400 641 400 641 418 641 c 0,9,10
EndSplineSet
EndChar

StartChar: dollar
Encoding: 36 36 7
Width: 574
GlyphClass: 2
Flags: W
LayerCount: 2
Fore
SplineSet
319 -75 m 1,0,-1
 297 -78 l 1,1,2
 257 -78 257 -78 254 -39 c 1,3,-1
 254 -9 l 1,4,5
 172 -6 172 -6 114.5 20.5 c 128,-1,6
 57 47 57 47 57 82 c 0,7,8
 57 103 57 103 70.5 119 c 128,-1,9
 84 135 84 135 99.5 143 c 128,-1,10
 115 151 115 151 146 164 c 1,11,12
 158 132 158 132 186.5 109 c 128,-1,13
 215 86 215 86 254 81 c 1,14,-1
 254 274 l 1,15,16
 228 282 228 282 216 286 c 128,-1,17
 204 290 204 290 180.5 300.5 c 128,-1,18
 157 311 157 311 145 320.5 c 128,-1,19
 133 330 133 330 116 347 c 128,-1,20
 99 364 99 364 90.5 383.5 c 128,-1,21
 82 403 82 403 75.5 430.5 c 128,-1,22
 69 458 69 458 69 492 c 0,23,24
 69 568 69 568 121.5 612.5 c 128,-1,25
 174 657 174 657 253 668 c 1,26,27
 252 693 252 693 248 734 c 1,28,29
 265 739 265 739 273 739 c 0,30,31
 311 739 311 739 311 700 c 2,32,-1
 311 671 l 1,33,34
 381 668 381 668 437 644 c 128,-1,35
 493 620 493 620 493 580 c 0,36,37
 493 517 493 517 398 500 c 1,38,39
 387 529 387 529 363 549.5 c 128,-1,40
 339 570 339 570 311 576 c 1,41,-1
 311 395 l 1,42,43
 348 384 348 384 365 377.5 c 128,-1,44
 382 371 382 371 414.5 354 c 128,-1,45
 447 337 447 337 463.5 318 c 128,-1,46
 480 299 480 299 493.5 266 c 128,-1,47
 507 233 507 233 507 191 c 0,48,49
 507 112 507 112 458 57 c 128,-1,50
 409 2 409 2 313 -8 c 1,51,52
 313 -10 313 -10 319 -75 c 1,0,-1
370 174 m 0,53,54
 370 227 370 227 312 254 c 1,55,-1
 312 86 l 1,56,57
 370 107 370 107 370 174 c 0,53,54
205 499 m 0,58,59
 205 448 205 448 254 420 c 1,60,-1
 254 571 l 1,61,62
 232 562 232 562 218.5 542.5 c 128,-1,63
 205 523 205 523 205 499 c 0,58,59
EndSplineSet
EndChar

StartChar: percent
Encoding: 37 37 8
Width: 883
GlyphClass: 2
Flags: W
LayerCount: 2
Fore
SplineSet
680 -10 m 0,0,1
 601 -10 601 -10 554.5 35 c 128,-1,2
 508 80 508 80 508 156 c 0,3,4
 508 233 508 233 554.5 277.5 c 128,-1,5
 601 322 601 322 680 322 c 0,6,7
 758 322 758 322 804 277 c 128,-1,8
 850 232 850 232 850 156 c 128,-1,9
 850 80 850 80 804 35 c 128,-1,10
 758 -10 758 -10 680 -10 c 0,0,1
732 149 m 0,11,12
 732 188 732 188 718.5 218.5 c 128,-1,13
 705 249 705 249 680 249 c 0,14,15
 656 249 656 249 640.5 226 c 128,-1,16
 625 203 625 203 625 168 c 0,17,18
 625 127 625 127 639 95.5 c 128,-1,19
 653 64 653 64 679 64 c 0,20,21
 703 64 703 64 717.5 88 c 128,-1,22
 732 112 732 112 732 149 c 0,11,12
218 44 m 1,23,-1
 451 413 l 2,24,25
 554 575 554 575 622 699 c 1,26,27
 647 698 647 698 667 685 c 128,-1,28
 687 672 687 672 687 653 c 0,29,30
 687 638 687 638 677 623 c 2,31,-1
 444 253 l 2,32,33
 353 109 353 109 272 -33 c 1,34,35
 210 -20 210 -20 206 10 c 1,36,37
 206 27 206 27 218 44 c 1,23,-1
204 333 m 0,38,39
 125 333 125 333 78.5 378 c 128,-1,40
 32 423 32 423 32 499 c 0,41,42
 32 576 32 576 78.5 620.5 c 128,-1,43
 125 665 125 665 204 665 c 0,44,45
 282 665 282 665 328 620 c 128,-1,46
 374 575 374 575 374 499 c 128,-1,47
 374 423 374 423 328 378 c 128,-1,48
 282 333 282 333 204 333 c 0,38,39
256 492 m 0,49,50
 256 531 256 531 242.5 561.5 c 128,-1,51
 229 592 229 592 204 592 c 0,52,53
 180 592 180 592 164.5 569 c 128,-1,54
 149 546 149 546 149 511 c 0,55,56
 149 470 149 470 163 438.5 c 128,-1,57
 177 407 177 407 203 407 c 0,58,59
 227 407 227 407 241.5 431 c 128,-1,60
 256 455 256 455 256 492 c 0,49,50
EndSplineSet
EndChar

StartChar: ampersand
Encoding: 38 38 9
Width: 673
GlyphClass: 2
Flags: W
LayerCount: 2
Fore
SplineSet
201 245 m 1,0,1
 182 216 182 216 182 183 c 0,2,3
 182 135 182 135 217 109 c 128,-1,4
 252 83 252 83 301 83 c 0,5,6
 327 83 327 83 349 90 c 1,7,8
 271 154 271 154 201 245 c 1,0,1
273 581 m 0,9,10
 244 581 244 581 227 560.5 c 128,-1,11
 210 540 210 540 210 506 c 0,12,13
 210 458 210 458 244 403 c 1,14,15
 320 458 320 458 320 521 c 0,16,17
 320 547 320 547 306 564 c 128,-1,18
 292 581 292 581 273 581 c 0,9,10
32 171 m 0,19,20
 32 269 32 269 136 342 c 1,21,22
 72 434 72 434 72 515 c 0,23,24
 72 587 72 587 127 630 c 128,-1,25
 182 673 182 673 286 673 c 0,26,27
 371 673 371 673 419.5 635.5 c 128,-1,28
 468 598 468 598 468 546 c 0,29,30
 468 514 468 514 456 485 c 128,-1,31
 444 456 444 456 428.5 436.5 c 128,-1,32
 413 417 413 417 385 394.5 c 128,-1,33
 357 372 357 372 340 361.5 c 128,-1,34
 323 351 323 351 293 333 c 1,35,36
 356 253 356 253 424 197 c 1,37,38
 429 227 429 227 429 245 c 0,39,40
 429 275 429 275 415 319 c 1,41,42
 447 338 447 338 482 338 c 0,43,44
 574 338 574 338 574 271 c 0,45,46
 574 230 574 230 564 200.5 c 128,-1,47
 554 171 554 171 528 127 c 1,48,49
 590 96 590 96 648 96 c 1,50,51
 654 70 654 70 654 56 c 0,52,53
 654 -10 654 -10 584 -10 c 0,54,55
 512 -10 512 -10 430 35 c 1,56,57
 365 -9 365 -9 273 -9 c 0,58,59
 176 -9 176 -9 104 39.5 c 128,-1,60
 32 88 32 88 32 171 c 0,19,20
EndSplineSet
EndChar

StartChar: quotesingle
Encoding: 39 39 10
Width: 279
GlyphClass: 2
Flags: W
LayerCount: 2
Fore
SplineSet
129 737 m 0,0,1
 199 737 199 737 199 682 c 0,2,3
 199 620 199 620 178 504 c 0,4,5
 169 455 169 455 112 455 c 0,6,7
 85 455 85 455 61 463 c 1,8,9
 64 483 64 483 64 505 c 0,10,11
 64 552 64 552 57 609 c 128,-1,12
 50 666 50 666 50 682 c 0,13,14
 50 709 50 709 66.5 723 c 128,-1,15
 83 737 83 737 129 737 c 0,0,1
EndSplineSet
EndChar

StartChar: parenleft
Encoding: 40 40 11
Width: 337
GlyphClass: 2
Flags: W
LayerCount: 2
Fore
SplineSet
58 262 m 0,0,1
 58 349 58 349 82.5 438.5 c 128,-1,2
 107 528 107 528 141.5 590 c 128,-1,3
 176 652 176 652 211.5 691.5 c 128,-1,4
 247 731 247 731 270 731 c 0,5,6
 290 731 290 731 309 708 c 1,7,8
 260 639 260 639 228 517.5 c 128,-1,9
 196 396 196 396 196 262 c 0,10,11
 196 139 196 139 227 14.5 c 128,-1,12
 258 -110 258 -110 309 -180 c 1,13,14
 290 -203 290 -203 270 -203 c 0,15,16
 246 -203 246 -203 210 -162.5 c 128,-1,17
 174 -122 174 -122 140 -59.5 c 128,-1,18
 106 3 106 3 82 91 c 128,-1,19
 58 179 58 179 58 262 c 0,0,1
EndSplineSet
EndChar

StartChar: parenright
Encoding: 41 41 12
Width: 355
GlyphClass: 2
Flags: W
LayerCount: 2
Fore
SplineSet
251 262 m 0,0,1
 251 179 251 179 227 91 c 128,-1,2
 203 3 203 3 169 -59.5 c 128,-1,3
 135 -122 135 -122 99 -162.5 c 128,-1,4
 63 -203 63 -203 39 -203 c 0,5,6
 19 -203 19 -203 0 -180 c 1,7,8
 51 -110 51 -110 82 14.5 c 128,-1,9
 113 139 113 139 113 262 c 0,10,11
 113 396 113 396 81 517.5 c 128,-1,12
 49 639 49 639 0 708 c 1,13,14
 19 731 19 731 39 731 c 0,15,16
 62 731 62 731 97.5 691.5 c 128,-1,17
 133 652 133 652 167.5 590 c 128,-1,18
 202 528 202 528 226.5 438.5 c 128,-1,19
 251 349 251 349 251 262 c 0,0,1
EndSplineSet
EndChar

StartChar: asterisk
Encoding: 42 42 13
Width: 405
GlyphClass: 2
Flags: W
LayerCount: 2
Fore
SplineSet
258 697 m 0,0,1
 258 661 258 661 248 621 c 1,2,3
 319 673 319 673 332 686 c 1,4,5
 376 648 376 648 376 620 c 0,6,7
 376 578 376 578 257 548 c 1,8,9
 327 483 327 483 362 457 c 1,10,11
 351 437 351 437 332 423 c 128,-1,12
 313 409 313 409 291 409 c 0,13,14
 267 409 267 409 247.5 431.5 c 128,-1,15
 228 454 228 454 202 503 c 1,16,17
 165 437 165 437 137 392 c 1,18,19
 108 402 108 402 85.5 419.5 c 128,-1,20
 63 437 63 437 63 456 c 0,21,22
 63 490 63 490 148 552 c 1,23,24
 73 579 73 579 23 593 c 1,25,26
 27 620 27 620 44 642 c 128,-1,27
 61 664 61 664 86 664 c 0,28,29
 125 664 125 664 163 624 c 1,30,31
 162 632 162 632 157 672 c 128,-1,32
 152 712 152 712 147 734 c 1,33,34
 178 743 178 743 196 743 c 0,35,36
 258 743 258 743 258 697 c 0,0,1
EndSplineSet
EndChar

StartChar: plus
Encoding: 43 43 14
Width: 574
GlyphClass: 2
Flags: W
LayerCount: 2
Fore
SplineSet
328 292 m 1,0,1
 433 292 433 292 536 303 c 1,2,3
 540 291 540 291 540 261 c 0,4,5
 540 236 540 236 525.5 218.5 c 128,-1,6
 511 201 511 201 488 201 c 0,7,8
 464 201 464 201 413 206 c 128,-1,9
 362 211 362 211 327 211 c 1,10,11
 327 132 327 132 338 9 c 1,12,13
 317 5 317 5 295 5 c 0,14,15
 271 5 271 5 253 18 c 128,-1,16
 235 31 235 31 235 56 c 0,17,18
 235 64 235 64 239 105.5 c 128,-1,19
 243 147 243 147 245 212 c 1,20,21
 199 212 199 212 39 201 c 1,22,23
 35 222 35 222 35 243 c 0,24,25
 35 266 35 266 47.5 284.5 c 128,-1,26
 60 303 60 303 87 303 c 0,27,28
 95 303 95 303 140.5 299 c 128,-1,29
 186 295 186 295 247 293 c 1,30,31
 247 396 247 396 235 495 c 1,32,33
 248 499 248 499 278 499 c 0,34,35
 303 499 303 499 320.5 485 c 128,-1,36
 338 471 338 471 338 448 c 0,37,38
 338 424 338 424 333 376 c 128,-1,39
 328 328 328 328 328 292 c 1,0,1
EndSplineSet
EndChar

StartChar: comma
Encoding: 44 44 15
Width: 258
GlyphClass: 2
Flags: W
LayerCount: 2
Fore
SplineSet
37 57 m 0,0,1
 37 92 37 92 61.5 114 c 128,-1,2
 86 136 86 136 126 136 c 0,3,4
 171 136 171 136 195.5 104 c 128,-1,5
 220 72 220 72 220 23 c 0,6,7
 220 -47 220 -47 174 -105 c 128,-1,8
 128 -163 128 -163 55 -163 c 0,9,10
 18 -163 18 -163 18 -124 c 0,11,12
 18 -119 18 -119 20 -103 c 1,13,-1
 25 -103 l 2,14,15
 52 -103 52 -103 72 -81.5 c 128,-1,16
 92 -60 92 -60 92 -36 c 0,17,18
 92 5 92 5 47 12 c 1,19,20
 37 33 37 33 37 57 c 0,0,1
EndSplineSet
EndChar

StartChar: hyphen
Encoding: 45 45 16
Width: 283
GlyphClass: 2
Flags: W
LayerCount: 2
Fore
SplineSet
278 269 m 0,0,1
 278 239 278 239 257.5 221 c 128,-1,2
 237 203 237 203 203 203 c 0,3,4
 192 203 192 203 163 206.5 c 128,-1,5
 134 210 134 210 118 210 c 0,6,7
 80 210 80 210 32 194 c 1,8,9
 25 229 25 229 25 251 c 0,10,11
 25 278 25 278 43 297.5 c 128,-1,12
 61 317 61 317 100 317 c 0,13,14
 106 317 106 317 135 314 c 128,-1,15
 164 311 164 311 181 311 c 2,16,-1
 189 311 l 2,17,18
 232 311 232 311 267 326 c 1,19,20
 278 296 278 296 278 269 c 0,0,1
EndSplineSet
EndChar

StartChar: period
Encoding: 46 46 17
Width: 254
GlyphClass: 2
Flags: W
LayerCount: 2
Fore
SplineSet
123 -10 m 0,0,1
 85 -10 85 -10 58.5 16.5 c 128,-1,2
 32 43 32 43 32 84 c 0,3,4
 32 123 32 123 60 150 c 128,-1,5
 88 177 88 177 125 177 c 128,-1,6
 162 177 162 177 188.5 150 c 128,-1,7
 215 123 215 123 215 84 c 0,8,9
 215 44 215 44 187 17 c 128,-1,10
 159 -10 159 -10 123 -10 c 0,0,1
EndSplineSet
EndChar

StartChar: slash
Encoding: 47 47 18
Width: 249
GlyphClass: 2
Flags: W
LayerCount: 2
Fore
SplineSet
151 218 m 1,0,1
 118 -5 118 -5 109 -113 c 1,2,3
 87 -118 87 -118 74 -118 c 0,4,5
 27 -118 27 -118 27 -78 c 0,6,7
 27 -72 27 -72 40.5 9.5 c 128,-1,8
 54 91 54 91 73 210 c 128,-1,9
 92 329 92 329 102 405 c 0,10,11
 138 663 138 663 144 736 c 1,12,-1
 174 741 l 1,13,14
 226 741 226 741 226 702 c 1,15,-1
 151 218 l 1,0,1
EndSplineSet
EndChar

StartChar: zero
Encoding: 48 48 19
Width: 574
GlyphClass: 2
Flags: W
LayerCount: 2
Fore
SplineSet
286 -10 m 128,-1,1
 166 -10 166 -10 95.5 82.5 c 128,-1,2
 25 175 25 175 25 331 c 0,3,4
 25 488 25 488 95.5 580.5 c 128,-1,5
 166 673 166 673 286 673 c 128,-1,6
 406 673 406 673 477.5 580.5 c 128,-1,7
 549 488 549 488 549 331 c 0,8,9
 549 176 549 176 477.5 83 c 128,-1,0
 406 -10 406 -10 286 -10 c 128,-1,1
392 314 m 0,10,11
 392 414 392 414 364 494 c 128,-1,12
 336 574 336 574 286 574 c 0,13,14
 239 574 239 574 209 512.5 c 128,-1,15
 179 451 179 451 179 362 c 0,16,17
 179 254 179 254 207 171 c 128,-1,18
 235 88 235 88 285 88 c 0,19,20
 333 88 333 88 362.5 153 c 128,-1,21
 392 218 392 218 392 314 c 0,10,11
EndSplineSet
EndChar

StartChar: one
Encoding: 49 49 20
Width: 574
GlyphClass: 2
Flags: W
LayerCount: 2
Fore
SplineSet
371 94 m 1,0,1
 435 94 435 94 470 98 c 1,2,3
 479 78 479 78 479 54 c 0,4,5
 479 -2 479 -2 430 -2 c 0,6,7
 421 -2 421 -2 355 -1 c 128,-1,8
 289 0 289 0 232 0 c 0,9,10
 138 0 138 0 98 -1 c 1,11,12
 88 27 88 27 88 48 c 0,13,14
 88 97 88 97 156 97 c 2,15,-1
 214 97 l 1,16,17
 214 113 214 113 215 200.5 c 128,-1,18
 216 288 216 288 216 354 c 0,19,20
 216 469 216 469 213 565 c 1,21,22
 105 554 105 554 88 551 c 1,23,24
 84 577 84 577 84 590 c 0,25,26
 84 652 84 652 135 658 c 0,27,28
 253 673 253 673 311 673 c 0,29,30
 335 673 335 673 353.5 661 c 128,-1,31
 372 649 372 649 372 623 c 0,32,33
 372 615 372 615 370 568 c 128,-1,34
 368 521 368 521 366 449.5 c 128,-1,35
 364 378 364 378 364 311 c 2,36,-1
 364 259 l 2,37,38
 364 149 364 149 371 94 c 1,0,1
EndSplineSet
EndChar

StartChar: two
Encoding: 50 50 21
Width: 574
GlyphClass: 2
Flags: W
LayerCount: 2
Fore
SplineSet
129 482 m 1,0,1
 55 503 55 503 55 561 c 0,2,3
 55 601 55 601 131 637 c 128,-1,4
 207 673 207 673 293 673 c 0,5,6
 383 673 383 673 445 623.5 c 128,-1,7
 507 574 507 574 507 483 c 0,8,9
 507 452 507 452 496 418.5 c 128,-1,10
 485 385 485 385 471.5 358.5 c 128,-1,11
 458 332 458 332 429 298 c 128,-1,12
 400 264 400 264 383 245.5 c 128,-1,13
 366 227 366 227 327.5 193.5 c 128,-1,14
 289 160 289 160 276 149.5 c 128,-1,15
 263 139 263 139 225 108 c 1,16,17
 227 107 227 107 247 107 c 0,18,19
 369 107 369 107 422 111 c 128,-1,20
 475 115 475 115 528 133 c 1,21,22
 541 98 541 98 541 74 c 0,23,24
 541 30 541 30 515 15 c 0,25,26
 484 -2 484 -2 327 -2 c 0,27,28
 282 -2 282 -2 203 -1 c 128,-1,29
 124 0 124 0 92 0 c 0,30,31
 39 0 39 0 39 60 c 0,32,33
 39 77 39 77 45 105 c 1,34,35
 238 274 238 274 296 340 c 128,-1,36
 354 406 354 406 354 471 c 0,37,38
 354 523 354 523 332 548 c 128,-1,39
 310 573 310 573 274 573 c 0,40,41
 235 573 235 573 194 547 c 128,-1,42
 153 521 153 521 129 482 c 1,0,1
EndSplineSet
EndChar

StartChar: three
Encoding: 51 51 22
Width: 574
GlyphClass: 2
Flags: W
LayerCount: 2
Fore
SplineSet
364 364 m 1,0,1
 444 332 444 332 473 290.5 c 128,-1,2
 502 249 502 249 502 190 c 0,3,4
 502 109 502 109 429 49.5 c 128,-1,5
 356 -10 356 -10 229 -10 c 0,6,7
 205 -10 205 -10 181.5 -8 c 128,-1,8
 158 -6 158 -6 126 0.5 c 128,-1,9
 94 7 94 7 74 23 c 128,-1,10
 54 39 54 39 54 63 c 0,11,12
 54 86 54 86 72 106.5 c 128,-1,13
 90 127 90 127 117 135 c 1,14,15
 129 114 129 114 161 100.5 c 128,-1,16
 193 87 193 87 230 87 c 0,17,18
 276 87 276 87 310.5 113.5 c 128,-1,19
 345 140 345 140 345 186 c 0,20,21
 345 240 345 240 309.5 273 c 128,-1,22
 274 306 274 306 215 306 c 0,23,24
 197 306 197 306 187.5 307 c 128,-1,25
 178 308 178 308 166 313 c 128,-1,26
 154 318 154 318 149 330 c 128,-1,27
 144 342 144 342 144 361 c 128,-1,28
 144 380 144 380 147 394 c 1,29,30
 235 394 235 394 279.5 428 c 128,-1,31
 324 462 324 462 324 508 c 0,32,33
 324 541 324 541 305 558 c 128,-1,34
 286 575 286 575 256 575 c 0,35,36
 221 575 221 575 188 553 c 128,-1,37
 155 531 155 531 144 496 c 1,38,39
 107 501 107 501 87 520.5 c 128,-1,40
 67 540 67 540 67 563 c 0,41,42
 67 604 67 604 127 638.5 c 128,-1,43
 187 673 187 673 277 673 c 0,44,45
 373 673 373 673 427 627.5 c 128,-1,46
 481 582 481 582 481 519 c 0,47,48
 481 412 481 412 364 364 c 1,0,1
EndSplineSet
EndChar

StartChar: four
Encoding: 52 52 23
Width: 574
GlyphClass: 2
Flags: W
LayerCount: 2
Fore
SplineSet
157 292 m 1,0,1
 179 291 179 291 233 291 c 0,2,3
 272 291 272 291 307 294 c 1,4,5
 307 386 307 386 310 491 c 1,6,7
 302 481 302 481 269.5 441.5 c 128,-1,8
 237 402 237 402 209.5 366 c 128,-1,9
 182 330 182 330 157 292 c 1,0,1
282 642 m 1,10,11
 316 673 316 673 392 673 c 0,12,13
 439 673 439 673 465 666 c 1,14,15
 465 663 465 663 462.5 623.5 c 128,-1,16
 460 584 460 584 458 513.5 c 128,-1,17
 456 443 456 443 456 365 c 2,18,-1
 456 296 l 1,19,20
 529 302 529 302 553 313 c 1,21,22
 563 285 563 285 563 254 c 0,23,24
 563 211 563 211 543 202 c 0,25,26
 517 190 517 190 456 189 c 1,27,28
 456 81 456 81 480 3 c 1,29,30
 443 -10 443 -10 395 -10 c 0,31,32
 341 -10 341 -10 323 10 c 128,-1,33
 305 30 305 30 305 79 c 0,34,35
 305 84 305 84 307 190 c 1,36,37
 132 190 132 190 60 196 c 0,38,39
 32 198 32 198 23 212.5 c 128,-1,40
 14 227 14 227 14 256 c 0,41,42
 14 264 14 264 16 284 c 1,43,44
 57 354 57 354 146.5 475 c 128,-1,45
 236 596 236 596 282 642 c 1,10,11
EndSplineSet
EndChar

StartChar: five
Encoding: 53 53 24
Width: 574
GlyphClass: 2
Flags: W
LayerCount: 2
Fore
SplineSet
276 447 m 0,0,1
 382 447 382 447 441 383.5 c 128,-1,2
 500 320 500 320 500 224 c 0,3,4
 500 162 500 162 475 114.5 c 128,-1,5
 450 67 450 67 408 40.5 c 128,-1,6
 366 14 366 14 319.5 1.5 c 128,-1,7
 273 -11 273 -11 222 -11 c 0,8,9
 150 -11 150 -11 100.5 8 c 128,-1,10
 51 27 51 27 51 59 c 0,11,12
 51 80 51 80 69.5 99.5 c 128,-1,13
 88 119 88 119 116 126 c 1,14,15
 145 84 145 84 218 84 c 0,16,17
 275 84 275 84 309 120.5 c 128,-1,18
 343 157 343 157 343 208 c 0,19,20
 343 267 343 267 297 310.5 c 128,-1,21
 251 354 251 354 163 354 c 0,22,23
 136 354 136 354 96 347 c 1,24,25
 86 362 86 362 86 414 c 0,26,27
 86 429 86 429 99 664 c 1,28,29
 135 662 135 662 344 662 c 0,30,31
 455 662 455 662 481 670 c 1,32,33
 496 641 496 641 496 617 c 0,34,35
 496 588 496 588 475 570 c 128,-1,36
 454 552 454 552 417 552 c 0,37,38
 341 552 341 552 236 558 c 1,39,-1
 221 443 l 1,40,41
 246 447 246 447 276 447 c 0,0,1
EndSplineSet
EndChar

StartChar: six
Encoding: 54 54 25
Width: 574
GlyphClass: 2
Flags: W
LayerCount: 2
Fore
SplineSet
292 89 m 0,0,1
 325 89 325 89 344 118.5 c 128,-1,2
 363 148 363 148 363 190 c 0,3,4
 363 237 363 237 344 275.5 c 128,-1,5
 325 314 325 314 282 314 c 0,6,7
 249 314 249 314 206 291 c 1,8,9
 206 247 206 247 210 214 c 128,-1,10
 214 181 214 181 222.5 151 c 128,-1,11
 231 121 231 121 248.5 105 c 128,-1,12
 266 89 266 89 292 89 c 0,0,1
284 -10 m 0,13,14
 218 -10 218 -10 171 14 c 128,-1,15
 124 38 124 38 98.5 80 c 128,-1,16
 73 122 73 122 62 170 c 128,-1,17
 51 218 51 218 51 275 c 0,18,19
 51 376 51 376 89.5 465 c 128,-1,20
 128 554 128 554 208.5 613.5 c 128,-1,21
 289 673 289 673 395 673 c 0,22,23
 439 673 439 673 458.5 660.5 c 128,-1,24
 478 648 478 648 478 613 c 0,25,26
 478 594 478 594 472 565 c 1,27,28
 449 572 449 572 408 572 c 0,29,30
 314 572 314 572 264.5 513.5 c 128,-1,31
 215 455 215 455 207 367 c 1,32,33
 264 411 264 411 328 411 c 0,34,35
 418 410 418 410 468.5 352 c 128,-1,36
 519 294 519 294 519 213 c 0,37,38
 519 124 519 124 457 57 c 128,-1,39
 395 -10 395 -10 284 -10 c 0,13,14
EndSplineSet
EndChar

StartChar: seven
Encoding: 55 55 26
Width: 574
GlyphClass: 2
Flags: W
LayerCount: 2
Fore
SplineSet
394 557 m 1,0,1
 249 552 249 552 114 552 c 0,2,3
 78 552 78 552 59.5 571.5 c 128,-1,4
 41 591 41 591 41 621 c 0,5,6
 41 646 41 646 53 670 c 1,7,8
 109 662 109 662 181 662 c 0,9,10
 481 662 481 662 540 664 c 1,11,12
 549 648 549 648 549 626 c 0,13,14
 549 607 549 607 543 589 c 0,15,16
 514 502 514 502 276 59 c 0,17,18
 255 19 255 19 237 4.5 c 128,-1,19
 219 -10 219 -10 198 -10 c 0,20,21
 124 -10 124 -10 64 48 c 1,22,23
 149 128 149 128 250.5 290.5 c 128,-1,24
 352 453 352 453 394 557 c 1,0,1
EndSplineSet
EndChar

StartChar: eight
Encoding: 56 56 27
Width: 574
GlyphClass: 2
Flags: W
LayerCount: 2
Fore
SplineSet
288 574 m 1,0,1
 231 574 231 574 231 528 c 0,2,3
 231 498 231 498 254 464 c 128,-1,4
 277 430 277 430 304 418 c 1,5,6
 347 448 347 448 347 515 c 0,7,8
 347 571 347 571 288 574 c 1,0,1
288 89 m 0,9,10
 326 89 326 89 347.5 114.5 c 128,-1,11
 369 140 369 140 369 178 c 0,12,13
 369 218 369 218 344.5 256 c 128,-1,14
 320 294 320 294 273 317 c 1,15,16
 245 300 245 300 225.5 259 c 128,-1,17
 206 218 206 218 206 177 c 0,18,19
 206 138 206 138 226 113.5 c 128,-1,20
 246 89 246 89 288 89 c 0,9,10
289 -10 m 128,-1,22
 175 -10 175 -10 113 43 c 128,-1,23
 51 96 51 96 51 170 c 0,24,25
 51 245 51 245 89 285.5 c 128,-1,26
 127 326 127 326 200 359 c 1,27,28
 140 388 140 388 108.5 428.5 c 128,-1,29
 77 469 77 469 77 531 c 0,30,31
 77 594 77 594 139 633.5 c 128,-1,32
 201 673 201 673 288 673 c 0,33,34
 388 673 388 673 443.5 630 c 128,-1,35
 499 587 499 587 499 527 c 0,36,37
 499 482 499 482 467 441 c 128,-1,38
 435 400 435 400 376 375 c 1,39,40
 450 342 450 342 488.5 294.5 c 128,-1,41
 527 247 527 247 527 170 c 0,42,43
 527 96 527 96 465 43 c 128,-1,21
 403 -10 403 -10 289 -10 c 128,-1,22
EndSplineSet
EndChar

StartChar: nine
Encoding: 57 57 28
Width: 574
GlyphClass: 2
Flags: W
LayerCount: 2
Fore
SplineSet
278 574 m 0,0,1
 245 574 245 574 226 544.5 c 128,-1,2
 207 515 207 515 207 473 c 0,3,4
 207 426 207 426 226 387.5 c 128,-1,5
 245 349 245 349 288 349 c 0,6,7
 321 349 321 349 364 372 c 1,8,9
 364 416 364 416 360 449 c 128,-1,10
 356 482 356 482 347.5 512 c 128,-1,11
 339 542 339 542 321.5 558 c 128,-1,12
 304 574 304 574 278 574 c 0,0,1
286 673 m 0,13,14
 352 673 352 673 399 649 c 128,-1,15
 446 625 446 625 471.5 583 c 128,-1,16
 497 541 497 541 508 493 c 128,-1,17
 519 445 519 445 519 388 c 0,18,19
 519 287 519 287 480.5 198 c 128,-1,20
 442 109 442 109 361.5 49.5 c 128,-1,21
 281 -10 281 -10 175 -10 c 0,22,23
 131 -10 131 -10 111.5 2.5 c 128,-1,24
 92 15 92 15 92 50 c 0,25,26
 92 70 92 70 98 98 c 1,27,28
 121 91 121 91 162 91 c 0,29,30
 256 91 256 91 305.5 149.5 c 128,-1,31
 355 208 355 208 363 296 c 1,32,33
 306 252 306 252 242 252 c 0,34,35
 152 253 152 253 101.5 311 c 128,-1,36
 51 369 51 369 51 450 c 0,37,38
 51 539 51 539 113 606 c 128,-1,39
 175 673 175 673 286 673 c 0,13,14
EndSplineSet
EndChar

StartChar: colon
Encoding: 58 58 29
Width: 254
GlyphClass: 2
Flags: W
LayerCount: 2
Fore
SplineSet
123 298 m 0,0,1
 85 298 85 298 58.5 324.5 c 128,-1,2
 32 351 32 351 32 392 c 0,3,4
 32 431 32 431 60 458 c 128,-1,5
 88 485 88 485 125 485 c 128,-1,6
 162 485 162 485 188.5 458 c 128,-1,7
 215 431 215 431 215 392 c 0,8,9
 215 352 215 352 187 325 c 128,-1,10
 159 298 159 298 123 298 c 0,0,1
123 -10 m 0,11,12
 85 -10 85 -10 58.5 16.5 c 128,-1,13
 32 43 32 43 32 84 c 0,14,15
 32 123 32 123 60 150 c 128,-1,16
 88 177 88 177 125 177 c 128,-1,17
 162 177 162 177 188.5 150 c 128,-1,18
 215 123 215 123 215 84 c 0,19,20
 215 44 215 44 187 17 c 128,-1,21
 159 -10 159 -10 123 -10 c 0,11,12
EndSplineSet
EndChar

StartChar: semicolon
Encoding: 59 59 30
Width: 270
GlyphClass: 2
Flags: W
LayerCount: 2
Fore
SplineSet
37 57 m 0,0,1
 37 92 37 92 61.5 114 c 128,-1,2
 86 136 86 136 126 136 c 0,3,4
 171 136 171 136 195.5 104 c 128,-1,5
 220 72 220 72 220 23 c 0,6,7
 220 -47 220 -47 174 -105 c 128,-1,8
 128 -163 128 -163 55 -163 c 0,9,10
 18 -163 18 -163 18 -124 c 0,11,12
 18 -119 18 -119 20 -103 c 1,13,-1
 25 -103 l 2,14,15
 52 -103 52 -103 72 -81.5 c 128,-1,16
 92 -60 92 -60 92 -36 c 0,17,18
 92 5 92 5 47 12 c 1,19,20
 37 33 37 33 37 57 c 0,0,1
127 298 m 0,21,22
 89 298 89 298 62.5 324.5 c 128,-1,23
 36 351 36 351 36 392 c 0,24,25
 36 431 36 431 64 458 c 128,-1,26
 92 485 92 485 129 485 c 128,-1,27
 166 485 166 485 192.5 458 c 128,-1,28
 219 431 219 431 219 392 c 0,29,30
 219 352 219 352 191 325 c 128,-1,31
 163 298 163 298 127 298 c 0,21,22
EndSplineSet
EndChar

StartChar: less
Encoding: 60 60 31
Width: 574
GlyphClass: 2
Flags: W
LayerCount: 2
Fore
SplineSet
220 254 m 1,0,1
 239 235 239 235 280 198.5 c 128,-1,2
 321 162 321 162 372.5 117 c 128,-1,3
 424 72 424 72 442 56 c 1,4,5
 431 35 431 35 411.5 21 c 128,-1,6
 392 7 392 7 372 7 c 0,7,8
 353 7 353 7 336 23 c 1,9,-1
 111 254 l 1,10,-1
 338 470 l 1,11,12
 357 486 357 486 374 486 c 0,13,14
 395 486 395 486 415 471 c 128,-1,15
 435 456 435 456 444 437 c 1,16,17
 419 415 419 415 365.5 371.5 c 128,-1,18
 312 328 312 328 268 293 c 128,-1,19
 224 258 224 258 220 254 c 1,0,1
EndSplineSet
EndChar

StartChar: equal
Encoding: 61 61 32
Width: 574
GlyphClass: 2
Flags: W
LayerCount: 2
Fore
SplineSet
507 165 m 0,0,1
 507 140 507 140 493 122.5 c 128,-1,2
 479 105 479 105 456 105 c 0,3,4
 439 105 439 105 378 110.5 c 128,-1,5
 317 116 317 116 287 116 c 0,6,7
 174 116 174 116 71 105 c 1,8,9
 67 126 67 126 67 147 c 0,10,11
 67 170 67 170 79.5 188.5 c 128,-1,12
 92 207 92 207 118 207 c 0,13,14
 122 207 122 207 186 202 c 128,-1,15
 250 197 250 197 297 197 c 0,16,17
 433 197 433 197 502 207 c 1,18,19
 507 187 507 187 507 165 c 0,0,1
507 361 m 0,20,21
 507 336 507 336 493 318.5 c 128,-1,22
 479 301 479 301 456 301 c 0,23,24
 439 301 439 301 378 306.5 c 128,-1,25
 317 312 317 312 287 312 c 0,26,27
 174 312 174 312 71 301 c 1,28,29
 67 322 67 322 67 343 c 0,30,31
 67 366 67 366 79.5 384.5 c 128,-1,32
 92 403 92 403 118 403 c 0,33,34
 122 403 122 403 186 398 c 128,-1,35
 250 393 250 393 297 393 c 0,36,37
 433 393 433 393 502 403 c 1,38,39
 507 383 507 383 507 361 c 0,20,21
EndSplineSet
EndChar

StartChar: greater
Encoding: 62 62 33
Width: 574
GlyphClass: 2
Flags: W
LayerCount: 2
Fore
SplineSet
354 254 m 1,0,1
 350 258 350 258 306 293 c 128,-1,2
 262 328 262 328 208.5 371.5 c 128,-1,3
 155 415 155 415 130 437 c 1,4,5
 139 456 139 456 159 471 c 128,-1,6
 179 486 179 486 200 486 c 0,7,8
 217 486 217 486 236 470 c 1,9,-1
 463 254 l 1,10,-1
 238 23 l 1,11,12
 221 7 221 7 202 7 c 0,13,14
 182 7 182 7 162.5 21 c 128,-1,15
 143 35 143 35 132 56 c 1,16,17
 150 72 150 72 201.5 117 c 128,-1,18
 253 162 253 162 294 198.5 c 128,-1,19
 335 235 335 235 354 254 c 1,0,1
EndSplineSet
EndChar

StartChar: question
Encoding: 63 63 34
Width: 422
GlyphClass: 2
Flags: W
LayerCount: 2
Fore
SplineSet
203 -10 m 0,0,1
 165 -10 165 -10 139 15 c 128,-1,2
 113 40 113 40 113 79 c 0,3,4
 113 116 113 116 140.5 142 c 128,-1,5
 168 168 168 168 205 168 c 0,6,7
 241 168 241 168 267.5 142 c 128,-1,8
 294 116 294 116 294 79 c 0,9,10
 294 41 294 41 266.5 15.5 c 128,-1,11
 239 -10 239 -10 203 -10 c 0,0,1
276 250 m 1,12,13
 235 229 235 229 202 229 c 0,14,15
 157 229 157 229 136.5 247 c 128,-1,16
 116 265 116 265 116 291 c 0,17,18
 116 328 116 328 137.5 364.5 c 128,-1,19
 159 401 159 401 185 426.5 c 128,-1,20
 211 452 211 452 232.5 487 c 128,-1,21
 254 522 254 522 254 556 c 0,22,23
 254 581 254 581 239 594.5 c 128,-1,24
 224 608 224 608 198 608 c 128,-1,25
 172 608 172 608 149.5 587.5 c 128,-1,26
 127 567 127 567 121 533 c 1,27,28
 26 544 26 544 26 600 c 0,29,30
 26 644 26 644 78 669 c 128,-1,31
 130 694 130 694 203 694 c 0,32,33
 230 694 230 694 255.5 691 c 128,-1,34
 281 688 281 688 310 679 c 128,-1,35
 339 670 339 670 360 656 c 128,-1,36
 381 642 381 642 395 617.5 c 128,-1,37
 409 593 409 593 409 561 c 0,38,39
 409 520 409 520 394.5 487 c 128,-1,40
 380 454 380 454 359.5 433 c 128,-1,41
 339 412 339 412 318.5 392.5 c 128,-1,42
 298 373 298 373 283.5 349 c 128,-1,43
 269 325 269 325 269 296 c 0,44,45
 269 275 269 275 276 250 c 1,12,13
EndSplineSet
EndChar

StartChar: at
Encoding: 64 64 35
Width: 839
GlyphClass: 2
Flags: W
LayerCount: 2
Fore
SplineSet
331 54 m 0,0,1
 285 54 285 54 255.5 90.5 c 128,-1,2
 226 127 226 127 226 196 c 0,3,4
 226 298 226 298 285.5 370.5 c 128,-1,5
 345 443 345 443 431 443 c 0,6,7
 530 443 530 443 601 397 c 1,8,9
 565 253 565 253 565 172 c 0,10,11
 565 117 565 117 590 117 c 0,12,13
 616 117 616 117 640 170 c 128,-1,14
 664 223 664 223 664 310 c 0,15,16
 664 407 664 407 614 460.5 c 128,-1,17
 564 514 564 514 460 514 c 0,18,19
 373 514 373 514 303 462.5 c 128,-1,20
 233 411 233 411 197.5 336 c 128,-1,21
 162 261 162 261 162 183 c 0,22,23
 162 125 162 125 181.5 82 c 128,-1,24
 201 39 201 39 234.5 16 c 128,-1,25
 268 -7 268 -7 305 -18 c 128,-1,26
 342 -29 342 -29 384 -29 c 0,27,28
 440 -29 440 -29 484.5 -12 c 128,-1,29
 529 5 529 5 537 30 c 1,30,31
 589 10 589 10 589 -28 c 0,32,33
 589 -61 589 -61 528.5 -85.5 c 128,-1,34
 468 -110 468 -110 386 -110 c 0,35,36
 339 -110 339 -110 294.5 -101 c 128,-1,37
 250 -92 250 -92 206 -70.5 c 128,-1,38
 162 -49 162 -49 130 -17 c 128,-1,39
 98 15 98 15 78 66 c 128,-1,40
 58 117 58 117 58 180 c 0,41,42
 58 253 58 253 87 325 c 128,-1,43
 116 397 116 397 167.5 456.5 c 128,-1,44
 219 516 219 516 300 553 c 128,-1,45
 381 590 381 590 475 590 c 0,46,47
 614 590 614 590 697 518.5 c 128,-1,48
 780 447 780 447 780 337 c 0,49,50
 780 223 780 223 713 146 c 128,-1,51
 646 69 646 69 548 69 c 0,52,53
 472 69 472 69 450 146 c 1,54,55
 402 54 402 54 331 54 c 0,0,1
443 204 m 1,56,57
 447 225 447 225 454.5 277 c 128,-1,58
 462 329 462 329 464 341 c 1,59,60
 442 354 442 354 419 354 c 0,61,62
 389 354 389 354 370 316.5 c 128,-1,63
 351 279 351 279 351 217 c 0,64,65
 351 188 351 188 360.5 168.5 c 128,-1,66
 370 149 370 149 387 149 c 0,67,68
 419 149 419 149 443 204 c 1,56,57
EndSplineSet
EndChar

StartChar: A
Encoding: 65 65 36
Width: 614
GlyphClass: 2
Flags: W
LayerCount: 2
Fore
SplineSet
371 288 m 1,0,1
 355 343 355 343 333 429.5 c 128,-1,2
 311 516 311 516 307 530 c 1,3,4
 245 314 245 314 237 288 c 1,5,6
 285 286 285 286 313 286 c 0,7,8
 352 286 352 286 371 288 c 1,0,1
300 187 m 0,9,10
 259 187 259 187 211 191 c 1,11,12
 143 27 143 27 129 -18 c 1,13,14
 94 -13 94 -13 78 -10 c 128,-1,15
 62 -7 62 -7 41 0.5 c 128,-1,16
 20 8 20 8 12 20 c 128,-1,17
 4 32 4 32 4 50 c 0,18,19
 4 71 4 71 38.5 152 c 128,-1,20
 73 233 73 233 131 376 c 128,-1,21
 189 519 189 519 229 656 c 1,22,23
 276 663 276 663 306 663 c 0,24,25
 390 663 390 663 414 590 c 0,26,27
 488 362 488 362 520 280 c 0,28,29
 598 77 598 77 626 22 c 1,30,31
 579 -10 579 -10 533 -10 c 0,32,33
 474 -10 474 -10 457 28 c 0,34,35
 446 54 446 54 427.5 102 c 128,-1,36
 409 150 409 150 393 189 c 1,37,38
 315 187 315 187 300 187 c 0,9,10
EndSplineSet
EndChar

StartChar: B
Encoding: 66 66 37
Width: 574
GlyphClass: 2
Flags: W
LayerCount: 2
Fore
SplineSet
248 401 m 0,0,1
 299 401 299 401 331 424.5 c 128,-1,2
 363 448 363 448 363 495 c 0,3,4
 363 536 363 536 330.5 554 c 128,-1,5
 298 572 298 572 250 572 c 0,6,7
 229 572 229 572 211 569 c 1,8,9
 215 507 215 507 215 403 c 1,10,11
 226 401 226 401 248 401 c 0,0,1
210 307 m 1,12,13
 210 261 210 261 202 117 c 1,14,15
 248 92 248 92 290 92 c 0,16,17
 333 92 333 92 359.5 119.5 c 128,-1,18
 386 147 386 147 386 198 c 0,19,20
 386 245 386 245 356.5 277.5 c 128,-1,21
 327 310 327 310 268 310 c 0,22,23
 236 310 236 310 210 307 c 1,12,13
45 53 m 1,24,25
 61 167 61 167 61 387 c 0,26,27
 61 573 61 573 48 661 c 1,28,29
 134 673 134 673 232 673 c 0,30,31
 291 673 291 673 340 664.5 c 128,-1,32
 389 656 389 656 430.5 637 c 128,-1,33
 472 618 472 618 495.5 583.5 c 128,-1,34
 519 549 519 549 519 501 c 0,35,36
 519 397 519 397 412 362 c 1,37,38
 482 339 482 339 513 298.5 c 128,-1,39
 544 258 544 258 544 191 c 0,40,41
 544 123 544 123 505.5 76 c 128,-1,42
 467 29 467 29 409.5 9.5 c 128,-1,43
 352 -10 352 -10 281 -10 c 0,44,45
 141 -10 141 -10 45 53 c 1,24,25
EndSplineSet
EndChar

StartChar: C
Encoding: 67 67 38
Width: 629
GlyphClass: 2
Flags: W
LayerCount: 2
Fore
SplineSet
525 177 m 1,0,1
 601 142 601 142 601 95 c 0,2,3
 601 66 601 66 576.5 44 c 128,-1,4
 552 22 552 22 515.5 11 c 128,-1,5
 479 0 479 0 446 -5 c 128,-1,6
 413 -10 413 -10 386 -10 c 0,7,8
 321 -10 321 -10 262 7.5 c 128,-1,9
 203 25 203 25 149.5 62.5 c 128,-1,10
 96 100 96 100 64 169.5 c 128,-1,11
 32 239 32 239 32 332 c 0,12,13
 32 492 32 492 127 582.5 c 128,-1,14
 222 673 222 673 385 673 c 0,15,16
 472 673 472 673 531.5 641.5 c 128,-1,17
 591 610 591 610 591 564 c 0,18,19
 591 529 591 529 562 507 c 128,-1,20
 533 485 533 485 485 479 c 1,21,22
 468 525 468 525 431 548.5 c 128,-1,23
 394 572 394 572 352 572 c 0,24,25
 283 572 283 572 238.5 509 c 128,-1,26
 194 446 194 446 194 352 c 0,27,28
 194 241 194 241 239.5 166 c 128,-1,29
 285 91 285 91 367 91 c 0,30,31
 413 91 413 91 455.5 112 c 128,-1,32
 498 133 498 133 525 177 c 1,0,1
EndSplineSet
EndChar

StartChar: D
Encoding: 68 68 39
Width: 659
GlyphClass: 2
Flags: W
LayerCount: 2
Fore
SplineSet
43 53 m 1,0,1
 56 145 56 145 58 389 c 1,2,3
 58 564 58 564 45 661 c 1,4,5
 114 673 114 673 219 673 c 0,6,7
 306 673 306 673 376.5 656 c 128,-1,8
 447 639 447 639 505 601.5 c 128,-1,9
 563 564 563 564 595 496 c 128,-1,10
 627 428 627 428 627 333 c 0,11,12
 627 183 627 183 537 86.5 c 128,-1,13
 447 -10 447 -10 281 -10 c 0,14,15
 128 -10 128 -10 43 53 c 1,0,1
209 570 m 1,16,17
 213 511 213 511 213 430 c 0,18,19
 213 235 213 235 199 119 c 1,20,21
 254 91 254 91 302 91 c 0,22,23
 380 91 380 91 421.5 154.5 c 128,-1,24
 463 218 463 218 463 313 c 0,25,26
 463 442 463 442 409.5 507.5 c 128,-1,27
 356 573 356 573 256 573 c 0,28,29
 232 573 232 573 209 570 c 1,16,17
EndSplineSet
EndChar

StartChar: E
Encoding: 69 69 40
Width: 532
GlyphClass: 2
Flags: W
LayerCount: 2
Fore
SplineSet
207 561 m 1,0,1
 211 529 211 529 211 407 c 1,2,-1
 290 407 l 2,3,4
 354 407 354 407 408 413 c 1,5,6
 414 400 414 400 414 371 c 0,7,8
 414 334 414 334 397 319.5 c 128,-1,9
 380 305 380 305 336 305 c 2,10,-1
 211 305 l 1,11,12
 211 136 211 136 219 102 c 1,13,14
 263 100 263 100 290 100 c 0,15,16
 453 100 453 100 500 123 c 1,17,18
 512 93 512 93 512 54 c 0,19,20
 512 20 512 20 485.5 9 c 128,-1,21
 459 -2 459 -2 380 -2 c 0,22,23
 141 -2 141 -2 103 0 c 0,24,25
 74 1 74 1 64 14 c 128,-1,26
 54 27 54 27 54 57 c 0,27,28
 54 73 54 73 55 131 c 128,-1,29
 56 189 56 189 56 224 c 2,30,-1
 56 424 l 2,31,32
 56 565 56 565 43 657 c 1,33,34
 172 666 172 666 306 666 c 0,35,36
 450 666 450 666 493 650 c 0,37,38
 512 643 512 643 512 610 c 0,39,40
 512 571 512 571 500 542 c 1,41,42
 434 563 434 563 277 563 c 0,43,44
 257 563 257 563 207 561 c 1,0,1
EndSplineSet
EndChar

StartChar: F
Encoding: 70 70 41
Width: 512
GlyphClass: 2
Flags: W
LayerCount: 2
Fore
SplineSet
207 561 m 1,0,1
 211 529 211 529 211 397 c 1,2,-1
 290 397 l 2,3,4
 354 397 354 397 408 403 c 1,5,6
 414 390 414 390 414 361 c 0,7,8
 414 324 414 324 397 309.5 c 128,-1,9
 380 295 380 295 336 295 c 2,10,-1
 211 295 l 1,11,-1
 211 203 l 2,12,13
 211 87 211 87 235 11 c 1,14,15
 226 7 226 7 197 2 c 128,-1,16
 168 -3 168 -3 152 -3 c 0,17,18
 94 -3 94 -3 74.5 17.5 c 128,-1,19
 55 38 55 38 55 93 c 0,20,21
 55 109 55 109 56 149 c 128,-1,22
 57 189 57 189 57 224 c 2,23,-1
 57 424 l 2,24,25
 57 557 57 557 43 657 c 1,26,27
 172 666 172 666 306 666 c 0,28,29
 450 666 450 666 493 650 c 0,30,31
 512 643 512 643 512 610 c 0,32,33
 512 571 512 571 500 542 c 1,34,35
 434 563 434 563 277 563 c 0,36,37
 257 563 257 563 207 561 c 1,0,1
EndSplineSet
EndChar

StartChar: G
Encoding: 71 71 42
Width: 645
GlyphClass: 2
Flags: W
LayerCount: 2
Fore
SplineSet
606 92 m 0,0,1
 606 50 606 50 543 20 c 128,-1,2
 480 -10 480 -10 383 -10 c 0,3,4
 222 -10 222 -10 127 81 c 128,-1,5
 32 172 32 172 32 332 c 128,-1,6
 32 492 32 492 127 582.5 c 128,-1,7
 222 673 222 673 385 673 c 0,8,9
 472 673 472 673 531.5 641.5 c 128,-1,10
 591 610 591 610 591 564 c 0,11,12
 591 530 591 530 562.5 507.5 c 128,-1,13
 534 485 534 485 485 479 c 1,14,15
 468 525 468 525 430.5 548.5 c 128,-1,16
 393 572 393 572 352 572 c 0,17,18
 286 572 286 572 240 510 c 128,-1,19
 194 448 194 448 194 352 c 0,20,21
 194 241 194 241 239.5 166 c 128,-1,22
 285 91 285 91 366 91 c 0,23,24
 433 91 433 91 460 129 c 1,25,26
 459 215 459 215 452 296 c 1,27,28
 491 304 491 304 518 304 c 0,29,30
 612 304 612 304 612 246 c 0,31,32
 612 243 612 243 609 188 c 128,-1,33
 606 133 606 133 606 92 c 0,0,1
EndSplineSet
EndChar

StartChar: H
Encoding: 72 72 43
Width: 666
GlyphClass: 2
Flags: W
LayerCount: 2
Fore
SplineSet
445 411 m 1,0,-1
 445 431 l 2,1,2
 445 541 445 541 436 658 c 1,3,4
 474 666 474 666 515 666 c 0,5,6
 553 666 553 666 579.5 653 c 128,-1,7
 606 640 606 640 606 612 c 0,8,9
 606 607 606 607 602.5 531 c 128,-1,10
 599 455 599 455 599 404 c 2,11,-1
 599 203 l 2,12,13
 599 91 599 91 623 11 c 1,14,15
 586 -3 586 -3 532 -3 c 0,16,17
 512 -3 512 -3 499 -0.5 c 128,-1,18
 486 2 486 2 471.5 9.5 c 128,-1,19
 457 17 457 17 450 35.5 c 128,-1,20
 443 54 443 54 443 83 c 0,21,22
 443 102 443 102 444 154.5 c 128,-1,23
 445 207 445 207 445 231 c 2,24,-1
 445 313 l 1,25,26
 407 311 407 311 328 311 c 0,27,28
 246 311 246 311 206 313 c 1,29,-1
 206 203 l 2,30,31
 206 91 206 91 230 11 c 1,32,33
 193 -3 193 -3 139 -3 c 0,34,35
 119 -3 119 -3 106 -0.5 c 128,-1,36
 93 2 93 2 78.5 9.5 c 128,-1,37
 64 17 64 17 57 35.5 c 128,-1,38
 50 54 50 54 50 83 c 0,39,40
 50 102 50 102 51 154.5 c 128,-1,41
 52 207 52 207 52 231 c 2,42,-1
 52 431 l 2,43,44
 52 541 52 541 43 658 c 1,45,46
 81 666 81 666 122 666 c 0,47,48
 160 666 160 666 186.5 653 c 128,-1,49
 213 640 213 640 213 612 c 0,50,51
 213 607 213 607 209.5 534 c 128,-1,52
 206 461 206 461 206 411 c 1,53,54
 244 409 244 409 328 409 c 0,55,56
 408 409 408 409 445 411 c 1,0,-1
EndSplineSet
EndChar

StartChar: I
Encoding: 73 73 44
Width: 258
GlyphClass: 2
Flags: W
LayerCount: 2
Fore
SplineSet
52 231 m 2,0,-1
 52 431 l 2,1,2
 52 541 52 541 43 658 c 1,3,4
 81 666 81 666 122 666 c 0,5,6
 160 666 160 666 186.5 652.5 c 128,-1,7
 213 639 213 639 213 611 c 0,8,9
 213 606 213 606 209.5 530.5 c 128,-1,10
 206 455 206 455 206 404 c 2,11,-1
 206 203 l 2,12,13
 206 91 206 91 230 11 c 1,14,15
 193 -3 193 -3 139 -3 c 0,16,17
 119 -3 119 -3 106 -0.5 c 128,-1,18
 93 2 93 2 78.5 9.5 c 128,-1,19
 64 17 64 17 57 35.5 c 128,-1,20
 50 54 50 54 50 83 c 0,21,22
 50 102 50 102 51 154.5 c 128,-1,23
 52 207 52 207 52 231 c 2,0,-1
EndSplineSet
EndChar

StartChar: J
Encoding: 74 74 45
Width: 290
GlyphClass: 2
Flags: W
LayerCount: 2
Fore
SplineSet
56 -119 m 0,0,1
 16 -119 16 -119 -2.5 -94 c 128,-1,2
 -21 -69 -21 -69 -25 -22 c 1,3,4
 47 -10 47 -10 67 25.5 c 128,-1,5
 87 61 87 61 87 136 c 0,6,7
 87 157 87 157 86.5 267.5 c 128,-1,8
 86 378 86 378 86 431 c 0,9,10
 86 541 86 541 77 658 c 1,11,12
 125 666 125 666 155 666 c 0,13,14
 196 666 196 666 221.5 652 c 128,-1,15
 247 638 247 638 247 612 c 0,16,17
 247 611 247 611 243.5 535 c 128,-1,18
 240 459 240 459 240 405 c 2,19,-1
 240 107 l 2,20,21
 240 54 240 54 224.5 12 c 128,-1,22
 209 -30 209 -30 187 -54 c 128,-1,23
 165 -78 165 -78 138 -93.5 c 128,-1,24
 111 -109 111 -109 91 -114 c 128,-1,25
 71 -119 71 -119 56 -119 c 0,0,1
EndSplineSet
EndChar

StartChar: K
Encoding: 75 75 46
Width: 614
GlyphClass: 2
Flags: W
LayerCount: 2
Fore
SplineSet
52 231 m 2,0,-1
 52 431 l 2,1,2
 52 541 52 541 43 658 c 1,3,4
 81 666 81 666 122 666 c 0,5,6
 160 666 160 666 186.5 653 c 128,-1,7
 213 640 213 640 213 612 c 0,8,9
 213 607 213 607 209.5 531 c 128,-1,10
 206 455 206 455 206 404 c 1,11,12
 287 461 287 461 366 537 c 128,-1,13
 445 613 445 613 469 673 c 1,14,15
 516 658 516 658 532 641.5 c 128,-1,16
 548 625 548 625 548 602 c 0,17,18
 548 536 548 536 341 385 c 1,19,20
 456 205 456 205 517 132 c 0,21,22
 549 95 549 95 578 95 c 0,23,24
 581 95 581 95 605 98 c 1,25,26
 614 71 614 71 614 53 c 0,27,28
 614 21 614 21 584.5 5.5 c 128,-1,29
 555 -10 555 -10 513 -10 c 0,30,31
 458 -10 458 -10 404 41 c 0,32,33
 333 108 333 108 223 304 c 1,34,35
 221 303 221 303 206 293 c 1,36,-1
 206 203 l 2,37,38
 206 91 206 91 230 11 c 1,39,40
 193 -3 193 -3 139 -3 c 0,41,42
 119 -3 119 -3 106 -0.5 c 128,-1,43
 93 2 93 2 78.5 9.5 c 128,-1,44
 64 17 64 17 57 35.5 c 128,-1,45
 50 54 50 54 50 83 c 0,46,47
 50 102 50 102 51 154.5 c 128,-1,48
 52 207 52 207 52 231 c 2,0,-1
EndSplineSet
EndChar

StartChar: L
Encoding: 76 76 47
Width: 508
GlyphClass: 2
Flags: W
LayerCount: 2
Fore
SplineSet
52 224 m 2,0,-1
 52 431 l 2,1,2
 52 541 52 541 43 658 c 1,3,4
 81 666 81 666 122 666 c 0,5,6
 160 666 160 666 186.5 653 c 128,-1,7
 213 640 213 640 213 612 c 0,8,9
 213 607 213 607 209.5 532.5 c 128,-1,10
 206 458 206 458 206 407 c 2,11,-1
 206 211 l 2,12,13
 206 134 206 134 214 102 c 1,14,15
 258 100 258 100 286 100 c 0,16,17
 449 100 449 100 496 123 c 1,18,19
 508 93 508 93 508 54 c 0,20,21
 508 20 508 20 481.5 9 c 128,-1,22
 455 -2 455 -2 376 -2 c 0,23,24
 137 -2 137 -2 99 0 c 0,25,26
 70 1 70 1 60 14 c 128,-1,27
 50 27 50 27 50 57 c 0,28,29
 50 91 50 91 51 147.5 c 128,-1,30
 52 204 52 204 52 224 c 2,0,-1
EndSplineSet
EndChar

StartChar: M
Encoding: 77 77 48
Width: 821
GlyphClass: 2
Flags: W
LayerCount: 2
Fore
SplineSet
759 436 m 2,0,-1
 759 203 l 2,1,2
 759 73 759 73 778 10 c 1,3,4
 726 -3 726 -3 692 -3 c 0,5,6
 602 -3 602 -3 602 72 c 0,7,8
 602 84 602 84 602.5 127 c 128,-1,9
 603 170 603 170 603.5 253.5 c 128,-1,10
 604 337 604 337 604 415 c 1,11,12
 515 164 515 164 485 8 c 1,13,14
 457 -2 457 -2 417 -2 c 0,15,16
 335 -2 335 -2 320 35 c 0,17,18
 301 81 301 81 261 218.5 c 128,-1,19
 221 356 221 356 196 420 c 1,20,-1
 196 203 l 2,21,22
 196 68 196 68 215 5 c 1,23,24
 179 -3 179 -3 145 -3 c 0,25,26
 60 -3 60 -3 60 54 c 0,27,28
 60 70 60 70 61 133 c 128,-1,29
 62 196 62 196 62 231 c 2,30,-1
 62 483 l 2,31,32
 62 595 62 595 43 659 c 1,33,34
 106 668 106 668 143 668 c 0,35,36
 234 668 234 668 261 608 c 0,37,38
 291 541 291 541 319.5 453.5 c 128,-1,39
 348 366 348 366 363.5 310.5 c 128,-1,40
 379 255 379 255 412 133 c 1,41,42
 468 399 468 399 569 619 c 0,43,44
 582 647 582 647 611 657 c 128,-1,45
 640 667 640 667 687 667 c 0,46,47
 740 667 740 667 777 659 c 1,48,49
 759 599 759 599 759 436 c 2,0,-1
EndSplineSet
EndChar

StartChar: N
Encoding: 78 78 49
Width: 663
GlyphClass: 2
Flags: W
LayerCount: 2
Fore
SplineSet
608 4 m 1,0,1
 576 -3 576 -3 546 -3 c 0,2,3
 461 -3 461 -3 431 44 c 0,4,5
 392 105 392 105 342 194 c 0,6,7
 250 359 250 359 205 431 c 1,8,-1
 205 203 l 2,9,10
 205 76 205 76 226 10 c 1,11,12
 197 -3 197 -3 151 -3 c 0,13,14
 101 -3 101 -3 80 11.5 c 128,-1,15
 59 26 59 26 59 66 c 0,16,17
 59 82 59 82 60.5 139 c 128,-1,18
 62 196 62 196 62 231 c 2,19,-1
 62 431 l 2,20,21
 62 592 62 592 43 653 c 1,22,23
 91 667 91 667 130 667 c 0,24,25
 202 667 202 667 238 623 c 0,26,27
 311 532 311 532 457 275 c 1,28,-1
 456 431 l 2,29,30
 456 568 456 568 449 659 c 1,31,32
 491 666 491 666 511 666 c 0,33,34
 609 666 609 666 609 608 c 0,35,36
 609 604 609 604 605 523.5 c 128,-1,37
 601 443 601 443 601 404 c 2,38,-1
 601 233 l 2,39,40
 601 95 601 95 608 4 c 1,0,1
EndSplineSet
EndChar

StartChar: O
Encoding: 79 79 50
Width: 728
GlyphClass: 2
Flags: W
LayerCount: 2
Fore
SplineSet
363 -10 m 0,0,1
 212 -10 212 -10 122 83 c 128,-1,2
 32 176 32 176 32 331 c 0,3,4
 32 488 32 488 121.5 580.5 c 128,-1,5
 211 673 211 673 363 673 c 0,6,7
 516 673 516 673 606 580.5 c 128,-1,8
 696 488 696 488 696 331 c 0,9,10
 696 176 696 176 605.5 83 c 128,-1,11
 515 -10 515 -10 363 -10 c 0,0,1
532 313 m 0,12,13
 532 379 532 379 516.5 435 c 128,-1,14
 501 491 501 491 461.5 531.5 c 128,-1,15
 422 572 422 572 364 572 c 0,16,17
 286 572 286 572 240 513 c 128,-1,18
 194 454 194 454 194 362 c 0,19,20
 194 292 194 292 209.5 233.5 c 128,-1,21
 225 175 225 175 264.5 133 c 128,-1,22
 304 91 304 91 362 91 c 0,23,24
 443 91 443 91 487.5 152.5 c 128,-1,25
 532 214 532 214 532 313 c 0,12,13
EndSplineSet
EndChar

StartChar: P
Encoding: 80 80 51
Width: 539
GlyphClass: 2
Flags: W
LayerCount: 2
Fore
SplineSet
271 324 m 0,0,1
 314 324 314 324 338 358 c 128,-1,2
 362 392 362 392 362 450 c 0,3,4
 362 519 362 519 332 545.5 c 128,-1,5
 302 572 302 572 239 572 c 0,6,7
 227 572 227 572 207 568 c 1,8,9
 211 522 211 522 211 408 c 2,10,-1
 211 339 l 1,11,12
 243 324 243 324 271 324 c 0,0,1
57 231 m 2,13,-1
 57 431 l 2,14,15
 57 571 57 571 43 661 c 1,16,17
 129 673 129 673 215 673 c 0,18,19
 525 673 525 673 525 457 c 0,20,21
 525 350 525 350 462.5 288 c 128,-1,22
 400 226 400 226 312 226 c 0,23,24
 260 226 260 226 211 256 c 1,25,-1
 211 189 l 2,26,27
 211 87 211 87 235 11 c 1,28,29
 204 -3 204 -3 141 -3 c 0,30,31
 90 -3 90 -3 72.5 19 c 128,-1,32
 55 41 55 41 55 83 c 0,33,34
 55 99 55 99 56 147.5 c 128,-1,35
 57 196 57 196 57 231 c 2,13,-1
EndSplineSet
EndChar

StartChar: Q
Encoding: 81 81 52
Width: 728
GlyphClass: 2
Flags: W
LayerCount: 2
Fore
SplineSet
532 313 m 0,0,1
 532 379 532 379 516.5 435 c 128,-1,2
 501 491 501 491 461.5 531.5 c 128,-1,3
 422 572 422 572 364 572 c 0,4,5
 286 572 286 572 240 513 c 128,-1,6
 194 454 194 454 194 362 c 0,7,8
 194 292 194 292 209.5 233.5 c 128,-1,9
 225 175 225 175 264.5 133 c 128,-1,10
 304 91 304 91 362 91 c 0,11,12
 443 91 443 91 487.5 152.5 c 128,-1,13
 532 214 532 214 532 313 c 0,0,1
538 -168 m 0,14,15
 453 -168 453 -168 384.5 -127 c 128,-1,16
 316 -86 316 -86 302 -5 c 1,17,18
 176 13 176 13 104 102.5 c 128,-1,19
 32 192 32 192 32 331 c 0,20,21
 32 488 32 488 121.5 580.5 c 128,-1,22
 211 673 211 673 363 673 c 0,23,24
 516 673 516 673 606 580.5 c 128,-1,25
 696 488 696 488 696 331 c 0,26,27
 696 190 696 190 620 99.5 c 128,-1,28
 544 9 544 9 414 -7 c 1,29,30
 433 -66 433 -66 513 -66 c 0,31,32
 549 -66 549 -66 583.5 -52 c 128,-1,33
 618 -38 618 -38 636 -14 c 1,34,35
 658 -28 658 -28 672.5 -50 c 128,-1,36
 687 -72 687 -72 687 -94 c 0,37,38
 687 -127 687 -127 643.5 -147.5 c 128,-1,39
 600 -168 600 -168 538 -168 c 0,14,15
EndSplineSet
EndChar

StartChar: R
Encoding: 82 82 53
Width: 581
GlyphClass: 2
Flags: W
LayerCount: 2
Fore
SplineSet
489 119 m 0,0,1
 510 95 510 95 541 95 c 0,2,3
 554 95 554 95 569 98 c 1,4,5
 578 73 578 73 578 53 c 0,6,7
 578 19 578 19 545.5 4.5 c 128,-1,8
 513 -10 513 -10 471 -10 c 0,9,10
 417 -10 417 -10 384 24 c 0,11,12
 321 88 321 88 254 272 c 1,13,14
 235 279 235 279 235 301 c 0,15,16
 235 321 235 321 246 347 c 1,17,18
 257 344 257 344 272 344 c 0,19,20
 316 344 316 344 339 378.5 c 128,-1,21
 362 413 362 413 362 469 c 0,22,23
 362 526 362 526 333 548.5 c 128,-1,24
 304 571 304 571 244 571 c 0,25,26
 228 571 228 571 206 569 c 1,27,28
 209 529 209 529 209 378 c 2,29,-1
 209 199 l 2,30,31
 209 86 209 86 233 11 c 1,32,33
 196 -3 196 -3 139 -3 c 0,34,35
 89 -3 89 -3 71 18.5 c 128,-1,36
 53 40 53 40 53 83 c 0,37,38
 53 99 53 99 54 147.5 c 128,-1,39
 55 196 55 196 55 231 c 2,40,-1
 55 431 l 2,41,42
 55 565 55 565 43 661 c 1,43,44
 129 673 129 673 215 673 c 0,45,46
 524 673 524 673 524 464 c 0,47,48
 524 328 524 328 403 281 c 1,49,50
 452 161 452 161 489 119 c 0,0,1
EndSplineSet
EndChar

StartChar: S
Encoding: 83 83 54
Width: 547
GlyphClass: 2
Flags: W
LayerCount: 2
Fore
SplineSet
419 498 m 1,0,1
 403 527 403 527 360 548.5 c 128,-1,2
 317 570 317 570 277 570 c 0,3,4
 244 570 244 570 223.5 552.5 c 128,-1,5
 203 535 203 535 203 499 c 0,6,7
 203 467 203 467 226.5 445 c 128,-1,8
 250 423 250 423 284.5 412.5 c 128,-1,9
 319 402 319 402 360 386 c 128,-1,10
 401 370 401 370 435.5 352 c 128,-1,11
 470 334 470 334 493.5 296 c 128,-1,12
 517 258 517 258 517 204 c 0,13,14
 517 145 517 145 494.5 102 c 128,-1,15
 472 59 472 59 433 35.5 c 128,-1,16
 394 12 394 12 349.5 1 c 128,-1,17
 305 -10 305 -10 254 -10 c 0,18,19
 162 -10 162 -10 95.5 16 c 128,-1,20
 29 42 29 42 29 84 c 0,21,22
 29 115 29 115 46 134 c 128,-1,23
 63 153 63 153 104 175 c 1,24,25
 129 140 129 140 179 116.5 c 128,-1,26
 229 93 229 93 276 93 c 0,27,28
 316 93 316 93 341 112 c 128,-1,29
 366 131 366 131 366 171 c 0,30,31
 366 209 366 209 333.5 232 c 128,-1,32
 301 255 301 255 255 269 c 128,-1,33
 209 283 209 283 163 302.5 c 128,-1,34
 117 322 117 322 84.5 367 c 128,-1,35
 52 412 52 412 52 483 c 0,36,37
 52 534 52 534 74 572 c 128,-1,38
 96 610 96 610 133.5 631.5 c 128,-1,39
 171 653 171 653 215.5 663 c 128,-1,40
 260 673 260 673 312 673 c 0,41,42
 394 673 394 673 453 649 c 128,-1,43
 512 625 512 625 512 582 c 0,44,45
 512 556 512 556 487.5 533 c 128,-1,46
 463 510 463 510 419 498 c 1,0,1
EndSplineSet
EndChar

StartChar: T
Encoding: 84 84 55
Width: 545
GlyphClass: 2
Flags: W
LayerCount: 2
Fore
SplineSet
196 218 m 2,0,-1
 196 403 l 2,1,2
 196 490 196 490 193 562 c 1,3,4
 65 562 65 562 5 556 c 1,5,6
 0 571 0 571 0 605 c 0,7,8
 0 624 0 624 7 636 c 128,-1,9
 14 648 14 648 29.5 653 c 128,-1,10
 45 658 45 658 59 659.5 c 128,-1,11
 73 661 73 661 97 661 c 2,12,-1
 312 661 l 2,13,14
 480 661 480 661 540 665 c 1,15,16
 545 643 545 643 545 619 c 0,17,18
 545 562 545 562 469 562 c 2,19,-1
 355 562 l 1,20,21
 350 467 350 467 350 377 c 2,22,-1
 350 190 l 2,23,24
 350 89 350 89 374 11 c 1,25,26
 330 -3 330 -3 278 -3 c 0,27,28
 230 -3 230 -3 212 18.5 c 128,-1,29
 194 40 194 40 194 83 c 0,30,31
 194 98 194 98 195 142 c 128,-1,32
 196 186 196 186 196 218 c 2,0,-1
EndSplineSet
EndChar

StartChar: U
Encoding: 85 85 56
Width: 681
GlyphClass: 2
Flags: W
LayerCount: 2
Fore
SplineSet
457 77 m 1,0,1
 415 36 415 36 360.5 13 c 128,-1,2
 306 -10 306 -10 258 -10 c 0,3,4
 164 -10 164 -10 109.5 34.5 c 128,-1,5
 55 79 55 79 55 192 c 0,6,7
 55 251 55 251 59.5 352 c 128,-1,8
 64 453 64 453 64 501 c 0,9,10
 64 595 64 595 47 652 c 1,11,12
 84 666 84 666 128 666 c 0,13,14
 182 666 182 666 204 644 c 128,-1,15
 226 622 226 622 226 562 c 0,16,17
 226 540 226 540 219.5 407.5 c 128,-1,18
 213 275 213 275 213 198 c 0,19,20
 213 147 213 147 241.5 120.5 c 128,-1,21
 270 94 270 94 307 94 c 0,22,23
 345 94 345 94 388.5 116.5 c 128,-1,24
 432 139 432 139 459 169 c 1,25,26
 459 176 459 176 459.5 201.5 c 128,-1,27
 460 227 460 227 460 288.5 c 128,-1,28
 460 350 460 350 460 446 c 0,29,30
 460 548 460 548 451 658 c 1,31,32
 489 666 489 666 529 666 c 0,33,34
 573 666 573 666 597 651.5 c 128,-1,35
 621 637 621 637 621 612 c 2,36,-1
 618 534 l 2,37,38
 614 455 614 455 614 366 c 2,39,-1
 614 259 l 2,40,41
 614 152 614 152 619 104 c 128,-1,42
 624 56 624 56 638 11 c 1,43,44
 601 -3 601 -3 547 -3 c 0,45,46
 498 -3 498 -3 480 14 c 128,-1,47
 462 31 462 31 457 77 c 1,0,1
EndSplineSet
EndChar

StartChar: V
Encoding: 86 86 57
Width: 625
GlyphClass: 2
Flags: W
LayerCount: 2
Fore
SplineSet
449 662 m 1,0,1
 491 673 491 673 526 673 c 0,2,3
 618 673 618 673 618 611 c 0,4,5
 618 515 618 515 552 338.5 c 128,-1,6
 486 162 486 162 419 70 c 0,7,8
 366 -3 366 -3 283 -3 c 0,9,10
 239 -3 239 -3 210 4 c 1,11,12
 178 162 178 162 111.5 348 c 128,-1,13
 45 534 45 534 -13 610 c 1,14,15
 48 666 48 666 100 666 c 0,16,17
 136 666 136 666 156 633 c 0,18,19
 227 514 227 514 306 115 c 1,20,21
 355 196 355 196 405 345.5 c 128,-1,22
 455 495 455 495 455 603 c 0,23,24
 455 635 455 635 449 662 c 1,0,1
EndSplineSet
EndChar

StartChar: W
Encoding: 87 87 58
Width: 1003
GlyphClass: 2
Flags: W
LayerCount: 2
Fore
SplineSet
416 662 m 1,0,1
 458 673 458 673 493 673 c 0,2,3
 585 673 585 673 585 611 c 0,4,5
 585 580 585 580 577 535 c 1,6,7
 639 426 639 426 694 115 c 1,8,9
 738 196 738 196 782.5 345.5 c 128,-1,10
 827 495 827 495 827 603 c 0,11,12
 827 635 827 635 821 662 c 1,13,14
 863 673 863 673 898 673 c 0,15,16
 990 673 990 673 990 611 c 0,17,18
 990 515 990 515 927.5 338.5 c 128,-1,19
 865 162 865 162 801 70 c 0,20,21
 751 -3 751 -3 673 -3 c 0,22,23
 631 -3 631 -3 603 4 c 1,24,25
 563 207 563 207 523 342 c 1,26,27
 461 164 461 164 396 70 c 0,28,29
 346 -3 346 -3 268 -3 c 0,30,31
 226 -3 226 -3 198 4 c 1,32,33
 168 163 168 163 105 348.5 c 128,-1,34
 42 534 42 534 -13 610 c 1,35,36
 48 666 48 666 100 666 c 0,37,38
 136 666 136 666 156 633 c 1,39,40
 191 566 191 566 227.5 413 c 128,-1,41
 264 260 264 260 289 115 c 1,42,43
 333 196 333 196 377.5 345.5 c 128,-1,44
 422 495 422 495 422 603 c 0,45,46
 422 635 422 635 416 662 c 1,0,1
EndSplineSet
EndChar

StartChar: X
Encoding: 88 88 59
Width: 641
GlyphClass: 2
Flags: W
LayerCount: 2
Fore
SplineSet
18 65 m 0,0,1
 18 82 18 82 34.5 109.5 c 128,-1,2
 51 137 51 137 80 170.5 c 128,-1,3
 109 204 109 204 135.5 232.5 c 128,-1,4
 162 261 162 261 196 295.5 c 128,-1,5
 230 330 230 330 243 345 c 1,6,7
 188 434 188 434 124.5 500.5 c 128,-1,8
 61 567 61 567 16 596 c 1,9,10
 79 673 79 673 137 673 c 0,11,12
 171 673 171 673 194.5 658 c 128,-1,13
 218 643 218 643 238 608 c 0,14,15
 289 518 289 518 327 424 c 1,16,17
 426 589 426 589 436 673 c 1,18,19
 581 657 581 657 581 598 c 0,20,21
 581 585 581 585 569.5 563.5 c 128,-1,22
 558 542 558 542 534.5 512 c 128,-1,23
 511 482 511 482 492 459.5 c 128,-1,24
 473 437 473 437 439.5 399 c 128,-1,25
 406 361 406 361 393 346 c 1,26,27
 452 246 452 246 521 169 c 128,-1,28
 590 92 590 92 637 63 c 1,29,30
 577 -10 577 -10 510 -10 c 0,31,32
 456 -10 456 -10 431 38 c 0,33,34
 324 235 324 235 310 264 c 1,35,36
 262 209 262 209 217 128.5 c 128,-1,37
 172 48 172 48 162 -10 c 1,38,39
 103 -5 103 -5 60.5 13.5 c 128,-1,40
 18 32 18 32 18 65 c 0,0,1
EndSplineSet
EndChar

StartChar: Y
Encoding: 89 89 60
Width: 565
GlyphClass: 2
Flags: W
LayerCount: 2
Fore
SplineSet
298 391 m 1,0,1
 333 445 333 445 374.5 542.5 c 128,-1,2
 416 640 416 640 417 673 c 1,3,4
 561 658 561 658 561 598 c 0,5,6
 561 589 561 589 554.5 573.5 c 128,-1,7
 548 558 548 558 533.5 535 c 128,-1,8
 519 512 519 512 506 492.5 c 128,-1,9
 493 473 493 473 469.5 441 c 128,-1,10
 446 409 446 409 434 393 c 128,-1,11
 422 377 422 377 396 343 c 128,-1,12
 370 309 370 309 364 301 c 1,13,-1
 364 203 l 2,14,15
 364 91 364 91 388 11 c 1,16,17
 351 -3 351 -3 297 -3 c 0,18,19
 277 -3 277 -3 264 -0.5 c 128,-1,20
 251 2 251 2 236.5 9.5 c 128,-1,21
 222 17 222 17 215 35.5 c 128,-1,22
 208 54 208 54 208 83 c 0,23,24
 208 102 208 102 209 154.5 c 128,-1,25
 210 207 210 207 210 231 c 2,26,-1
 210 294 l 1,27,28
 64 569 64 569 -7 600 c 1,29,30
 44 669 44 669 100 669 c 128,-1,31
 156 669 156 669 192 606 c 0,32,33
 223 550 223 550 298 391 c 1,0,1
EndSplineSet
EndChar

StartChar: Z
Encoding: 90 90 61
Width: 567
GlyphClass: 2
Flags: W
LayerCount: 2
Fore
SplineSet
537 648 m 1,0,1
 554 631 554 631 554 610 c 0,2,3
 554 587 554 587 532 556 c 0,4,5
 396 372 396 372 308 256 c 128,-1,6
 220 140 220 140 200 116 c 2,7,-1
 180 93 l 1,8,9
 225 93 225 93 250 94 c 0,10,11
 417 100 417 100 522 126 c 1,12,13
 541 83 541 83 541 53 c 0,14,15
 541 7 541 7 461 0 c 0,16,17
 395 -6 395 -6 289 -6 c 0,18,19
 134 -6 134 -6 35 6 c 1,20,21
 17 28 17 28 17 52 c 0,22,23
 17 78 17 78 43 116 c 0,24,25
 326 511 326 511 376 567 c 1,26,27
 328 567 328 567 297 566 c 0,28,29
 145 560 145 560 58 539 c 1,30,31
 37 583 37 583 37 611 c 0,32,33
 37 626 37 626 46 640 c 128,-1,34
 55 654 55 654 72 657 c 0,35,36
 116 667 116 667 227 667 c 0,37,38
 416 667 416 667 537 648 c 1,0,1
EndSplineSet
EndChar

StartChar: bracketleft
Encoding: 91 91 62
Width: 378
GlyphClass: 2
Flags: W
LayerCount: 2
Fore
SplineSet
228 640 m 1,0,-1
 228 -109 l 1,1,2
 266 -107 266 -107 308 -107 c 0,3,4
 333 -107 333 -107 342.5 -119 c 128,-1,5
 352 -131 352 -131 352 -157 c 0,6,7
 352 -174 352 -174 348 -190 c 1,8,-1
 97 -190 l 1,9,-1
 97 720 l 1,10,-1
 348 720 l 1,11,12
 352 708 352 708 352 687 c 0,13,14
 352 659 352 659 341.5 648.5 c 128,-1,15
 331 638 331 638 308 638 c 0,16,17
 265 638 265 638 228 640 c 1,0,-1
EndSplineSet
EndChar

StartChar: backslash
Encoding: 92 92 63
Width: 249
GlyphClass: 2
Flags: W
LayerCount: 2
Fore
SplineSet
105 218 m 1,0,1
 30 681 30 681 30 702 c 0,2,3
 30 741 30 741 82 741 c 0,4,5
 99 741 99 741 112 736 c 1,6,7
 118 663 118 663 154 405 c 0,8,9
 159 367 159 367 177.5 246.5 c 128,-1,10
 196 126 196 126 212.5 22.5 c 128,-1,11
 229 -81 229 -81 229 -78 c 1,12,13
 229 -118 229 -118 182 -118 c 0,14,15
 169 -118 169 -118 147 -113 c 1,16,17
 138 -5 138 -5 105 218 c 1,0,1
EndSplineSet
EndChar

StartChar: bracketright
Encoding: 93 93 64
Width: 358
GlyphClass: 2
Flags: W
LayerCount: 2
Fore
SplineSet
143 -109 m 1,0,-1
 143 640 l 1,1,2
 106 638 106 638 63 638 c 0,3,4
 40 638 40 638 29.5 648.5 c 128,-1,5
 19 659 19 659 19 687 c 0,6,7
 19 708 19 708 23 720 c 1,8,-1
 274 720 l 1,9,-1
 274 -190 l 1,10,-1
 23 -190 l 1,11,12
 19 -174 19 -174 19 -157 c 0,13,14
 19 -131 19 -131 28.5 -119 c 128,-1,15
 38 -107 38 -107 63 -107 c 0,16,17
 105 -107 105 -107 143 -109 c 1,0,-1
EndSplineSet
EndChar

StartChar: asciicircum
Encoding: 94 94 65
Width: 531
GlyphClass: 2
Flags: W
LayerCount: 2
Fore
SplineSet
267 543 m 1,0,1
 260 536 260 536 234 508 c 128,-1,2
 208 480 208 480 191.5 463 c 128,-1,3
 175 446 175 446 151 424 c 128,-1,4
 127 402 127 402 108 391 c 128,-1,5
 89 380 89 380 75 380 c 0,6,7
 49 380 49 380 16 413 c 1,8,9
 44 455 44 455 128.5 541.5 c 128,-1,10
 213 628 213 628 266 675 c 1,11,12
 320 626 320 626 403.5 540.5 c 128,-1,13
 487 455 487 455 515 413 c 1,14,15
 482 380 482 380 457 380 c 0,16,17
 448 380 448 380 435.5 386.5 c 128,-1,18
 423 393 423 393 407.5 405.5 c 128,-1,19
 392 418 392 418 377.5 430.5 c 128,-1,20
 363 443 363 443 345 461.5 c 128,-1,21
 327 480 327 480 315 492 c 128,-1,22
 303 504 303 504 287 521 c 128,-1,23
 271 538 271 538 267 543 c 1,0,1
EndSplineSet
EndChar

StartChar: underscore
Encoding: 95 95 66
Width: 535
GlyphClass: 2
Flags: W
LayerCount: 2
Fore
SplineSet
535 -110 m 0,0,1
 535 -128 535 -128 525 -140 c 128,-1,2
 515 -152 515 -152 499 -152 c 0,3,4
 484 -152 484 -152 430 -148 c 128,-1,5
 376 -144 376 -144 348 -144 c 2,6,-1
 205 -144 l 2,7,8
 91 -144 91 -144 3 -152 c 1,9,10
 0 -137 0 -137 0 -122 c 0,11,12
 0 -106 0 -106 9 -93 c 128,-1,13
 18 -80 18 -80 36 -80 c 0,14,15
 39 -80 39 -80 99 -83.5 c 128,-1,16
 159 -87 159 -87 203 -87 c 2,17,-1
 345 -87 l 2,18,19
 472 -87 472 -87 532 -80 c 1,20,21
 535 -89 535 -89 535 -110 c 0,0,1
EndSplineSet
EndChar

StartChar: grave
Encoding: 96 96 67
Width: 269
GlyphClass: 2
Flags: W
LayerCount: 2
Fore
SplineSet
34 755 m 1,0,1
 54 729 54 729 90 702 c 128,-1,2
 126 675 126 675 155 657.5 c 128,-1,3
 184 640 184 640 206.5 618.5 c 128,-1,4
 229 597 229 597 229 578 c 0,5,6
 229 551 229 551 190 523 c 1,7,8
 153 550 153 550 91.5 581.5 c 128,-1,9
 30 613 30 613 -1.5 635.5 c 128,-1,10
 -33 658 -33 658 -33 684 c 0,11,12
 -33 723 -33 723 34 755 c 1,0,1
EndSplineSet
EndChar

StartChar: a
Encoding: 97 97 68
Width: 494
GlyphClass: 2
Flags: W
LayerCount: 2
Fore
SplineSet
128 314 m 1,0,1
 40 330 40 330 40 389 c 0,2,3
 40 429 40 429 97.5 457 c 128,-1,4
 155 485 155 485 236 485 c 0,5,6
 341 485 341 485 391 445 c 128,-1,7
 441 405 441 405 441 312 c 0,8,9
 441 304 441 304 440 253 c 128,-1,10
 439 202 439 202 439 177 c 0,11,12
 439 62 439 62 458 5 c 1,13,14
 414 -7 414 -7 380 -7 c 0,15,16
 308 -7 308 -7 296 51 c 1,17,18
 272 23 272 23 234.5 6.5 c 128,-1,19
 197 -10 197 -10 159 -10 c 0,20,21
 104 -10 104 -10 66.5 25.5 c 128,-1,22
 29 61 29 61 29 131 c 0,23,24
 29 187 29 187 51.5 213 c 128,-1,25
 74 239 74 239 113 252 c 0,26,27
 189 276 189 276 293 282 c 1,28,29
 293 343 293 343 279.5 367.5 c 128,-1,30
 266 392 266 392 223 392 c 0,31,32
 198 392 198 392 169.5 371 c 128,-1,33
 141 350 141 350 128 314 c 1,0,1
292 210 m 1,34,35
 262 205 262 205 246 201 c 128,-1,36
 230 197 230 197 211.5 188.5 c 128,-1,37
 193 180 193 180 185.5 166.5 c 128,-1,38
 178 153 178 153 178 133 c 0,39,40
 178 108 178 108 190 95.5 c 128,-1,41
 202 83 202 83 220 83 c 0,42,43
 262 83 262 83 290 108 c 1,44,45
 289 117 289 117 289 138 c 0,46,47
 289 174 289 174 292 210 c 1,34,35
EndSplineSet
EndChar

StartChar: b
Encoding: 98 98 69
Width: 544
GlyphClass: 2
Flags: W
LayerCount: 2
Fore
SplineSet
206 430 m 1,0,1
 264 484 264 484 331 484 c 0,2,3
 421 484 421 484 470 418.5 c 128,-1,4
 519 353 519 353 519 250 c 0,5,6
 519 140 519 140 456 65 c 128,-1,7
 393 -10 393 -10 275 -10 c 0,8,9
 147 -10 147 -10 55 58 c 1,10,11
 62 118 62 118 62 273 c 0,12,13
 62 402 62 402 56 568 c 0,14,15
 51 691 51 691 39 730 c 1,16,17
 86 743 86 743 123 743 c 0,18,19
 209 743 209 743 209 678 c 0,20,21
 209 677 209 677 207 533 c 0,22,23
 207 507 207 507 206.5 473 c 128,-1,24
 206 439 206 439 206 430 c 1,0,1
208 350 m 1,25,26
 208 339 208 339 208.5 291.5 c 128,-1,27
 209 244 209 244 209 216 c 0,28,29
 209 139 209 139 205 107 c 1,30,31
 247 86 247 86 282 86 c 0,32,33
 371 86 371 86 371 240 c 0,34,35
 371 262 371 262 368.5 283 c 128,-1,36
 366 304 366 304 359.5 330.5 c 128,-1,37
 353 357 353 357 337 373 c 128,-1,38
 321 389 321 389 298 389 c 0,39,40
 259 389 259 389 208 350 c 1,25,26
EndSplineSet
EndChar

StartChar: c
Encoding: 99 99 70
Width: 477
GlyphClass: 2
Flags: W
LayerCount: 2
Fore
SplineSet
281 85 m 0,0,1
 312 85 312 85 339.5 100.5 c 128,-1,2
 367 116 367 116 377 143 c 1,3,4
 422 127 422 127 436 112 c 128,-1,5
 450 97 450 97 450 76 c 0,6,7
 450 35 450 35 402 12.5 c 128,-1,8
 354 -10 354 -10 277 -10 c 0,9,10
 165 -10 165 -10 97 52.5 c 128,-1,11
 29 115 29 115 29 227 c 0,12,13
 29 293 29 293 51.5 344 c 128,-1,14
 74 395 74 395 110 425 c 128,-1,15
 146 455 146 455 188 470 c 128,-1,16
 230 485 230 485 273 485 c 0,17,18
 336 485 336 485 393.5 459 c 128,-1,19
 451 433 451 433 451 387 c 0,20,21
 451 326 451 326 353 314 c 1,22,23
 344 348 344 348 321 368 c 128,-1,24
 298 388 298 388 270 388 c 0,25,26
 233 388 233 388 206 350.5 c 128,-1,27
 179 313 179 313 179 240 c 0,28,29
 179 85 179 85 281 85 c 0,0,1
EndSplineSet
EndChar

StartChar: d
Encoding: 100 100 71
Width: 544
GlyphClass: 2
Flags: W
LayerCount: 2
Fore
SplineSet
29 237 m 0,0,1
 29 340 29 340 86 412.5 c 128,-1,2
 143 485 143 485 228 485 c 0,3,4
 284 485 284 485 341 451 c 1,5,6
 343 515 343 515 343 552 c 0,7,8
 343 661 343 661 335 730 c 1,9,10
 381 743 381 743 402 743 c 0,11,12
 495 743 495 743 495 679 c 0,13,14
 495 620 495 620 490.5 452 c 128,-1,15
 486 284 486 284 486 223 c 0,16,17
 486 65 486 65 505 5 c 1,18,19
 457 -7 457 -7 427 -7 c 0,20,21
 385 -7 385 -7 367 8.5 c 128,-1,22
 349 24 349 24 343 51 c 1,23,24
 317 24 317 24 282.5 7 c 128,-1,25
 248 -10 248 -10 217 -10 c 0,26,27
 140 -10 140 -10 84.5 60 c 128,-1,28
 29 130 29 130 29 237 c 0,0,1
337 368 m 1,29,30
 307 390 307 390 275 390 c 0,31,32
 230 390 230 390 204 350.5 c 128,-1,33
 178 311 178 311 178 246 c 0,34,35
 178 174 178 174 204 127.5 c 128,-1,36
 230 81 230 81 268 81 c 0,37,38
 312 81 312 81 339 111 c 1,39,40
 337 317 337 317 337 368 c 1,29,30
EndSplineSet
EndChar

StartChar: e
Encoding: 101 101 72
Width: 492
GlyphClass: 2
Flags: W
LayerCount: 2
Fore
SplineSet
281 485 m 0,0,1
 355 485 355 485 409 448 c 128,-1,2
 463 411 463 411 463 338 c 0,3,4
 463 190 463 190 251 190 c 0,5,6
 232 190 232 190 182 192 c 1,7,8
 182 135 182 135 210.5 109 c 128,-1,9
 239 83 239 83 281 83 c 0,10,11
 355 83 355 83 396 131 c 1,12,13
 419 120 419 120 433.5 101.5 c 128,-1,14
 448 83 448 83 448 64 c 0,15,16
 448 34 448 34 412.5 16 c 128,-1,17
 377 -2 377 -2 343.5 -6 c 128,-1,18
 310 -10 310 -10 279 -10 c 0,19,20
 169 -10 169 -10 99 50.5 c 128,-1,21
 29 111 29 111 29 235 c 0,22,23
 29 317 29 317 67.5 375.5 c 128,-1,24
 106 434 106 434 161.5 459.5 c 128,-1,25
 217 485 217 485 281 485 c 0,0,1
273 390 m 0,26,27
 237 390 237 390 210 357.5 c 128,-1,28
 183 325 183 325 182 262 c 1,29,30
 210 264 210 264 221.5 265.5 c 128,-1,31
 233 267 233 267 254.5 272 c 128,-1,32
 276 277 276 277 285.5 285.5 c 128,-1,33
 295 294 295 294 303 309.5 c 128,-1,34
 311 325 311 325 311 348 c 0,35,36
 311 364 311 364 300 377 c 128,-1,37
 289 390 289 390 273 390 c 0,26,27
EndSplineSet
EndChar

StartChar: f
Encoding: 102 102 73
Width: 387
GlyphClass: 2
Flags: W
LayerCount: 2
Fore
SplineSet
410 663 m 0,0,1
 410 630 410 630 375 593 c 1,2,3
 350 619 350 619 306 619 c 0,4,5
 261 619 261 619 245.5 593 c 128,-1,6
 230 567 230 567 230 511 c 2,7,-1
 230 473 l 1,8,9
 319 475 319 475 362 481 c 1,10,11
 369 467 369 467 369 440 c 0,12,13
 369 407 369 407 350.5 394.5 c 128,-1,14
 332 382 332 382 295 381 c 0,15,16
 248 380 248 380 230 380 c 1,17,-1
 230 187 l 2,18,19
 230 64 230 64 248 5 c 1,20,21
 214 -3 214 -3 175 -3 c 0,22,23
 122 -3 122 -3 102 9 c 128,-1,24
 82 21 82 21 82 49 c 0,25,26
 82 60 82 60 83 174 c 128,-1,27
 84 288 84 288 84 379 c 1,28,29
 65 379 65 379 11 373 c 1,30,31
 3 394 3 394 3 418 c 0,32,33
 3 474 3 474 84 474 c 1,34,35
 84 519 84 519 88.5 551.5 c 128,-1,36
 93 584 93 584 106 616.5 c 128,-1,37
 119 649 119 649 142 669.5 c 128,-1,38
 165 690 165 690 203.5 702.5 c 128,-1,39
 242 715 242 715 296 715 c 0,40,41
 410 715 410 715 410 663 c 0,0,1
EndSplineSet
EndChar

StartChar: g
Encoding: 103 103 74
Width: 596
GlyphClass: 2
Flags: W
LayerCount: 2
Fore
SplineSet
262 99 m 0,0,1
 245 99 245 99 219 101 c 1,2,3
 209 74 209 74 209 62 c 0,4,5
 209 42 209 42 275 42 c 2,6,-1
 391 42 l 2,7,8
 453 42 453 42 496 11.5 c 128,-1,9
 539 -19 539 -19 539 -84 c 0,10,11
 539 -159 539 -159 453 -205.5 c 128,-1,12
 367 -252 367 -252 246 -252 c 0,13,14
 135 -252 135 -252 79 -218 c 128,-1,15
 23 -184 23 -184 23 -134 c 0,16,17
 23 -94 23 -94 83 -36 c 1,18,19
 60 -20 60 -20 60 9 c 0,20,21
 60 25 60 25 82.5 60 c 128,-1,22
 105 95 105 95 135 125 c 1,23,24
 86 149 86 149 59 193.5 c 128,-1,25
 32 238 32 238 32 296 c 0,26,27
 32 377 32 377 97.5 431 c 128,-1,28
 163 485 163 485 262 485 c 0,29,30
 353 485 353 485 417 440 c 1,31,32
 466 499 466 499 522 499 c 0,33,34
 549 499 549 499 566 483 c 128,-1,35
 583 467 583 467 583 438 c 0,36,37
 583 417 583 417 573 387 c 1,38,39
 558 390 558 390 544 390 c 0,40,41
 510 390 510 390 475 374 c 1,42,43
 492 338 492 338 492 296 c 0,44,45
 492 205 492 205 424.5 152 c 128,-1,46
 357 99 357 99 262 99 c 0,0,1
343 287 m 0,47,48
 343 331 343 331 321 360 c 128,-1,49
 299 389 299 389 261 389 c 0,50,51
 182 389 182 389 182 305 c 0,52,53
 182 258 182 258 203 226.5 c 128,-1,54
 224 195 224 195 261 195 c 0,55,56
 305 195 305 195 324 217.5 c 128,-1,57
 343 240 343 240 343 287 c 0,47,48
316 -62 m 2,58,-1
 182 -62 l 1,59,60
 173 -86 173 -86 173 -107 c 0,61,62
 173 -156 173 -156 262 -156 c 0,63,64
 327 -156 327 -156 360.5 -138.5 c 128,-1,65
 394 -121 394 -121 394 -96 c 0,66,67
 394 -62 394 -62 316 -62 c 2,58,-1
EndSplineSet
EndChar

StartChar: h
Encoding: 104 104 75
Width: 545
GlyphClass: 2
Flags: W
LayerCount: 2
Fore
SplineSet
120 743 m 0,0,1
 158 743 158 743 179 730 c 128,-1,2
 200 717 200 717 200 679 c 0,3,4
 200 673 200 673 196.5 591 c 128,-1,5
 193 509 193 509 193 468 c 2,6,-1
 193 424 l 1,7,8
 256 484 256 484 336 484 c 0,9,10
 404 484 404 484 448 445 c 128,-1,11
 492 406 492 406 492 334 c 0,12,13
 492 332 492 332 490.5 262 c 128,-1,14
 489 192 489 192 489 156 c 0,15,16
 489 70 489 70 506 10 c 1,17,18
 463 -3 463 -3 419 -3 c 0,19,20
 339 -3 339 -3 339 58 c 0,21,22
 339 94 339 94 342 190.5 c 128,-1,23
 345 287 345 287 345 307 c 0,24,25
 345 348 345 348 328.5 368.5 c 128,-1,26
 312 389 312 389 286 389 c 0,27,28
 244 389 244 389 193 340 c 1,29,30
 195 212 195 212 195 155 c 0,31,32
 195 67 195 67 200 1 c 1,33,34
 167 -2 167 -2 141 -2 c 0,35,36
 41 -2 41 -2 41 46 c 0,37,38
 41 50 41 50 43.5 115.5 c 128,-1,39
 46 181 46 181 46 252 c 2,40,-1
 46 496 l 2,41,42
 46 639 46 639 39 730 c 1,43,44
 77 743 77 743 120 743 c 0,0,1
EndSplineSet
EndChar

StartChar: i
Encoding: 105 105 76
Width: 257
GlyphClass: 2
Flags: W
LayerCount: 2
Fore
SplineSet
128 520 m 0,0,1
 90 520 90 520 63.5 546.5 c 128,-1,2
 37 573 37 573 37 614 c 0,3,4
 37 653 37 653 65 680 c 128,-1,5
 93 707 93 707 130 707 c 128,-1,6
 167 707 167 707 193.5 680 c 128,-1,7
 220 653 220 653 220 614 c 0,8,9
 220 574 220 574 192 547 c 128,-1,10
 164 520 164 520 128 520 c 0,0,1
130 478 m 0,11,12
 168 478 168 478 189 465 c 128,-1,13
 210 452 210 452 210 414 c 0,14,15
 210 408 210 408 206.5 326 c 128,-1,16
 203 244 203 244 203 203 c 0,17,18
 203 61 203 61 220 10 c 1,19,20
 178 -3 178 -3 137 -3 c 0,21,22
 90 -3 90 -3 71.5 13.5 c 128,-1,23
 53 30 53 30 53 62 c 0,24,25
 53 78 53 78 54.5 137 c 128,-1,26
 56 196 56 196 56 231 c 0,27,28
 56 374 56 374 49 465 c 1,29,30
 87 478 87 478 130 478 c 0,11,12
EndSplineSet
EndChar

StartChar: j
Encoding: 106 106 77
Width: 284
GlyphClass: 2
Flags: W
LayerCount: 2
Fore
SplineSet
154 478 m 0,0,1
 195 478 195 478 214.5 463.5 c 128,-1,2
 234 449 234 449 234 416 c 0,3,4
 234 411 234 411 232 373 c 128,-1,5
 230 335 230 335 228.5 282.5 c 128,-1,6
 227 230 227 230 227 190 c 0,7,8
 227 160 227 160 229 73 c 128,-1,9
 231 -14 231 -14 231 -72 c 0,10,11
 231 -160 231 -160 175.5 -206.5 c 128,-1,12
 120 -253 120 -253 16 -253 c 0,13,14
 -38 -253 -38 -253 -84 -236.5 c 128,-1,15
 -130 -220 -130 -220 -130 -188 c 0,16,17
 -130 -170 -130 -170 -121.5 -155.5 c 128,-1,18
 -113 -141 -113 -141 -88 -119 c 1,19,20
 -76 -135 -76 -135 -47.5 -147.5 c 128,-1,21
 -19 -160 -19 -160 9 -160 c 0,22,23
 42 -160 42 -160 62.5 -141 c 128,-1,24
 83 -122 83 -122 83 -79 c 0,25,26
 83 -73 83 -73 82.5 -26 c 128,-1,27
 82 21 82 21 81 93 c 128,-1,28
 80 165 80 165 80 231 c 0,29,30
 80 374 80 374 73 465 c 1,31,32
 109 478 109 478 154 478 c 0,0,1
153 520 m 0,33,34
 115 520 115 520 88.5 546.5 c 128,-1,35
 62 573 62 573 62 614 c 0,36,37
 62 653 62 653 90 680 c 128,-1,38
 118 707 118 707 155 707 c 128,-1,39
 192 707 192 707 218.5 680 c 128,-1,40
 245 653 245 653 245 614 c 0,41,42
 245 574 245 574 217 547 c 128,-1,43
 189 520 189 520 153 520 c 0,33,34
EndSplineSet
EndChar

StartChar: k
Encoding: 107 107 78
Width: 559
GlyphClass: 2
Flags: W
LayerCount: 2
Fore
SplineSet
193 403 m 1,0,1
 277 483 277 483 366 483 c 0,2,3
 418 483 418 483 455 447.5 c 128,-1,4
 492 412 492 412 492 358 c 0,5,6
 492 305 492 305 458 260 c 128,-1,7
 424 215 424 215 360 205 c 1,8,9
 399 130 399 130 419 107 c 0,10,11
 440 82 440 82 473 82 c 0,12,13
 496 82 496 82 528 91 c 1,14,15
 541 65 541 65 541 45 c 0,16,17
 541 19 541 19 508 4.5 c 128,-1,18
 475 -10 475 -10 440 -10 c 0,19,20
 401 -10 401 -10 379 -3 c 128,-1,21
 357 4 357 4 335 26 c 0,22,23
 293 70 293 70 238 198 c 1,24,25
 216 203 216 203 216 225 c 0,26,27
 216 238 216 238 227 267 c 1,28,29
 247 263 247 263 266 263 c 0,30,31
 306 263 306 263 327.5 285.5 c 128,-1,32
 349 308 349 308 349 337 c 0,33,34
 349 361 349 361 336.5 374.5 c 128,-1,35
 324 388 324 388 303 388 c 0,36,37
 258 388 258 388 193 323 c 1,38,-1
 193 245 l 2,39,40
 193 102 193 102 200 11 c 1,41,42
 162 -2 162 -2 119 -2 c 0,43,44
 81 -2 81 -2 60 11 c 128,-1,45
 39 24 39 24 39 62 c 0,46,47
 39 68 39 68 42.5 150 c 128,-1,48
 46 232 46 232 46 273 c 2,49,-1
 46 496 l 2,50,51
 46 639 46 639 39 730 c 1,52,53
 77 743 77 743 120 743 c 0,54,55
 158 743 158 743 179 730 c 128,-1,56
 200 717 200 717 200 679 c 0,57,58
 200 672 200 672 198 631 c 128,-1,59
 196 590 196 590 194.5 526.5 c 128,-1,60
 193 463 193 463 193 403 c 1,0,1
EndSplineSet
EndChar

StartChar: l
Encoding: 108 108 79
Width: 249
GlyphClass: 2
Flags: W
LayerCount: 2
Fore
SplineSet
120 743 m 0,0,1
 158 743 158 743 179 730 c 128,-1,2
 200 717 200 717 200 679 c 0,3,4
 200 673 200 673 196.5 591 c 128,-1,5
 193 509 193 509 193 468 c 2,6,-1
 193 194 l 2,7,8
 193 62 193 62 210 10 c 1,9,10
 168 -3 168 -3 127 -3 c 0,11,12
 80 -3 80 -3 61.5 13.5 c 128,-1,13
 43 30 43 30 43 62 c 0,14,15
 43 78 43 78 44.5 132 c 128,-1,16
 46 186 46 186 46 220 c 2,17,-1
 46 496 l 2,18,19
 46 639 46 639 39 730 c 1,20,21
 77 743 77 743 120 743 c 0,0,1
EndSplineSet
EndChar

StartChar: m
Encoding: 109 109 80
Width: 816
GlyphClass: 2
Flags: W
LayerCount: 2
Fore
SplineSet
39 465 m 1,0,1
 80 478 80 478 117 478 c 0,2,3
 190 478 190 478 200 419 c 1,4,5
 261 484 261 484 338 484 c 0,6,7
 434 484 434 484 469 407 c 1,8,9
 531 484 531 484 617 484 c 0,10,11
 681 484 681 484 722 445 c 128,-1,12
 763 406 763 406 763 334 c 0,13,14
 763 332 763 332 761.5 262 c 128,-1,15
 760 192 760 192 760 156 c 0,16,17
 760 70 760 70 777 10 c 1,18,19
 734 -3 734 -3 690 -3 c 0,20,21
 610 -3 610 -3 610 58 c 0,22,23
 610 94 610 94 613 190.5 c 128,-1,24
 616 287 616 287 616 307 c 0,25,26
 616 348 616 348 602 368.5 c 128,-1,27
 588 389 588 389 565 389 c 0,28,29
 528 389 528 389 484 340 c 1,30,31
 486 212 486 212 486 155 c 0,32,33
 486 67 486 67 491 1 c 1,34,35
 458 -2 458 -2 432 -2 c 0,36,37
 332 -2 332 -2 332 46 c 0,38,39
 332 51 332 51 334.5 119 c 128,-1,40
 337 187 337 187 337 253 c 2,41,-1
 337 309 l 2,42,43
 337 350 337 350 322.5 369.5 c 128,-1,44
 308 389 308 389 286 389 c 0,45,46
 249 389 249 389 205 340 c 1,47,48
 207 212 207 212 207 155 c 0,49,50
 207 67 207 67 212 1 c 1,51,52
 179 -2 179 -2 153 -2 c 0,53,54
 53 -2 53 -2 53 46 c 0,55,56
 53 50 53 50 55.5 116 c 128,-1,57
 58 182 58 182 58 253 c 0,58,59
 58 416 58 416 39 465 c 1,0,1
EndSplineSet
EndChar

StartChar: n
Encoding: 110 110 81
Width: 557
GlyphClass: 2
Flags: W
LayerCount: 2
Fore
SplineSet
39 465 m 1,0,1
 80 478 80 478 117 478 c 0,2,3
 190 478 190 478 200 419 c 1,4,5
 265 484 265 484 348 484 c 0,6,7
 416 484 416 484 460 445 c 128,-1,8
 504 406 504 406 504 334 c 0,9,10
 504 332 504 332 502.5 262 c 128,-1,11
 501 192 501 192 501 156 c 0,12,13
 501 70 501 70 518 10 c 1,14,15
 475 -3 475 -3 431 -3 c 0,16,17
 351 -3 351 -3 351 58 c 0,18,19
 351 94 351 94 354 190.5 c 128,-1,20
 357 287 357 287 357 307 c 0,21,22
 357 348 357 348 340.5 368.5 c 128,-1,23
 324 389 324 389 298 389 c 0,24,25
 256 389 256 389 205 340 c 1,26,27
 207 212 207 212 207 155 c 0,28,29
 207 67 207 67 212 1 c 1,30,31
 179 -2 179 -2 153 -2 c 0,32,33
 53 -2 53 -2 53 46 c 0,34,35
 53 50 53 50 55.5 116 c 128,-1,36
 58 182 58 182 58 253 c 0,37,38
 58 416 58 416 39 465 c 1,0,1
EndSplineSet
EndChar

StartChar: o
Encoding: 111 111 82
Width: 543
GlyphClass: 2
Flags: W
LayerCount: 2
Fore
SplineSet
271 -10 m 128,-1,1
 162 -10 162 -10 95.5 56 c 128,-1,2
 29 122 29 122 29 232 c 0,3,4
 29 347 29 347 95.5 416 c 128,-1,5
 162 485 162 485 271 485 c 128,-1,6
 380 485 380 485 447 416 c 128,-1,7
 514 347 514 347 514 232 c 0,8,9
 514 122 514 122 447 56 c 128,-1,0
 380 -10 380 -10 271 -10 c 128,-1,1
365 212 m 0,10,11
 365 288 365 288 340 338.5 c 128,-1,12
 315 389 315 389 271 389 c 0,13,14
 228 389 228 389 203.5 348 c 128,-1,15
 179 307 179 307 179 240 c 0,16,17
 179 174 179 174 203.5 130.5 c 128,-1,18
 228 87 228 87 271 87 c 0,19,20
 316 87 316 87 340.5 121.5 c 128,-1,21
 365 156 365 156 365 212 c 0,10,11
EndSplineSet
EndChar

StartChar: p
Encoding: 112 112 83
Width: 546
GlyphClass: 2
Flags: W
LayerCount: 2
Fore
SplineSet
39 460 m 1,0,1
 75 478 75 478 118 478 c 0,2,3
 140 478 140 478 155 474.5 c 128,-1,4
 170 471 170 471 184 454.5 c 128,-1,5
 198 438 198 438 200 408 c 1,6,7
 222 446 222 446 257.5 465.5 c 128,-1,8
 293 485 293 485 334 485 c 0,9,10
 420 485 420 485 468.5 421.5 c 128,-1,11
 517 358 517 358 517 259 c 0,12,13
 517 193 517 193 497.5 134 c 128,-1,14
 478 75 478 75 431 32.5 c 128,-1,15
 384 -10 384 -10 317 -10 c 0,16,17
 251 -10 251 -10 204 34 c 1,18,19
 204 28 204 28 204.5 -20 c 128,-1,20
 205 -68 205 -68 205.5 -86.5 c 128,-1,21
 206 -105 206 -105 208 -141.5 c 128,-1,22
 210 -178 210 -178 214 -202.5 c 128,-1,23
 218 -227 218 -227 224 -245 c 1,24,25
 190 -253 190 -253 148 -253 c 0,26,27
 94 -253 94 -253 75 -240 c 128,-1,28
 56 -227 56 -227 56 -196 c 0,29,30
 56 -98 56 -98 57.5 47 c 128,-1,31
 59 192 59 192 59 249 c 0,32,33
 59 408 59 408 39 460 c 1,0,1
206 108 m 1,34,35
 239 85 239 85 286 85 c 0,36,37
 326 85 326 85 345.5 132.5 c 128,-1,38
 365 180 365 180 365 244 c 0,39,40
 365 318 365 318 346 353.5 c 128,-1,41
 327 389 327 389 297 389 c 0,42,43
 246 389 246 389 205 339 c 1,44,45
 206 253 206 253 206 108 c 1,34,35
EndSplineSet
EndChar

StartChar: q
Encoding: 113 113 84
Width: 547
GlyphClass: 2
Flags: W
LayerCount: 2
Fore
SplineSet
342 49 m 1,0,1
 292 -10 292 -10 221 -10 c 0,2,3
 139 -10 139 -10 81 65 c 0,4,5
 29 133 29 133 29 231 c 0,6,7
 29 348 29 348 98.5 416.5 c 128,-1,8
 168 485 168 485 271 485 c 0,9,10
 407 485 407 485 506 407 c 1,11,12
 490 236 490 236 490 -8 c 0,13,14
 490 -189 490 -189 508 -240 c 1,15,16
 467 -253 467 -253 423 -253 c 0,17,18
 338 -253 338 -253 338 -190 c 0,19,20
 338 -140 338 -140 340 -58 c 128,-1,21
 342 24 342 24 342 49 c 1,0,1
344 130 m 1,22,23
 346 251 346 251 356 362 c 1,24,25
 310 388 310 388 275 388 c 0,26,27
 231 388 231 388 205.5 352.5 c 128,-1,28
 180 317 180 317 180 251 c 0,29,30
 180 177 180 177 205.5 132 c 128,-1,31
 231 87 231 87 268 87 c 0,32,33
 307 87 307 87 344 130 c 1,22,23
EndSplineSet
EndChar

StartChar: r
Encoding: 114 114 85
Width: 405
GlyphClass: 2
Flags: W
LayerCount: 2
Fore
SplineSet
120 478 m 0,0,1
 158 478 158 478 179 465 c 128,-1,2
 200 452 200 452 200 414 c 2,3,-1
 200 401 l 1,4,5
 227 433 227 433 264.5 459 c 128,-1,6
 302 485 302 485 339 485 c 0,7,8
 368 485 368 485 384 471.5 c 128,-1,9
 400 458 400 458 400 436 c 0,10,11
 400 395 400 395 364 356 c 1,12,13
 329 378 329 378 299 378 c 0,14,15
 255 378 255 378 196 317 c 1,16,17
 193 258 193 258 193 203 c 0,18,19
 193 61 193 61 210 10 c 1,20,21
 168 -3 168 -3 127 -3 c 0,22,23
 80 -3 80 -3 61.5 13.5 c 128,-1,24
 43 30 43 30 43 62 c 0,25,26
 43 78 43 78 44.5 137 c 128,-1,27
 46 196 46 196 46 231 c 0,28,29
 46 374 46 374 39 465 c 1,30,31
 77 478 77 478 120 478 c 0,0,1
EndSplineSet
EndChar

StartChar: s
Encoding: 115 115 86
Width: 436
GlyphClass: 2
Flags: W
LayerCount: 2
Fore
SplineSet
308 324 m 1,0,1
 300 355 300 355 280 372 c 128,-1,2
 260 389 260 389 236 389 c 0,3,4
 213 389 213 389 197 377 c 128,-1,5
 181 365 181 365 181 342 c 0,6,7
 181 318 181 318 204.5 304 c 128,-1,8
 228 290 228 290 261.5 281.5 c 128,-1,9
 295 273 295 273 328.5 260.5 c 128,-1,10
 362 248 362 248 385.5 219 c 128,-1,11
 409 190 409 190 409 145 c 0,12,13
 409 69 409 69 348.5 29.5 c 128,-1,14
 288 -10 288 -10 206 -10 c 0,15,16
 180 -10 180 -10 155 -7.5 c 128,-1,17
 130 -5 130 -5 97.5 2.5 c 128,-1,18
 65 10 65 10 45.5 28.5 c 128,-1,19
 26 47 26 47 26 74 c 0,20,21
 26 128 26 128 107 158 c 1,22,23
 117 122 117 122 145 104 c 128,-1,24
 173 86 173 86 204 86 c 0,25,26
 271 86 271 86 271 134 c 0,27,28
 271 157 271 157 235.5 171.5 c 128,-1,29
 200 186 200 186 158 195.5 c 128,-1,30
 116 205 116 205 80.5 238.5 c 128,-1,31
 45 272 45 272 45 328 c 0,32,33
 45 399 45 399 105.5 442 c 128,-1,34
 166 485 166 485 242 485 c 0,35,36
 277 485 277 485 312.5 477.5 c 128,-1,37
 348 470 348 470 377 448.5 c 128,-1,38
 406 427 406 427 406 396 c 0,39,40
 406 369 406 369 381.5 349.5 c 128,-1,41
 357 330 357 330 308 324 c 1,0,1
EndSplineSet
EndChar

StartChar: t
Encoding: 116 116 87
Width: 428
GlyphClass: 2
Flags: W
LayerCount: 2
Fore
SplineSet
97 181 m 2,0,-1
 97 381 l 1,1,2
 45 380 45 380 8 374 c 1,3,4
 0 396 0 396 0 416 c 0,5,6
 0 475 0 475 81 475 c 2,7,-1
 95 475 l 1,8,9
 93 536 93 536 89 577 c 1,10,11
 121 590 121 590 162 590 c 0,12,13
 189 590 189 590 204.5 587.5 c 128,-1,14
 220 585 220 585 234.5 571 c 128,-1,15
 249 557 249 557 249 530 c 0,16,17
 249 514 249 514 246 474 c 1,18,19
 350 474 350 474 411 482 c 1,20,21
 418 468 418 468 418 439 c 0,22,23
 418 386 418 386 359 383 c 0,24,25
 321 381 321 381 244 381 c 1,26,27
 241 282 241 282 241 183 c 0,28,29
 241 159 241 159 242 146.5 c 128,-1,30
 243 134 243 134 247.5 116 c 128,-1,31
 252 98 252 98 263.5 90 c 128,-1,32
 275 82 275 82 293 82 c 0,33,34
 343 82 343 82 373 112 c 1,35,36
 414 83 414 83 414 53 c 0,37,38
 414 25 414 25 379.5 7.5 c 128,-1,39
 345 -10 345 -10 297 -10 c 0,40,41
 188 -10 188 -10 142.5 38 c 128,-1,42
 97 86 97 86 97 181 c 2,0,-1
EndSplineSet
EndChar

StartChar: u
Encoding: 117 117 88
Width: 553
GlyphClass: 2
Flags: W
LayerCount: 2
Fore
SplineSet
514 10 m 1,0,1
 465 -3 465 -3 430 -3 c 0,2,3
 398 -3 398 -3 375.5 11.5 c 128,-1,4
 353 26 353 26 351 54 c 1,5,6
 278 -10 278 -10 193 -10 c 0,7,8
 52 -10 52 -10 52 131 c 0,9,10
 52 134 52 134 53.5 204 c 128,-1,11
 55 274 55 274 55 309 c 0,12,13
 55 413 55 413 39 465 c 1,14,15
 78 478 78 478 120 478 c 0,16,17
 206 478 206 478 206 417 c 0,18,19
 206 384 206 384 203 294 c 128,-1,20
 200 204 200 204 200 186 c 0,21,22
 200 138 200 138 215.5 112 c 128,-1,23
 231 86 231 86 254 86 c 0,24,25
 305 86 305 86 349 133 c 1,26,27
 348 172 348 172 348 254 c 0,28,29
 348 370 348 370 341 465 c 1,30,31
 381 478 381 478 418 478 c 0,32,33
 458 478 458 478 480 466 c 128,-1,34
 502 454 502 454 502 416 c 0,35,36
 502 406 502 406 499.5 355 c 128,-1,37
 497 304 497 304 496 275 c 1,38,-1
 496 203 l 2,39,40
 496 76 496 76 514 10 c 1,0,1
EndSplineSet
EndChar

StartChar: v
Encoding: 118 118 89
Width: 495
GlyphClass: 2
Flags: W
LayerCount: 2
Fore
SplineSet
393 485 m 0,0,1
 434 485 434 485 453.5 472.5 c 128,-1,2
 473 460 473 460 473 430 c 0,3,4
 473 372 473 372 427.5 244 c 128,-1,5
 382 116 382 116 335 53 c 1,6,7
 295 -3 295 -3 217 -3 c 0,8,9
 186 -3 186 -3 151 6 c 1,10,11
 129 116 129 116 76.5 258 c 128,-1,12
 24 400 24 400 -10 438 c 1,13,14
 36 480 36 480 86 480 c 0,15,16
 140 480 140 480 166 420 c 1,17,18
 216 297 216 297 256 145 c 1,19,20
 327 332 327 332 327 439 c 0,21,22
 327 455 327 455 324 470 c 1,23,24
 356 485 356 485 393 485 c 0,0,1
EndSplineSet
EndChar

StartChar: w
Encoding: 119 119 90
Width: 763
GlyphClass: 2
Flags: W
LayerCount: 2
Fore
SplineSet
367 485 m 0,0,1
 408 485 408 485 428 472.5 c 128,-1,2
 448 460 448 460 448 430 c 0,3,4
 448 412 448 412 444 392 c 1,5,6
 510 261 510 261 534 145 c 1,7,8
 594 329 594 329 594 439 c 0,9,10
 594 455 594 455 591 470 c 1,11,12
 624 485 624 485 660 485 c 0,13,14
 701 485 701 485 721 472.5 c 128,-1,15
 741 460 741 460 741 430 c 0,16,17
 741 372 741 372 697.5 244.5 c 128,-1,18
 654 117 654 117 610 53 c 1,19,20
 573 -3 573 -3 498 -3 c 0,21,22
 467 -3 467 -3 436 6 c 1,23,24
 417 100 417 100 390 206 c 1,25,26
 355 109 355 109 317 53 c 0,27,28
 280 -3 280 -3 205 -3 c 0,29,30
 174 -3 174 -3 143 6 c 1,31,32
 121 117 121 117 72 258.5 c 128,-1,33
 23 400 23 400 -10 438 c 1,34,35
 36 480 36 480 86 480 c 0,36,37
 140 480 140 480 166 420 c 1,38,39
 211 284 211 284 241 145 c 1,40,41
 301 329 301 329 301 439 c 0,42,43
 301 455 301 455 298 470 c 1,44,45
 330 485 330 485 367 485 c 0,0,1
EndSplineSet
EndChar

StartChar: x
Encoding: 120 120 91
Width: 478
GlyphClass: 2
Flags: W
LayerCount: 2
Fore
SplineSet
308 485 m 1,0,1
 434 478 434 478 434 425 c 0,2,3
 434 375 434 375 306 233 c 1,4,5
 374 116 374 116 469 50 c 1,6,7
 450 27 450 27 440 17 c 128,-1,8
 430 7 430 7 412 -1.5 c 128,-1,9
 394 -10 394 -10 372 -10 c 0,10,11
 325 -10 325 -10 298 31 c 0,12,13
 264 84 264 84 224 169 c 1,14,15
 222 166 222 166 208 145 c 128,-1,16
 194 124 194 124 190 117 c 128,-1,17
 186 110 186 110 175 91 c 128,-1,18
 164 72 164 72 159 59 c 128,-1,19
 154 46 154 46 148.5 27.5 c 128,-1,20
 143 9 143 9 140 -10 c 1,21,22
 24 -8 24 -8 24 46 c 0,23,24
 24 68 24 68 43.5 100 c 128,-1,25
 63 132 63 132 82.5 154.5 c 128,-1,26
 102 177 102 177 135.5 211.5 c 128,-1,27
 169 246 169 246 174 251 c 1,28,29
 136 313 136 313 92.5 358.5 c 128,-1,30
 49 404 49 404 16 425 c 1,31,32
 56 485 56 485 116 485 c 0,33,34
 161 485 161 485 185 448 c 0,35,36
 219 395 219 395 253 315 c 1,37,38
 306 413 306 413 308 485 c 1,0,1
EndSplineSet
EndChar

StartChar: y
Encoding: 121 121 92
Width: 507
GlyphClass: 2
Flags: W
LayerCount: 2
Fore
SplineSet
412 485 m 0,0,1
 487 485 487 485 487 435 c 0,2,3
 487 388 487 388 451.5 275.5 c 128,-1,4
 416 163 416 163 367 59 c 0,5,6
 297 -88 297 -88 216 -205 c 0,7,8
 186 -250 186 -250 146 -250 c 0,9,10
 95 -250 95 -250 48 -189 c 1,11,12
 132 -126 132 -126 204 -12 c 1,13,14
 69 362 69 362 0 429 c 1,15,16
 65 480 65 480 112 480 c 0,17,18
 135 480 135 480 148.5 470 c 128,-1,19
 162 460 162 460 172 438 c 0,20,21
 188 403 188 403 220 294 c 128,-1,22
 252 185 252 185 270 103 c 1,23,24
 297 185 297 185 319.5 283 c 128,-1,25
 342 381 342 381 342 424 c 0,26,27
 342 448 342 448 339 470 c 1,28,29
 373 485 373 485 412 485 c 0,0,1
EndSplineSet
EndChar

StartChar: z
Encoding: 122 122 93
Width: 494
GlyphClass: 2
Flags: W
LayerCount: 2
Fore
SplineSet
380 1 m 1,0,1
 324 -6 324 -6 234 -6 c 0,2,3
 113 -6 113 -6 33 6 c 1,4,5
 16 27 16 27 16 57 c 128,-1,6
 16 87 16 87 38 109 c 2,7,-1
 299 381 l 1,8,9
 269 383 269 383 254 383 c 0,10,11
 151 383 151 383 45 351 c 1,12,13
 36 383 36 383 36 413 c 1,14,15
 38 448 38 448 67 459 c 0,16,17
 96 471 96 471 179 471 c 0,18,19
 334 471 334 471 439 451 c 1,20,21
 455 435 455 435 455 405 c 0,22,23
 455 376 455 376 438 359 c 2,24,-1
 173 79 l 1,25,-1
 180 79 l 2,26,27
 281 79 281 79 429 119 c 1,28,29
 441 89 441 89 441 60 c 0,30,31
 441 39 441 39 431.5 26 c 128,-1,32
 422 13 422 13 411 9 c 128,-1,33
 400 5 400 5 380 1 c 1,0,1
EndSplineSet
EndChar

StartChar: braceleft
Encoding: 123 123 94
Width: 408
GlyphClass: 2
Flags: W
LayerCount: 2
Fore
SplineSet
172 286 m 1,0,1
 199 277 199 277 224.5 245.5 c 128,-1,2
 250 214 250 214 250 181 c 2,3,-1
 250 2 l 2,4,5
 250 -23 250 -23 253 -33.5 c 128,-1,6
 256 -44 256 -44 272.5 -51 c 128,-1,7
 289 -58 289 -58 326 -58 c 0,8,9
 351 -58 351 -58 362.5 -68.5 c 128,-1,10
 374 -79 374 -79 374 -108 c 0,11,12
 374 -129 374 -129 370 -141 c 1,13,14
 357 -142 357 -142 334 -142 c 0,15,16
 219 -142 219 -142 169 -114.5 c 128,-1,17
 119 -87 119 -87 119 -31 c 2,18,-1
 119 178 l 2,19,20
 119 208 119 208 100.5 234.5 c 128,-1,21
 82 261 82 261 45 261 c 1,22,-1
 45 311 l 1,23,24
 82 311 82 311 101.5 338 c 128,-1,25
 121 365 121 365 121 395 c 2,26,-1
 121 604 l 2,27,28
 121 660 121 660 170.5 687.5 c 128,-1,29
 220 715 220 715 335 715 c 0,30,31
 358 715 358 715 371 714 c 1,32,33
 375 702 375 702 375 681 c 0,34,35
 375 652 375 652 363.5 641.5 c 128,-1,36
 352 631 352 631 327 631 c 0,37,38
 275 631 275 631 262.5 619 c 128,-1,39
 250 607 250 607 250 571 c 2,40,-1
 250 393 l 2,41,42
 250 358 250 358 224.5 326.5 c 128,-1,43
 199 295 199 295 172 286 c 1,0,1
EndSplineSet
EndChar

StartChar: bar
Encoding: 124 124 95
Width: 575
GlyphClass: 2
Flags: W
LayerCount: 2
Fore
SplineSet
244 302 m 2,0,-1
 244 319 l 2,1,2
 244 654 244 654 232 732 c 1,3,4
 255 737 255 737 275 737 c 0,5,6
 341 737 341 737 341 682 c 0,7,8
 341 677 341 677 338.5 606 c 128,-1,9
 336 535 336 535 333.5 418.5 c 128,-1,10
 331 302 331 302 331 186 c 2,11,-1
 331 169 l 2,12,13
 331 -166 331 -166 343 -244 c 1,14,15
 320 -249 320 -249 300 -249 c 0,16,17
 234 -249 234 -249 234 -194 c 0,18,19
 234 -189 234 -189 236.5 -118 c 128,-1,20
 239 -47 239 -47 241.5 69.5 c 128,-1,21
 244 186 244 186 244 302 c 2,0,-1
EndSplineSet
EndChar

StartChar: braceright
Encoding: 125 125 96
Width: 394
GlyphClass: 2
Flags: W
LayerCount: 2
Fore
SplineSet
222 286 m 1,0,1
 195 295 195 295 169.5 326.5 c 128,-1,2
 144 358 144 358 144 393 c 2,3,-1
 144 571 l 2,4,5
 144 596 144 596 140.5 606.5 c 128,-1,6
 137 617 137 617 120.5 624 c 128,-1,7
 104 631 104 631 67 631 c 0,8,9
 42 631 42 631 30.5 641.5 c 128,-1,10
 19 652 19 652 19 681 c 0,11,12
 19 702 19 702 23 714 c 1,13,14
 36 715 36 715 59 715 c 0,15,16
 174 715 174 715 223.5 687.5 c 128,-1,17
 273 660 273 660 273 604 c 2,18,-1
 273 395 l 2,19,20
 273 365 273 365 292.5 338 c 128,-1,21
 312 311 312 311 349 311 c 1,22,-1
 349 261 l 1,23,24
 312 261 312 261 293.5 234.5 c 128,-1,25
 275 208 275 208 275 178 c 2,26,-1
 275 -31 l 2,27,28
 275 -87 275 -87 225 -114.5 c 128,-1,29
 175 -142 175 -142 60 -142 c 0,30,31
 37 -142 37 -142 24 -141 c 1,32,33
 20 -129 20 -129 20 -108 c 0,34,35
 20 -79 20 -79 31.5 -68.5 c 128,-1,36
 43 -58 43 -58 68 -58 c 0,37,38
 105 -58 105 -58 121.5 -51 c 128,-1,39
 138 -44 138 -44 141 -33.5 c 128,-1,40
 144 -23 144 -23 144 2 c 2,41,-1
 144 181 l 2,42,43
 144 214 144 214 169.5 245.5 c 128,-1,44
 195 277 195 277 222 286 c 1,0,1
EndSplineSet
EndChar

StartChar: asciitilde
Encoding: 126 126 97
Width: 598
GlyphClass: 2
Flags: W
LayerCount: 2
Fore
SplineSet
26 267 m 0,0,1
 26 349 26 349 154 349 c 0,2,3
 209 349 209 349 296.5 329 c 128,-1,4
 384 309 384 309 426 309 c 0,5,6
 499 309 499 309 538 344 c 1,7,8
 572 308 572 308 572 275 c 0,9,10
 572 233 572 233 526.5 213 c 128,-1,11
 481 193 481 193 419 193 c 0,12,13
 384 193 384 193 301 213 c 128,-1,14
 218 233 218 233 173 233 c 0,15,16
 99 233 99 233 60 198 c 1,17,18
 26 234 26 234 26 267 c 0,0,1
EndSplineSet
EndChar

StartChar: exclamdown
Encoding: 161 161 98
Width: 315
GlyphClass: 2
Flags: W
LayerCount: 2
Fore
SplineSet
149 485 m 0,0,1
 187 485 187 485 213 460 c 128,-1,2
 239 435 239 435 239 396 c 0,3,4
 239 359 239 359 211.5 333 c 128,-1,5
 184 307 184 307 147 307 c 0,6,7
 111 307 111 307 84.5 333 c 128,-1,8
 58 359 58 359 58 396 c 0,9,10
 58 434 58 434 85.5 459.5 c 128,-1,11
 113 485 113 485 149 485 c 0,0,1
71 -144 m 0,12,13
 71 -113 71 -113 79 -37.5 c 128,-1,14
 87 38 87 38 87 80 c 0,15,16
 87 192 87 192 74 227 c 1,17,18
 112 246 112 246 148 246 c 0,19,20
 183 246 183 246 206.5 230 c 128,-1,21
 230 214 230 214 230 184 c 0,22,23
 230 176 230 176 229.5 147 c 128,-1,24
 229 118 229 118 229 97 c 0,25,26
 229 -134 229 -134 250 -208 c 1,27,28
 204 -219 204 -219 156 -219 c 0,29,30
 71 -219 71 -219 71 -144 c 0,12,13
EndSplineSet
EndChar

StartChar: cent
Encoding: 162 162 99
Width: 574
GlyphClass: 2
Flags: W
LayerCount: 2
Fore
SplineSet
542 151 m 0,0,1
 542 111 542 111 483 88 c 128,-1,2
 424 65 424 65 357 62 c 1,3,4
 359 21 359 21 363 -13 c 1,5,-1
 341 -16 l 1,6,7
 301 -16 301 -16 298 23 c 1,8,-1
 298 65 l 1,9,10
 192 77 192 77 126 146 c 128,-1,11
 60 215 60 215 60 327 c 0,12,13
 60 435 60 435 125 503.5 c 128,-1,14
 190 572 190 572 298 587 c 1,15,16
 296 637 296 637 292 679 c 1,17,18
 309 684 309 684 317 684 c 0,19,20
 355 684 355 684 355 645 c 2,21,-1
 355 591 l 1,22,23
 391 590 391 590 432 581 c 128,-1,24
 473 572 473 572 507.5 550.5 c 128,-1,25
 542 529 542 529 542 500 c 0,26,27
 542 475 542 475 517.5 454.5 c 128,-1,28
 493 434 493 434 451 427 c 1,29,30
 410 491 410 491 355 495 c 1,31,-1
 356 157 l 1,32,33
 411 159 411 159 452 227 c 1,34,35
 494 220 494 220 518 199 c 128,-1,36
 542 178 542 178 542 151 c 0,0,1
212 325 m 0,37,38
 212 270 212 270 233.5 227 c 128,-1,39
 255 184 255 184 298 167 c 1,40,-1
 298 487 l 1,41,42
 258 470 258 470 235 426.5 c 128,-1,43
 212 383 212 383 212 325 c 0,37,38
EndSplineSet
EndChar

StartChar: sterling
Encoding: 163 163 100
Width: 574
GlyphClass: 2
Flags: W
LayerCount: 2
Fore
SplineSet
354 290 m 0,0,1
 354 199 354 199 202 96 c 1,2,3
 224 93 224 93 283 93 c 0,4,5
 392 93 392 93 489 127 c 1,6,7
 516 94 516 94 516 62 c 0,8,9
 516 33 516 33 492 18 c 0,10,11
 459 -3 459 -3 312 -3 c 0,12,13
 138 -3 138 -3 66 8 c 1,14,15
 49 30 49 30 49 88 c 1,16,17
 118 123 118 123 157 173.5 c 128,-1,18
 196 224 196 224 196 267 c 0,19,20
 196 289 196 289 189 317 c 1,21,22
 102 315 102 315 81 313 c 1,23,24
 72 330 72 330 72 354 c 0,25,26
 72 374 72 374 94 383 c 128,-1,27
 116 392 116 392 160 395 c 1,28,29
 125 473 125 473 125 512 c 0,30,31
 125 571 125 571 182.5 622 c 128,-1,32
 240 673 240 673 328 673 c 0,33,34
 379 673 379 673 406 655 c 128,-1,35
 433 637 433 637 433 610 c 0,36,37
 433 591 433 591 418 572.5 c 128,-1,38
 403 554 403 554 377 543 c 1,39,40
 364 562 364 562 340.5 574.5 c 128,-1,41
 317 587 317 587 294 587 c 0,42,43
 247 587 247 587 247 541 c 0,44,45
 247 527 247 527 254 508.5 c 128,-1,46
 261 490 261 490 269 477 c 128,-1,47
 277 464 277 464 293 440 c 128,-1,48
 309 416 309 416 316 404 c 1,49,50
 416 406 416 406 457 413 c 1,51,52
 470 386 470 386 470 362 c 0,53,54
 470 313 470 313 405 313 c 2,55,-1
 352 313 l 1,56,57
 354 299 354 299 354 290 c 0,0,1
EndSplineSet
EndChar

StartChar: yen
Encoding: 165 165 101
Width: 574
GlyphClass: 2
Flags: W
LayerCount: 2
Fore
SplineSet
402 354 m 1,0,-1
 438 354 l 2,1,2
 474 354 474 354 534 360 c 1,3,-1
 537 338 l 1,4,5
 537 298 537 298 498 295 c 1,6,-1
 363 295 l 1,7,-1
 363 234 l 1,8,-1
 438 235 l 2,9,10
 474 235 474 235 534 241 c 1,11,-1
 537 219 l 1,12,13
 537 179 537 179 498 176 c 1,14,-1
 363 176 l 1,15,16
 363 72 363 72 381 14 c 1,17,18
 351 -4 351 -4 294 -4 c 0,19,20
 215 -4 215 -4 215 59 c 0,21,22
 215 84 215 84 217 176 c 1,23,-1
 144 176 l 2,24,25
 106 176 106 176 46 170 c 1,26,27
 41 187 41 187 41 195 c 0,28,29
 41 233 41 233 80 233 c 2,30,-1
 139 233 l 1,31,-1
 217 233 l 1,32,-1
 217 295 l 1,33,-1
 144 295 l 2,34,35
 106 295 106 295 46 289 c 1,36,37
 41 306 41 306 41 314 c 0,38,39
 41 352 41 352 80 352 c 2,40,-1
 139 352 l 1,41,-1
 193 352 l 1,42,43
 160 422 160 422 110 497.5 c 128,-1,44
 60 573 60 573 5 607 c 1,45,46
 33 642 33 642 54.5 656.5 c 128,-1,47
 76 671 76 671 109 671 c 0,48,49
 136 671 136 671 152.5 660 c 128,-1,50
 169 649 169 649 185 625 c 0,51,52
 207 591 207 591 304 403 c 1,53,54
 339 458 339 458 379 548.5 c 128,-1,55
 419 639 419 639 420 671 c 1,56,57
 440 673 440 673 454 673 c 0,58,59
 552 673 552 673 552 612 c 0,60,61
 552 587 552 587 533 553 c 0,62,63
 475 449 475 449 402 354 c 1,0,-1
EndSplineSet
EndChar

StartChar: brokenbar
Encoding: 166 166 102
Width: 574
GlyphClass: 2
Flags: W
LayerCount: 2
Fore
SplineSet
244 11 m 2,0,-1
 244 18 l 2,1,2
 244 157 244 157 232 189 c 1,3,4
 255 194 255 194 275 194 c 0,5,6
 341 194 341 194 341 139 c 0,7,8
 341 137 341 137 338.5 107.5 c 128,-1,9
 336 78 336 78 333.5 30 c 128,-1,10
 331 -18 331 -18 331 -66 c 2,11,-1
 331 -73 l 2,12,13
 331 -211 331 -211 343 -243 c 1,14,15
 320 -249 320 -249 300 -249 c 0,16,17
 234 -249 234 -249 234 -195 c 0,18,19
 234 -193 234 -193 236.5 -163.5 c 128,-1,20
 239 -134 239 -134 241.5 -85.5 c 128,-1,21
 244 -37 244 -37 244 11 c 2,0,-1
244 554 m 2,22,-1
 244 561 l 2,23,24
 244 700 244 700 232 732 c 1,25,26
 255 737 255 737 275 737 c 0,27,28
 341 737 341 737 341 682 c 0,29,30
 341 680 341 680 338.5 650.5 c 128,-1,31
 336 621 336 621 333.5 573 c 128,-1,32
 331 525 331 525 331 477 c 2,33,-1
 331 470 l 2,34,35
 331 332 331 332 343 300 c 1,36,37
 320 294 320 294 300 294 c 0,38,39
 234 294 234 294 234 348 c 0,40,41
 234 350 234 350 236.5 379.5 c 128,-1,42
 239 409 239 409 241.5 457.5 c 128,-1,43
 244 506 244 506 244 554 c 2,22,-1
EndSplineSet
EndChar

StartChar: section
Encoding: 167 167 103
Width: 484
GlyphClass: 2
Flags: W
LayerCount: 2
Fore
SplineSet
56 532 m 0,0,1
 56 594 56 594 113.5 633 c 128,-1,2
 171 672 171 672 264 672 c 0,3,4
 322 672 322 672 378 651 c 128,-1,5
 434 630 434 630 434 593 c 0,6,7
 434 537 434 537 347 516 c 1,8,9
 339 545 339 545 313 563 c 128,-1,10
 287 581 287 581 258 581 c 0,11,12
 227 581 227 581 210.5 568 c 128,-1,13
 194 555 194 555 194 534 c 0,14,15
 194 503 194 503 220.5 478.5 c 128,-1,16
 247 454 247 454 285 436 c 128,-1,17
 323 418 323 418 361 397.5 c 128,-1,18
 399 377 399 377 425.5 342 c 128,-1,19
 452 307 452 307 452 261 c 0,20,21
 452 200 452 200 401 158 c 1,22,23
 434 118 434 118 434 68 c 0,24,25
 434 7 434 7 377.5 -35.5 c 128,-1,26
 321 -78 321 -78 220 -78 c 0,27,28
 198 -78 198 -78 170 -74.5 c 128,-1,29
 142 -71 142 -71 108 -62.5 c 128,-1,30
 74 -54 74 -54 51.5 -35.5 c 128,-1,31
 29 -17 29 -17 29 7 c 0,32,33
 29 50 29 50 94 75 c 1,34,35
 129 12 129 12 219 12 c 0,36,37
 290 12 290 12 290 73 c 0,38,39
 290 105 290 105 263.5 128 c 128,-1,40
 237 151 237 151 199.5 166.5 c 128,-1,41
 162 182 162 182 124.5 199.5 c 128,-1,42
 87 217 87 217 60.5 251 c 128,-1,43
 34 285 34 285 34 333 c 0,44,45
 34 397 34 397 88 437 c 1,46,47
 56 479 56 479 56 532 c 0,0,1
138 387 m 1,48,49
 137 382 137 382 137 373 c 0,50,51
 137 337 137 337 167.5 310.5 c 128,-1,52
 198 284 198 284 261 253 c 128,-1,53
 324 222 324 222 350 204 c 1,54,55
 351 207 351 207 351 214 c 0,56,57
 351 245 351 245 319.5 271 c 128,-1,58
 288 297 288 297 228 330.5 c 128,-1,59
 168 364 168 364 138 387 c 1,48,49
EndSplineSet
EndChar

StartChar: dieresis
Encoding: 168 168 104
Width: 426
GlyphClass: 2
Flags: W
LayerCount: 2
Fore
SplineSet
326 520 m 0,0,1
 288 520 288 520 261.5 546.5 c 128,-1,2
 235 573 235 573 235 614 c 0,3,4
 235 653 235 653 263 680 c 128,-1,5
 291 707 291 707 328 707 c 128,-1,6
 365 707 365 707 391.5 680 c 128,-1,7
 418 653 418 653 418 614 c 0,8,9
 418 574 418 574 390 547 c 128,-1,10
 362 520 362 520 326 520 c 0,0,1
97 520 m 0,11,12
 59 520 59 520 32.5 546.5 c 128,-1,13
 6 573 6 573 6 614 c 0,14,15
 6 653 6 653 34 680 c 128,-1,16
 62 707 62 707 99 707 c 128,-1,17
 136 707 136 707 162.5 680 c 128,-1,18
 189 653 189 653 189 614 c 0,19,20
 189 574 189 574 161 547 c 128,-1,21
 133 520 133 520 97 520 c 0,11,12
EndSplineSet
EndChar

StartChar: copyright
Encoding: 169 169 105
Width: 858
GlyphClass: 2
Flags: W
LayerCount: 2
Fore
SplineSet
750 320 m 0,0,1
 750 452 750 452 670.5 534.5 c 128,-1,2
 591 617 591 617 477 617 c 0,3,4
 361 617 361 617 281.5 535 c 128,-1,5
 202 453 202 453 202 320 c 128,-1,6
 202 187 202 187 281.5 105 c 128,-1,7
 361 23 361 23 477 23 c 0,8,9
 591 23 591 23 670.5 105 c 128,-1,10
 750 187 750 187 750 320 c 0,0,1
822 320 m 0,11,12
 822 170 822 170 721.5 68 c 128,-1,13
 621 -34 621 -34 477 -34 c 0,14,15
 330 -34 330 -34 230 67.5 c 128,-1,16
 130 169 130 169 130 320 c 0,17,18
 130 472 130 472 230 573 c 128,-1,19
 330 674 330 674 477 674 c 0,20,21
 622 674 622 674 722 573 c 128,-1,22
 822 472 822 472 822 320 c 0,11,12
627 161 m 0,23,24
 627 135 627 135 586 115.5 c 128,-1,25
 545 96 545 96 489 96 c 0,26,27
 448 96 448 96 411 107.5 c 128,-1,28
 374 119 374 119 340.5 143.5 c 128,-1,29
 307 168 307 168 287 213.5 c 128,-1,30
 267 259 267 259 267 319 c 0,31,32
 267 433 267 433 333 492 c 128,-1,33
 399 551 399 551 483 551 c 0,34,35
 513 551 513 551 544.5 542.5 c 128,-1,36
 576 534 576 534 602 513.5 c 128,-1,37
 628 493 628 493 628 464 c 0,38,39
 628 425 628 425 555 415 c 1,40,41
 547 446 547 446 524 462 c 128,-1,42
 501 478 501 478 476 478 c 0,43,44
 436 478 436 478 409 437 c 128,-1,45
 382 396 382 396 382 330 c 0,46,47
 382 246 382 246 416.5 207.5 c 128,-1,48
 451 169 451 169 498 169 c 0,49,50
 552 169 552 169 586 215 c 1,51,52
 627 190 627 190 627 161 c 0,23,24
EndSplineSet
EndChar

StartChar: ordfeminine
Encoding: 170 170 106
Width: 339
GlyphClass: 2
Flags: W
LayerCount: 2
Fore
SplineSet
314 269 m 0,0,1
 314 244 314 244 294 229 c 128,-1,2
 274 214 274 214 240 214 c 0,3,4
 228 214 228 214 196.5 217.5 c 128,-1,5
 165 221 165 221 148 221 c 2,6,-1
 143 221 l 2,7,8
 100 221 100 221 48 205 c 1,9,10
 41 234 41 234 41 253 c 0,11,12
 41 276 41 276 58 292 c 128,-1,13
 75 308 75 308 111 308 c 0,14,15
 118 308 118 308 149.5 305 c 128,-1,16
 181 302 181 302 201 302 c 2,17,-1
 215 302 l 2,18,19
 264 302 264 302 304 317 c 1,20,21
 314 292 314 292 314 269 c 0,0,1
90 551 m 1,22,23
 69 553 69 553 53.5 564.5 c 128,-1,24
 38 576 38 576 38 591 c 0,25,26
 38 607 38 607 51.5 618.5 c 128,-1,27
 65 630 65 630 86.5 634.5 c 128,-1,28
 108 639 108 639 125 641 c 128,-1,29
 142 643 142 643 159 643 c 0,30,31
 213 643 213 643 250 622 c 128,-1,32
 287 601 287 601 287 555 c 0,33,34
 287 542 287 542 286.5 512 c 128,-1,35
 286 482 286 482 286 470 c 0,36,37
 286 402 286 402 296 373 c 1,38,39
 280 362 280 362 247 362 c 0,40,41
 204 362 204 362 199 393 c 1,42,43
 172 358 172 358 123 358 c 0,44,45
 86 358 86 358 58 381 c 128,-1,46
 30 404 30 404 30 444 c 0,47,48
 30 498 30 498 85 513 c 0,49,50
 133 527 133 527 198 529 c 1,51,52
 198 562 198 562 189.5 575 c 128,-1,53
 181 588 181 588 154 588 c 0,54,55
 106 588 106 588 90 551 c 1,22,23
200 482 m 1,56,57
 174 479 174 479 162 476.5 c 128,-1,58
 150 474 150 474 139 466.5 c 128,-1,59
 128 459 128 459 128 446 c 0,60,61
 128 417 128 417 153 417 c 0,62,63
 183 417 183 417 198 432 c 1,64,-1
 198 448 l 2,65,66
 198 471 198 471 200 482 c 1,56,57
EndSplineSet
EndChar

StartChar: guillemotleft
Encoding: 171 171 107
Width: 579
GlyphClass: 2
Flags: W
LayerCount: 2
Fore
SplineSet
202 235 m 1,0,1
 235 195 235 195 268 145 c 128,-1,2
 301 95 301 95 301 80 c 0,3,4
 301 50 301 50 230 24 c 1,5,6
 155 87 155 87 46 235 c 1,7,8
 156 386 156 386 229 446 c 1,9,10
 273 426 273 426 286.5 412.5 c 128,-1,11
 300 399 300 399 300 384 c 0,12,13
 300 370 300 370 268.5 323.5 c 128,-1,14
 237 277 237 277 202 235 c 1,0,1
461 235 m 1,15,16
 494 195 494 195 527 145 c 128,-1,17
 560 95 560 95 560 80 c 0,18,19
 560 50 560 50 489 24 c 1,20,21
 414 87 414 87 305 235 c 1,22,23
 415 386 415 386 488 446 c 1,24,25
 532 426 532 426 545.5 412.5 c 128,-1,26
 559 399 559 399 559 384 c 0,27,28
 559 370 559 370 527.5 323.5 c 128,-1,29
 496 277 496 277 461 235 c 1,15,16
EndSplineSet
EndChar

StartChar: logicalnot
Encoding: 172 172 108
Width: 574
GlyphClass: 2
Flags: W
LayerCount: 2
Fore
SplineSet
117 336 m 2,0,-1
 495 336 l 1,1,2
 498 103 498 103 498 100 c 0,3,4
 498 64 498 64 484.5 48 c 128,-1,5
 471 32 471 32 435 32 c 0,6,7
 397 32 397 32 371 44 c 1,8,9
 396 129 396 129 396 246 c 2,10,-1
 396 261 l 1,11,-1
 210 261 l 2,12,13
 129 261 129 261 67 240 c 1,14,15
 57 262 57 262 57 283 c 0,16,17
 57 336 57 336 117 336 c 2,0,-1
EndSplineSet
EndChar

StartChar: registered
Encoding: 174 174 109
Width: 585
GlyphClass: 2
Flags: W
LayerCount: 2
Fore
SplineSet
483 440 m 128,-1,1
 483 522 483 522 434 572.5 c 128,-1,2
 385 623 385 623 314 623 c 0,3,4
 242 623 242 623 193 572.5 c 128,-1,5
 144 522 144 522 144 440 c 128,-1,6
 144 358 144 358 193 307.5 c 128,-1,7
 242 257 242 257 314 257 c 0,8,9
 385 257 385 257 434 307.5 c 128,-1,0
 483 358 483 358 483 440 c 128,-1,1
542 440 m 128,-1,11
 542 341 542 341 475.5 274 c 128,-1,12
 409 207 409 207 314 207 c 0,13,14
 217 207 217 207 151 274 c 128,-1,15
 85 341 85 341 85 440 c 0,16,17
 85 540 85 540 151 606.5 c 128,-1,18
 217 673 217 673 314 673 c 0,19,20
 409 673 409 673 475.5 606 c 128,-1,10
 542 539 542 539 542 440 c 128,-1,11
310 451 m 0,21,22
 349 451 349 451 349 488 c 0,23,24
 349 506 349 506 335.5 517.5 c 128,-1,25
 322 529 322 529 303 529 c 2,26,-1
 290 529 l 1,27,-1
 290 452 l 1,28,29
 294 451 294 451 310 451 c 0,21,22
425 356 m 1,30,31
 429 348 429 348 429 340 c 0,32,33
 429 329 429 329 419 322.5 c 128,-1,34
 409 316 409 316 395 316 c 0,35,36
 370 316 370 316 355 334 c 1,37,38
 312 379 312 379 290 419 c 1,39,-1
 290 396 l 2,40,41
 290 354 290 354 299 328 c 1,42,43
 280 318 280 318 262 318 c 0,44,45
 215 318 215 318 215 348 c 0,46,47
 215 357 215 357 216 378 c 128,-1,48
 217 399 217 399 217 407 c 2,49,-1
 217 474 l 2,50,51
 217 526 217 526 212 560 c 1,52,53
 287 566 287 566 309 566 c 0,54,55
 421 566 421 566 421 488 c 0,56,57
 421 437 421 437 361 418 c 1,58,59
 368 404 368 404 407 360 c 0,60,61
 411 356 411 356 425 356 c 1,30,31
EndSplineSet
EndChar

StartChar: macron
Encoding: 175 175 110
Width: 352
GlyphClass: 2
Flags: W
LayerCount: 2
Fore
SplineSet
166 646 m 2,0,-1
 194 646 l 2,1,2
 258 646 258 646 346 654 c 1,3,4
 352 618 352 618 352 603 c 0,5,6
 352 550 352 550 306 550 c 1,7,-1
 285 552 l 2,8,9
 264 554 264 554 231 555.5 c 128,-1,10
 198 557 198 557 168 557 c 2,11,-1
 139 557 l 2,12,13
 73 557 73 557 6 550 c 1,14,15
 0 586 0 586 0 600 c 0,16,17
 0 654 0 654 41 654 c 0,18,19
 45 654 45 654 94 650 c 128,-1,20
 143 646 143 646 166 646 c 2,0,-1
EndSplineSet
EndChar

StartChar: degree
Encoding: 176 176 111
Width: 420
GlyphClass: 2
Flags: W
LayerCount: 2
Fore
SplineSet
126 547 m 0,0,1
 126 507 126 507 144.5 481.5 c 128,-1,2
 163 456 163 456 197 456 c 128,-1,3
 231 456 231 456 250 483 c 128,-1,4
 269 510 269 510 269 551 c 0,5,6
 269 590 269 590 251 616 c 128,-1,7
 233 642 233 642 200 642 c 0,8,9
 165 642 165 642 145.5 615 c 128,-1,10
 126 588 126 588 126 547 c 0,0,1
40 547 m 0,11,12
 40 618 40 618 85.5 664.5 c 128,-1,13
 131 711 131 711 204 711 c 0,14,15
 272 711 272 711 316.5 665.5 c 128,-1,16
 361 620 361 620 361 552 c 0,17,18
 361 480 361 480 316 433.5 c 128,-1,19
 271 387 271 387 199 387 c 0,20,21
 129 387 129 387 84.5 432.5 c 128,-1,22
 40 478 40 478 40 547 c 0,11,12
EndSplineSet
EndChar

StartChar: plusminus
Encoding: 177 177 112
Width: 574
GlyphClass: 2
Flags: W
LayerCount: 2
Fore
SplineSet
332 333 m 1,0,1
 417 333 417 333 520 344 c 1,2,3
 524 332 524 332 524 302 c 0,4,5
 524 277 524 277 509.5 259.5 c 128,-1,6
 495 242 495 242 472 242 c 0,7,8
 448 242 448 242 407 247 c 128,-1,9
 366 252 366 252 331 252 c 1,10,11
 331 187 331 187 342 126 c 1,12,13
 310 120 310 120 299 120 c 0,14,15
 275 120 275 120 257 132.5 c 128,-1,16
 239 145 239 145 239 169 c 0,17,18
 239 179 239 179 244 211 c 128,-1,19
 249 243 249 243 249 253 c 1,20,21
 215 253 215 253 53 242 c 1,22,23
 49 263 49 263 49 284 c 0,24,25
 49 307 49 307 61.5 325.5 c 128,-1,26
 74 344 74 344 101 344 c 0,27,28
 109 344 109 344 149.5 340 c 128,-1,29
 190 336 190 336 251 334 c 1,30,31
 251 407 251 407 239 506 c 1,32,33
 252 510 252 510 282 510 c 0,34,35
 307 510 307 510 324.5 496 c 128,-1,36
 342 482 342 482 342 459 c 128,-1,37
 342 436 342 436 337 402 c 128,-1,38
 332 368 332 368 332 333 c 1,0,1
499 57 m 0,39,40
 499 32 499 32 485 14.5 c 128,-1,41
 471 -3 471 -3 448 -3 c 0,42,43
 431 -3 431 -3 371.5 2.5 c 128,-1,44
 312 8 312 8 282 8 c 0,45,46
 169 8 169 8 66 -3 c 1,47,48
 62 18 62 18 62 39 c 0,49,50
 62 62 62 62 74.5 80.5 c 128,-1,51
 87 99 87 99 113 99 c 0,52,53
 117 99 117 99 180.5 94 c 128,-1,54
 244 89 244 89 290 89 c 0,55,56
 424 89 424 89 493 99 c 1,57,58
 499 87 499 87 499 57 c 0,39,40
EndSplineSet
EndChar

StartChar: twosuperior
Encoding: 178 178 113
Width: 485
GlyphClass: 2
Flags: W
LayerCount: 2
Fore
SplineSet
121 509 m 1,0,1
 90 513 90 513 71.5 529.5 c 128,-1,2
 53 546 53 546 53 568 c 0,3,4
 53 602 53 602 94 630 c 0,5,6
 158 673 158 673 239 673 c 0,7,8
 322 673 322 673 365.5 638 c 128,-1,9
 409 603 409 603 409 549 c 0,10,11
 409 519 409 519 395.5 490 c 128,-1,12
 382 461 382 461 365.5 440.5 c 128,-1,13
 349 420 349 420 317 394.5 c 128,-1,14
 285 369 285 369 266 356 c 128,-1,15
 247 343 247 343 210 320 c 1,16,17
 228 319 228 319 263 319 c 0,18,19
 355 319 355 319 419 338 c 1,20,21
 443 301 443 301 443 274 c 0,22,23
 443 240 443 240 415 232 c 0,24,25
 372 220 372 220 246 220 c 0,26,27
 205 220 205 220 163.5 221 c 128,-1,28
 122 222 122 222 93 222 c 0,29,30
 39 222 39 222 39 271 c 0,31,32
 39 286 39 286 42 302 c 1,33,34
 91 334 91 334 116.5 351.5 c 128,-1,35
 142 369 142 369 184 404 c 128,-1,36
 226 439 226 439 246 472.5 c 128,-1,37
 266 506 266 506 266 540 c 0,38,39
 266 582 266 582 215 582 c 0,40,41
 189 582 189 582 163.5 564 c 128,-1,42
 138 546 138 546 121 509 c 1,0,1
EndSplineSet
EndChar

StartChar: threesuperior
Encoding: 179 179 114
Width: 451
GlyphClass: 2
Flags: W
LayerCount: 2
Fore
SplineSet
151 485 m 0,0,1
 202 485 202 485 227.5 505 c 128,-1,2
 253 525 253 525 253 557 c 0,3,4
 253 593 253 593 208 593 c 0,5,6
 180 593 180 593 151 579 c 128,-1,7
 122 565 122 565 110 545 c 1,8,9
 62 557 62 557 62 601 c 0,10,11
 62 634 62 634 119.5 653.5 c 128,-1,12
 177 673 177 673 221 673 c 0,13,14
 310 673 310 673 353.5 644 c 128,-1,15
 397 615 397 615 397 566 c 0,16,17
 397 486 397 486 312 458 c 1,18,19
 359 443 359 443 382 412 c 128,-1,20
 405 381 405 381 405 344 c 0,21,22
 405 282 405 282 351.5 245 c 128,-1,23
 298 208 298 208 192 208 c 0,24,25
 175 208 175 208 153.5 210.5 c 128,-1,26
 132 213 132 213 104 219 c 128,-1,27
 76 225 76 225 57.5 238.5 c 128,-1,28
 39 252 39 252 39 271 c 0,29,30
 39 309 39 309 87 339 c 1,31,32
 125 292 125 292 191 292 c 0,33,34
 225 292 225 292 243.5 305.5 c 128,-1,35
 262 319 262 319 262 355 c 0,36,37
 262 383 262 383 237 402 c 128,-1,38
 212 421 212 421 158 421 c 0,39,40
 132 421 132 421 132 458 c 0,41,42
 132 474 132 474 135 484 c 1,43,44
 138 484 138 484 143 484.5 c 128,-1,45
 148 485 148 485 151 485 c 0,0,1
EndSplineSet
EndChar

StartChar: acute
Encoding: 180 180 115
Width: 282
GlyphClass: 2
Flags: W
LayerCount: 2
Fore
SplineSet
290 629 m 0,0,1
 266 614 266 614 179 577.5 c 128,-1,2
 92 541 92 541 74 523 c 1,3,4
 39 551 39 551 39 574 c 0,5,6
 39 593 39 593 65 612.5 c 128,-1,7
 91 632 91 632 125 647 c 128,-1,8
 159 662 159 662 199.5 688.5 c 128,-1,9
 240 715 240 715 261 743 c 1,10,11
 314 714 314 714 314 674 c 0,12,13
 314 645 314 645 290 629 c 0,0,1
EndSplineSet
EndChar

StartChar: mu
Encoding: 181 181 116
Width: 550
GlyphClass: 2
Flags: W
LayerCount: 2
Fore
SplineSet
511 10 m 1,0,1
 462 -3 462 -3 427 -3 c 0,2,3
 395 -3 395 -3 372.5 11.5 c 128,-1,4
 350 26 350 26 348 54 c 1,5,6
 334 27 334 27 306 8.5 c 128,-1,7
 278 -10 278 -10 249 -10 c 0,8,9
 208 -10 208 -10 186 12 c 1,10,11
 180 -18 180 -18 180 -54 c 0,12,13
 180 -137 180 -137 210 -245 c 1,14,15
 185 -253 185 -253 141 -253 c 0,16,17
 87 -253 87 -253 68 -240 c 128,-1,18
 49 -227 49 -227 49 -196 c 0,19,20
 49 -100 49 -100 50.5 42.5 c 128,-1,21
 52 185 52 185 52 241 c 2,22,-1
 52 309 l 2,23,24
 52 413 52 413 36 465 c 1,25,26
 75 478 75 478 117 478 c 0,27,28
 203 478 203 478 203 417 c 0,29,30
 203 384 203 384 200 294 c 128,-1,31
 197 204 197 204 197 186 c 0,32,33
 197 138 197 138 212.5 112 c 128,-1,34
 228 86 228 86 251 86 c 0,35,36
 302 86 302 86 346 133 c 1,37,38
 345 172 345 172 345 254 c 0,39,40
 345 370 345 370 338 465 c 1,41,42
 378 478 378 478 415 478 c 0,43,44
 455 478 455 478 477 466 c 128,-1,45
 499 454 499 454 499 416 c 0,46,47
 499 402 499 402 496 337 c 128,-1,48
 493 272 493 272 493 203 c 0,49,50
 493 76 493 76 511 10 c 1,0,1
EndSplineSet
EndChar

StartChar: paragraph
Encoding: 182 182 117
Width: 504
GlyphClass: 2
Flags: W
LayerCount: 2
Fore
SplineSet
312 502 m 1,0,1
 284 502 284 502 259 505 c 1,2,3
 250 407 250 407 250 236 c 0,4,5
 250 211 250 211 200 211 c 0,6,7
 130 211 130 211 79.5 260.5 c 128,-1,8
 29 310 29 310 29 389 c 0,9,10
 29 475 29 475 84 525.5 c 128,-1,11
 139 576 139 576 222 576 c 0,12,13
 250 576 250 576 308 574 c 128,-1,14
 366 572 366 572 385 572 c 0,15,16
 454 572 454 572 484 573 c 1,17,18
 491 556 491 556 491 542 c 0,19,20
 491 501 491 501 412 501 c 1,21,22
 400 359 400 359 400 168 c 0,23,24
 400 156 400 156 402 67 c 128,-1,25
 404 -22 404 -22 404 -67 c 0,26,27
 404 -95 404 -95 391 -110 c 128,-1,28
 378 -125 378 -125 340 -125 c 0,29,30
 306 -125 306 -125 283 -116 c 1,31,32
 302 -64 302 -64 302 113 c 0,33,34
 302 204 302 204 312 502 c 1,0,1
EndSplineSet
EndChar

StartChar: periodcentered
Encoding: 183 183 118
Width: 235
GlyphClass: 2
Flags: W
LayerCount: 2
Fore
SplineSet
117 168 m 0,0,1
 79 168 79 168 52.5 194.5 c 128,-1,2
 26 221 26 221 26 262 c 0,3,4
 26 301 26 301 54 328 c 128,-1,5
 82 355 82 355 119 355 c 128,-1,6
 156 355 156 355 182.5 328 c 128,-1,7
 209 301 209 301 209 262 c 0,8,9
 209 222 209 222 181 195 c 128,-1,10
 153 168 153 168 117 168 c 0,0,1
EndSplineSet
EndChar

StartChar: cedilla
Encoding: 184 184 119
Width: 230
GlyphClass: 2
Flags: W
LayerCount: 2
Fore
SplineSet
92 32 m 1,0,-1
 178 27 l 1,1,2
 160 -27 160 -27 160 -30 c 0,3,4
 160 -41 160 -41 174 -51 c 128,-1,5
 188 -61 188 -61 204.5 -70 c 128,-1,6
 221 -79 221 -79 235 -98.5 c 128,-1,7
 249 -118 249 -118 249 -144 c 0,8,9
 249 -183 249 -183 202.5 -217.5 c 128,-1,10
 156 -252 156 -252 89 -252 c 0,11,12
 54 -252 54 -252 36.5 -239 c 128,-1,13
 19 -226 19 -226 19 -207 c 0,14,15
 19 -180 19 -180 44 -153 c 1,16,17
 57 -166 57 -166 78 -166 c 0,18,19
 108 -166 108 -166 108 -128 c 0,20,21
 108 -108 108 -108 85.5 -90 c 128,-1,22
 63 -72 63 -72 63 -54 c 0,23,24
 63 -21 63 -21 92 32 c 1,0,-1
EndSplineSet
EndChar

StartChar: onesuperior
Encoding: 185 185 120
Width: 397
GlyphClass: 2
Flags: W
LayerCount: 2
Fore
SplineSet
269 308 m 1,0,1
 304 308 304 308 342 312 c 1,2,3
 351 292 351 292 351 271 c 0,4,5
 351 248 351 248 339 233 c 128,-1,6
 327 218 327 218 302 218 c 0,7,8
 294 218 294 218 251 219 c 128,-1,9
 208 220 208 220 156 220 c 0,10,11
 89 220 89 220 52 219 c 1,12,13
 46 237 46 237 46 256 c 0,14,15
 46 311 46 311 100 311 c 2,16,-1
 143 311 l 1,17,18
 143 320 143 320 143.5 372.5 c 128,-1,19
 144 425 144 425 144 462 c 0,20,21
 144 522 144 522 141 579 c 1,22,23
 90 576 90 576 52 563 c 1,24,25
 45 578 45 578 45 598 c 0,26,27
 45 640 45 640 86 651 c 0,28,29
 165 673 165 673 203 673 c 0,30,31
 268 673 268 673 268 626 c 0,32,33
 268 621 268 621 267 593 c 128,-1,34
 266 565 266 565 264.5 522 c 128,-1,35
 263 479 263 479 263 437 c 2,36,-1
 263 401 l 2,37,38
 263 339 263 339 269 308 c 1,0,1
EndSplineSet
EndChar

StartChar: ordmasculine
Encoding: 186 186 121
Width: 355
GlyphClass: 2
Flags: W
LayerCount: 2
Fore
SplineSet
314 269 m 0,0,1
 314 244 314 244 294 229 c 128,-1,2
 274 214 274 214 240 214 c 0,3,4
 228 214 228 214 196.5 217.5 c 128,-1,5
 165 221 165 221 148 221 c 2,6,-1
 143 221 l 2,7,8
 100 221 100 221 48 205 c 1,9,10
 41 234 41 234 41 253 c 0,11,12
 41 276 41 276 58 292 c 128,-1,13
 75 308 75 308 111 308 c 0,14,15
 118 308 118 308 149.5 305 c 128,-1,16
 181 302 181 302 201 302 c 2,17,-1
 215 302 l 2,18,19
 264 302 264 302 304 317 c 1,20,21
 314 292 314 292 314 269 c 0,0,1
177 366 m 0,22,23
 111 366 111 366 70.5 404.5 c 128,-1,24
 30 443 30 443 30 505 c 0,25,26
 30 568 30 568 70.5 605.5 c 128,-1,27
 111 643 111 643 177 643 c 0,28,29
 244 643 244 643 284.5 605.5 c 128,-1,30
 325 568 325 568 325 505 c 0,31,32
 325 443 325 443 284.5 404.5 c 128,-1,33
 244 366 244 366 177 366 c 0,22,23
239 496 m 0,34,35
 239 536 239 536 222 562 c 128,-1,36
 205 588 205 588 177 588 c 0,37,38
 148 588 148 588 132.5 567.5 c 128,-1,39
 117 547 117 547 117 513 c 0,40,41
 117 473 117 473 133 446 c 128,-1,42
 149 419 149 419 177 419 c 0,43,44
 206 419 206 419 222.5 440.5 c 128,-1,45
 239 462 239 462 239 496 c 0,34,35
EndSplineSet
EndChar

StartChar: guillemotright
Encoding: 187 187 122
Width: 579
GlyphClass: 2
Flags: W
LayerCount: 2
Fore
SplineSet
145 235 m 1,0,1
 110 277 110 277 78.5 323.5 c 128,-1,2
 47 370 47 370 47 384 c 0,3,4
 47 399 47 399 60.5 412.5 c 128,-1,5
 74 426 74 426 118 446 c 1,6,7
 191 386 191 386 301 235 c 1,8,9
 192 87 192 87 117 24 c 1,10,11
 46 50 46 50 46 80 c 0,12,13
 46 95 46 95 79 145 c 128,-1,14
 112 195 112 195 145 235 c 1,0,1
404 235 m 1,15,16
 369 277 369 277 337.5 323.5 c 128,-1,17
 306 370 306 370 306 384 c 0,18,19
 306 399 306 399 319.5 412.5 c 128,-1,20
 333 426 333 426 377 446 c 1,21,22
 450 386 450 386 560 235 c 1,23,24
 451 87 451 87 376 24 c 1,25,26
 305 50 305 50 305 80 c 0,27,28
 305 95 305 95 338 145 c 128,-1,29
 371 195 371 195 404 235 c 1,15,16
EndSplineSet
EndChar

StartChar: onequarter
Encoding: 188 188 123
Width: 1019
GlyphClass: 2
Flags: W
LayerCount: 2
Fore
SplineSet
279 308 m 1,0,1
 314 308 314 308 352 312 c 1,2,3
 361 292 361 292 361 271 c 0,4,5
 361 248 361 248 349 233 c 128,-1,6
 337 218 337 218 312 218 c 0,7,8
 304 218 304 218 261 219 c 128,-1,9
 218 220 218 220 166 220 c 0,10,11
 99 220 99 220 62 219 c 1,12,13
 56 237 56 237 56 256 c 0,14,15
 56 311 56 311 110 311 c 2,16,-1
 153 311 l 1,17,18
 153 320 153 320 153.5 372.5 c 128,-1,19
 154 425 154 425 154 462 c 0,20,21
 154 522 154 522 151 579 c 1,22,23
 100 576 100 576 62 563 c 1,24,25
 55 578 55 578 55 598 c 0,26,27
 55 640 55 640 96 651 c 0,28,29
 175 673 175 673 213 673 c 0,30,31
 278 673 278 673 278 626 c 0,32,33
 278 621 278 621 277 593 c 128,-1,34
 276 565 276 565 274.5 522 c 128,-1,35
 273 479 273 479 273 437 c 2,36,-1
 273 401 l 2,37,38
 273 339 273 339 279 308 c 1,0,1
671 195 m 1,39,40
 692 193 692 193 775 193 c 1,41,42
 775 304 775 304 776 341 c 1,43,44
 713 266 713 266 671 195 c 1,39,40
743 436 m 0,45,46
 766 455 766 455 827 455 c 0,47,48
 861 455 861 455 893 450 c 1,49,50
 893 448 893 448 891.5 413.5 c 128,-1,51
 890 379 890 379 888.5 320 c 128,-1,52
 887 261 887 261 887 198 c 1,53,54
 934 201 934 201 954 210 c 1,55,56
 964 192 964 192 964 166 c 0,57,58
 964 134 964 134 944.5 122 c 128,-1,59
 925 110 925 110 886 110 c 1,60,61
 886 43 886 43 901 -2 c 1,62,63
 871 -10 871 -10 846 -10 c 0,64,65
 802 -10 802 -10 787 2 c 128,-1,66
 772 14 772 14 772 42 c 0,67,68
 772 67 772 67 773 109 c 1,69,70
 638 109 638 109 587 116 c 1,71,72
 568 120 568 120 562 130.5 c 128,-1,73
 556 141 556 141 556 165 c 0,74,75
 556 171 556 171 556.5 181 c 128,-1,76
 557 191 557 191 557 195 c 1,77,78
 594 258 594 258 648.5 329.5 c 128,-1,79
 703 401 703 401 743 436 c 0,45,46
277 -38 m 2,80,-1
 512 436 l 2,81,82
 610 633 610 633 654 739 c 1,83,84
 680 739 680 739 702 727.5 c 128,-1,85
 724 716 724 716 724 695 c 0,86,87
 724 686 724 686 694 625 c 0,88,89
 674 584 674 584 664 563.5 c 128,-1,90
 654 543 654 543 643.5 522.5 c 128,-1,91
 633 502 633 502 589.5 415.5 c 128,-1,92
 546 329 546 329 478 193 c 0,93,94
 382 -2 382 -2 338 -109 c 1,95,96
 309 -109 309 -109 288.5 -98 c 128,-1,97
 268 -87 268 -87 268 -66 c 0,98,99
 268 -54 268 -54 277 -38 c 2,80,-1
EndSplineSet
EndChar

StartChar: onehalf
Encoding: 189 189 124
Width: 1078
GlyphClass: 2
Flags: W
LayerCount: 2
Fore
SplineSet
704 288 m 1,0,1
 673 292 673 292 654.5 308.5 c 128,-1,2
 636 325 636 325 636 347 c 0,3,4
 636 381 636 381 677 409 c 0,5,6
 741 452 741 452 822 452 c 0,7,8
 905 452 905 452 948.5 417 c 128,-1,9
 992 382 992 382 992 328 c 0,10,11
 992 298 992 298 978.5 269 c 128,-1,12
 965 240 965 240 948.5 219.5 c 128,-1,13
 932 199 932 199 900 173.5 c 128,-1,14
 868 148 868 148 849 135 c 128,-1,15
 830 122 830 122 793 99 c 1,16,17
 811 98 811 98 846 98 c 0,18,19
 938 98 938 98 1002 117 c 1,20,21
 1026 80 1026 80 1026 53 c 0,22,23
 1026 19 1026 19 998 11 c 0,24,25
 955 -1 955 -1 829 -1 c 0,26,27
 788 -1 788 -1 746.5 0 c 128,-1,28
 705 1 705 1 676 1 c 0,29,30
 622 1 622 1 622 50 c 0,31,32
 622 64 622 64 625 81 c 1,33,34
 674 113 674 113 699.5 130.5 c 128,-1,35
 725 148 725 148 767 183 c 128,-1,36
 809 218 809 218 829 251.5 c 128,-1,37
 849 285 849 285 849 319 c 0,38,39
 849 361 849 361 798 361 c 0,40,41
 772 361 772 361 746.5 343 c 128,-1,42
 721 325 721 325 704 288 c 1,0,1
279 308 m 1,43,44
 314 308 314 308 352 312 c 1,45,46
 361 292 361 292 361 271 c 0,47,48
 361 248 361 248 349 233 c 128,-1,49
 337 218 337 218 312 218 c 0,50,51
 304 218 304 218 261 219 c 128,-1,52
 218 220 218 220 166 220 c 0,53,54
 99 220 99 220 62 219 c 1,55,56
 56 237 56 237 56 256 c 0,57,58
 56 311 56 311 110 311 c 2,59,-1
 153 311 l 1,60,61
 153 320 153 320 153.5 372.5 c 128,-1,62
 154 425 154 425 154 462 c 0,63,64
 154 522 154 522 151 579 c 1,65,66
 100 576 100 576 62 563 c 1,67,68
 55 578 55 578 55 598 c 0,69,70
 55 640 55 640 96 651 c 0,71,72
 175 673 175 673 213 673 c 0,73,74
 278 673 278 673 278 626 c 0,75,76
 278 621 278 621 277 593 c 128,-1,77
 276 565 276 565 274.5 522 c 128,-1,78
 273 479 273 479 273 437 c 2,79,-1
 273 401 l 2,80,81
 273 339 273 339 279 308 c 1,43,44
277 -38 m 2,82,-1
 512 436 l 2,83,84
 610 633 610 633 654 739 c 1,85,86
 680 739 680 739 702 727.5 c 128,-1,87
 724 716 724 716 724 695 c 0,88,89
 724 686 724 686 694 625 c 0,90,91
 674 584 674 584 664 563.5 c 128,-1,92
 654 543 654 543 643.5 522.5 c 128,-1,93
 633 502 633 502 589.5 415.5 c 128,-1,94
 546 329 546 329 478 193 c 0,95,96
 382 -2 382 -2 338 -109 c 1,97,98
 309 -109 309 -109 288.5 -98 c 128,-1,99
 268 -87 268 -87 268 -66 c 0,100,101
 268 -54 268 -54 277 -38 c 2,82,-1
EndSplineSet
EndChar

StartChar: threequarters
Encoding: 190 190 125
Width: 1057
GlyphClass: 2
Flags: W
LayerCount: 2
Fore
SplineSet
161 485 m 0,0,1
 212 485 212 485 237.5 505 c 128,-1,2
 263 525 263 525 263 557 c 0,3,4
 263 593 263 593 218 593 c 0,5,6
 190 593 190 593 161 579 c 128,-1,7
 132 565 132 565 120 545 c 1,8,9
 72 557 72 557 72 601 c 0,10,11
 72 634 72 634 129.5 653.5 c 128,-1,12
 187 673 187 673 231 673 c 0,13,14
 320 673 320 673 363.5 644 c 128,-1,15
 407 615 407 615 407 566 c 0,16,17
 407 486 407 486 322 458 c 1,18,19
 369 443 369 443 392 412 c 128,-1,20
 415 381 415 381 415 344 c 0,21,22
 415 282 415 282 361.5 245 c 128,-1,23
 308 208 308 208 202 208 c 0,24,25
 185 208 185 208 163.5 210.5 c 128,-1,26
 142 213 142 213 114 219 c 128,-1,27
 86 225 86 225 67.5 238.5 c 128,-1,28
 49 252 49 252 49 271 c 0,29,30
 49 309 49 309 97 339 c 1,31,32
 135 292 135 292 201 292 c 0,33,34
 235 292 235 292 253.5 305.5 c 128,-1,35
 272 319 272 319 272 355 c 0,36,37
 272 383 272 383 247 402 c 128,-1,38
 222 421 222 421 168 421 c 0,39,40
 142 421 142 421 142 458 c 0,41,42
 142 474 142 474 145 484 c 1,43,44
 148 484 148 484 153 484.5 c 128,-1,45
 158 485 158 485 161 485 c 0,0,1
708 195 m 1,46,47
 729 193 729 193 812 193 c 1,48,49
 812 304 812 304 813 341 c 1,50,51
 750 266 750 266 708 195 c 1,46,47
780 436 m 0,52,53
 803 455 803 455 864 455 c 0,54,55
 898 455 898 455 930 450 c 1,56,57
 930 448 930 448 928.5 413.5 c 128,-1,58
 927 379 927 379 925.5 320 c 128,-1,59
 924 261 924 261 924 198 c 1,60,61
 971 201 971 201 991 210 c 1,62,63
 1001 192 1001 192 1001 166 c 0,64,65
 1001 134 1001 134 981.5 122 c 128,-1,66
 962 110 962 110 923 110 c 1,67,68
 923 43 923 43 938 -2 c 1,69,70
 908 -10 908 -10 883 -10 c 0,71,72
 839 -10 839 -10 824 2 c 128,-1,73
 809 14 809 14 809 42 c 0,74,75
 809 67 809 67 810 109 c 1,76,77
 675 109 675 109 624 116 c 1,78,79
 605 120 605 120 599 130.5 c 128,-1,80
 593 141 593 141 593 165 c 0,81,82
 593 171 593 171 593.5 181 c 128,-1,83
 594 191 594 191 594 195 c 1,84,85
 631 258 631 258 685.5 329.5 c 128,-1,86
 740 401 740 401 780 436 c 0,52,53
314 -38 m 2,87,-1
 549 436 l 2,88,89
 647 633 647 633 691 739 c 1,90,91
 717 739 717 739 739 727.5 c 128,-1,92
 761 716 761 716 761 695 c 0,93,94
 761 686 761 686 731 625 c 0,95,96
 711 584 711 584 701 563.5 c 128,-1,97
 691 543 691 543 680.5 522.5 c 128,-1,98
 670 502 670 502 626.5 415.5 c 128,-1,99
 583 329 583 329 515 193 c 0,100,101
 419 -2 419 -2 375 -109 c 1,102,103
 346 -109 346 -109 325.5 -98 c 128,-1,104
 305 -87 305 -87 305 -66 c 0,105,106
 305 -54 305 -54 314 -38 c 2,87,-1
EndSplineSet
EndChar

StartChar: questiondown
Encoding: 191 191 126
Width: 406
GlyphClass: 2
Flags: W
LayerCount: 2
Fore
SplineSet
219 485 m 0,0,1
 257 485 257 485 283 460 c 128,-1,2
 309 435 309 435 309 396 c 0,3,4
 309 359 309 359 281.5 333 c 128,-1,5
 254 307 254 307 217 307 c 0,6,7
 181 307 181 307 154.5 333 c 128,-1,8
 128 359 128 359 128 396 c 0,9,10
 128 434 128 434 155.5 459.5 c 128,-1,11
 183 485 183 485 219 485 c 0,0,1
146 225 m 1,12,13
 187 246 187 246 220 246 c 0,14,15
 265 246 265 246 285.5 228 c 128,-1,16
 306 210 306 210 306 184 c 0,17,18
 306 147 306 147 284.5 110.5 c 128,-1,19
 263 74 263 74 237 48.5 c 128,-1,20
 211 23 211 23 189.5 -12 c 128,-1,21
 168 -47 168 -47 168 -81 c 0,22,23
 168 -106 168 -106 183 -119.5 c 128,-1,24
 198 -133 198 -133 224 -133 c 128,-1,25
 250 -133 250 -133 272.5 -112.5 c 128,-1,26
 295 -92 295 -92 301 -58 c 1,27,28
 396 -69 396 -69 396 -125 c 0,29,30
 396 -169 396 -169 344 -194 c 128,-1,31
 292 -219 292 -219 219 -219 c 0,32,33
 192 -219 192 -219 166.5 -216 c 128,-1,34
 141 -213 141 -213 112 -204 c 128,-1,35
 83 -195 83 -195 62 -181 c 128,-1,36
 41 -167 41 -167 27 -142.5 c 128,-1,37
 13 -118 13 -118 13 -86 c 0,38,39
 13 -45 13 -45 27.5 -12 c 128,-1,40
 42 21 42 21 62.5 42 c 128,-1,41
 83 63 83 63 103.5 82.5 c 128,-1,42
 124 102 124 102 138.5 126 c 128,-1,43
 153 150 153 150 153 179 c 0,44,45
 153 200 153 200 146 225 c 1,12,13
EndSplineSet
EndChar

StartChar: Agrave
Encoding: 192 192 127
Width: 614
GlyphClass: 2
Flags: W
LayerCount: 2
Fore
SplineSet
371 288 m 1,0,1
 355 343 355 343 333 429.5 c 128,-1,2
 311 516 311 516 307 530 c 1,3,4
 245 314 245 314 237 288 c 1,5,6
 285 286 285 286 313 286 c 0,7,8
 352 286 352 286 371 288 c 1,0,1
300 187 m 0,9,10
 259 187 259 187 211 191 c 1,11,12
 143 27 143 27 129 -18 c 1,13,14
 94 -13 94 -13 78 -10 c 128,-1,15
 62 -7 62 -7 41 0.5 c 128,-1,16
 20 8 20 8 12 20 c 128,-1,17
 4 32 4 32 4 50 c 0,18,19
 4 71 4 71 38.5 152 c 128,-1,20
 73 233 73 233 131 376 c 128,-1,21
 189 519 189 519 229 656 c 1,22,23
 276 663 276 663 306 663 c 0,24,25
 390 663 390 663 414 590 c 0,26,27
 488 362 488 362 520 280 c 0,28,29
 598 77 598 77 626 22 c 1,30,31
 579 -10 579 -10 533 -10 c 0,32,33
 474 -10 474 -10 457 28 c 0,34,35
 446 54 446 54 427.5 102 c 128,-1,36
 409 150 409 150 393 189 c 1,37,38
 315 187 315 187 300 187 c 0,9,10
166 948 m 1,39,40
 186 922 186 922 222 895 c 128,-1,41
 258 868 258 868 287 850.5 c 128,-1,42
 316 833 316 833 338.5 811.5 c 128,-1,43
 361 790 361 790 361 771 c 0,44,45
 361 744 361 744 322 716 c 1,46,47
 285 743 285 743 223.5 774.5 c 128,-1,48
 162 806 162 806 130.5 828.5 c 128,-1,49
 99 851 99 851 99 877 c 0,50,51
 99 916 99 916 166 948 c 1,39,40
EndSplineSet
EndChar

StartChar: Aacute
Encoding: 193 193 128
Width: 614
GlyphClass: 2
Flags: W
LayerCount: 2
Fore
SplineSet
371 288 m 1,0,1
 355 343 355 343 333 429.5 c 128,-1,2
 311 516 311 516 307 530 c 1,3,4
 245 314 245 314 237 288 c 1,5,6
 285 286 285 286 313 286 c 0,7,8
 352 286 352 286 371 288 c 1,0,1
300 187 m 0,9,10
 259 187 259 187 211 191 c 1,11,12
 143 27 143 27 129 -18 c 1,13,14
 94 -13 94 -13 78 -10 c 128,-1,15
 62 -7 62 -7 41 0.5 c 128,-1,16
 20 8 20 8 12 20 c 128,-1,17
 4 32 4 32 4 50 c 0,18,19
 4 71 4 71 38.5 152 c 128,-1,20
 73 233 73 233 131 376 c 128,-1,21
 189 519 189 519 229 656 c 1,22,23
 276 663 276 663 306 663 c 0,24,25
 390 663 390 663 414 590 c 0,26,27
 488 362 488 362 520 280 c 0,28,29
 598 77 598 77 626 22 c 1,30,31
 579 -10 579 -10 533 -10 c 0,32,33
 474 -10 474 -10 457 28 c 0,34,35
 446 54 446 54 427.5 102 c 128,-1,36
 409 150 409 150 393 189 c 1,37,38
 315 187 315 187 300 187 c 0,9,10
465 822 m 0,39,40
 441 807 441 807 354 770.5 c 128,-1,41
 267 734 267 734 249 716 c 1,42,43
 214 744 214 744 214 767 c 0,44,45
 214 786 214 786 240 805.5 c 128,-1,46
 266 825 266 825 300 840 c 128,-1,47
 334 855 334 855 374.5 881.5 c 128,-1,48
 415 908 415 908 436 936 c 1,49,50
 489 907 489 907 489 867 c 0,51,52
 489 838 489 838 465 822 c 0,39,40
EndSplineSet
EndChar

StartChar: Acircumflex
Encoding: 194 194 129
Width: 614
GlyphClass: 2
Flags: W
LayerCount: 2
Fore
SplineSet
371 288 m 1,0,1
 355 343 355 343 333 429.5 c 128,-1,2
 311 516 311 516 307 530 c 1,3,4
 245 314 245 314 237 288 c 1,5,6
 285 286 285 286 313 286 c 0,7,8
 352 286 352 286 371 288 c 1,0,1
300 187 m 0,9,10
 259 187 259 187 211 191 c 1,11,12
 143 27 143 27 129 -18 c 1,13,14
 94 -13 94 -13 78 -10 c 128,-1,15
 62 -7 62 -7 41 0.5 c 128,-1,16
 20 8 20 8 12 20 c 128,-1,17
 4 32 4 32 4 50 c 0,18,19
 4 71 4 71 38.5 152 c 128,-1,20
 73 233 73 233 131 376 c 128,-1,21
 189 519 189 519 229 656 c 1,22,23
 276 663 276 663 306 663 c 0,24,25
 390 663 390 663 414 590 c 0,26,27
 488 362 488 362 520 280 c 0,28,29
 598 77 598 77 626 22 c 1,30,31
 579 -10 579 -10 533 -10 c 0,32,33
 474 -10 474 -10 457 28 c 0,34,35
 446 54 446 54 427.5 102 c 128,-1,36
 409 150 409 150 393 189 c 1,37,38
 315 187 315 187 300 187 c 0,9,10
296 912 m 1,39,40
 460 822 460 822 460 769 c 0,41,42
 460 752 460 752 442.5 735 c 128,-1,43
 425 718 425 718 398 712 c 1,44,45
 374 740 374 740 348 762 c 128,-1,46
 322 784 322 784 308 792 c 2,47,-1
 294 801 l 1,48,49
 195 720 195 720 171 720 c 0,50,51
 154 720 154 720 142.5 727.5 c 128,-1,52
 131 735 131 735 115 758 c 1,53,54
 197 847 197 847 296 912 c 1,39,40
EndSplineSet
EndChar

StartChar: Atilde
Encoding: 195 195 130
Width: 614
GlyphClass: 2
Flags: W
LayerCount: 2
Fore
SplineSet
371 288 m 1,0,1
 355 343 355 343 333 429.5 c 128,-1,2
 311 516 311 516 307 530 c 1,3,4
 245 314 245 314 237 288 c 1,5,6
 285 286 285 286 313 286 c 0,7,8
 352 286 352 286 371 288 c 1,0,1
300 187 m 0,9,10
 259 187 259 187 211 191 c 1,11,12
 143 27 143 27 129 -18 c 1,13,14
 94 -13 94 -13 78 -10 c 128,-1,15
 62 -7 62 -7 41 0.5 c 128,-1,16
 20 8 20 8 12 20 c 128,-1,17
 4 32 4 32 4 50 c 0,18,19
 4 71 4 71 38.5 152 c 128,-1,20
 73 233 73 233 131 376 c 128,-1,21
 189 519 189 519 229 656 c 1,22,23
 276 663 276 663 306 663 c 0,24,25
 390 663 390 663 414 590 c 0,26,27
 488 362 488 362 520 280 c 0,28,29
 598 77 598 77 626 22 c 1,30,31
 579 -10 579 -10 533 -10 c 0,32,33
 474 -10 474 -10 457 28 c 0,34,35
 446 54 446 54 427.5 102 c 128,-1,36
 409 150 409 150 393 189 c 1,37,38
 315 187 315 187 300 187 c 0,9,10
479 817 m 0,39,40
 479 782 479 782 439 749.5 c 128,-1,41
 399 717 399 717 351 717 c 0,42,43
 327 717 327 717 283 738.5 c 128,-1,44
 239 760 239 760 222 760 c 0,45,46
 200 760 200 760 154 720 c 1,47,48
 115 734 115 734 115 761 c 0,49,50
 115 795 115 795 155.5 828 c 128,-1,51
 196 861 196 861 243 861 c 0,52,53
 267 861 267 861 311.5 839.5 c 128,-1,54
 356 818 356 818 373 818 c 0,55,56
 396 818 396 818 440 858 c 1,57,58
 453 856 453 856 466 844.5 c 128,-1,59
 479 833 479 833 479 817 c 0,39,40
EndSplineSet
EndChar

StartChar: Adieresis
Encoding: 196 196 131
Width: 614
GlyphClass: 2
Flags: W
LayerCount: 2
Fore
SplineSet
371 288 m 1,0,1
 355 343 355 343 333 429.5 c 128,-1,2
 311 516 311 516 307 530 c 1,3,4
 245 314 245 314 237 288 c 1,5,6
 285 286 285 286 313 286 c 0,7,8
 352 286 352 286 371 288 c 1,0,1
300 187 m 0,9,10
 259 187 259 187 211 191 c 1,11,12
 143 27 143 27 129 -18 c 1,13,14
 94 -13 94 -13 78 -10 c 128,-1,15
 62 -7 62 -7 41 0.5 c 128,-1,16
 20 8 20 8 12 20 c 128,-1,17
 4 32 4 32 4 50 c 0,18,19
 4 71 4 71 38.5 152 c 128,-1,20
 73 233 73 233 131 376 c 128,-1,21
 189 519 189 519 229 656 c 1,22,23
 276 663 276 663 306 663 c 0,24,25
 390 663 390 663 414 590 c 0,26,27
 488 362 488 362 520 280 c 0,28,29
 598 77 598 77 626 22 c 1,30,31
 579 -10 579 -10 533 -10 c 0,32,33
 474 -10 474 -10 457 28 c 0,34,35
 446 54 446 54 427.5 102 c 128,-1,36
 409 150 409 150 393 189 c 1,37,38
 315 187 315 187 300 187 c 0,9,10
405 713 m 0,39,40
 367 713 367 713 340.5 739.5 c 128,-1,41
 314 766 314 766 314 807 c 0,42,43
 314 846 314 846 342 873 c 128,-1,44
 370 900 370 900 407 900 c 128,-1,45
 444 900 444 900 470.5 873 c 128,-1,46
 497 846 497 846 497 807 c 0,47,48
 497 766 497 766 469 739.5 c 128,-1,49
 441 713 441 713 405 713 c 0,39,40
176 713 m 0,50,51
 138 713 138 713 111.5 739.5 c 128,-1,52
 85 766 85 766 85 807 c 0,53,54
 85 846 85 846 113 873 c 128,-1,55
 141 900 141 900 178 900 c 128,-1,56
 215 900 215 900 241.5 873 c 128,-1,57
 268 846 268 846 268 807 c 0,58,59
 268 766 268 766 240 739.5 c 128,-1,60
 212 713 212 713 176 713 c 0,50,51
EndSplineSet
EndChar

StartChar: Aring
Encoding: 197 197 132
Width: 614
GlyphClass: 2
Flags: W
LayerCount: 2
Fore
SplineSet
371 288 m 1,0,1
 355 343 355 343 333 429.5 c 128,-1,2
 311 516 311 516 307 530 c 1,3,4
 245 314 245 314 237 288 c 1,5,6
 285 286 285 286 313 286 c 0,7,8
 352 286 352 286 371 288 c 1,0,1
300 187 m 0,9,10
 259 187 259 187 211 191 c 1,11,12
 143 27 143 27 129 -18 c 1,13,14
 94 -13 94 -13 78 -10 c 128,-1,15
 62 -7 62 -7 41 0.5 c 128,-1,16
 20 8 20 8 12 20 c 128,-1,17
 4 32 4 32 4 50 c 0,18,19
 4 71 4 71 38.5 152 c 128,-1,20
 73 233 73 233 131 376 c 128,-1,21
 189 519 189 519 229 656 c 1,22,23
 276 663 276 663 306 663 c 0,24,25
 390 663 390 663 414 590 c 0,26,27
 488 362 488 362 520 280 c 0,28,29
 598 77 598 77 626 22 c 1,30,31
 579 -10 579 -10 533 -10 c 0,32,33
 474 -10 474 -10 457 28 c 0,34,35
 446 54 446 54 427.5 102 c 128,-1,36
 409 150 409 150 393 189 c 1,37,38
 315 187 315 187 300 187 c 0,9,10
296 733 m 0,39,40
 245 733 245 733 212.5 765 c 128,-1,41
 180 797 180 797 180 849 c 0,42,43
 180 902 180 902 212.5 934 c 128,-1,44
 245 966 245 966 296 966 c 0,45,46
 348 966 348 966 379.5 934 c 128,-1,47
 411 902 411 902 411 849 c 0,48,49
 411 797 411 797 379.5 765 c 128,-1,50
 348 733 348 733 296 733 c 0,39,40
350 844 m 0,51,52
 350 875 350 875 335 895.5 c 128,-1,53
 320 916 320 916 296 916 c 0,54,55
 271 916 271 916 256 899 c 128,-1,56
 241 882 241 882 241 854 c 0,57,58
 241 823 241 823 256 803 c 128,-1,59
 271 783 271 783 296 783 c 0,60,61
 322 783 322 783 336 799.5 c 128,-1,62
 350 816 350 816 350 844 c 0,51,52
EndSplineSet
EndChar

StartChar: AE
Encoding: 198 198 133
Width: 816
GlyphClass: 2
Flags: W
LayerCount: 2
Fore
SplineSet
260 288 m 1,0,1
 312 286 312 286 340 286 c 1,2,-1
 340 482 l 1,3,4
 338 478 338 478 260 288 c 1,0,1
491 561 m 1,5,6
 495 529 495 529 495 407 c 1,7,-1
 574 407 l 2,8,9
 638 407 638 407 692 413 c 1,10,11
 698 400 698 400 698 371 c 0,12,13
 698 334 698 334 681 319.5 c 128,-1,14
 664 305 664 305 620 305 c 2,15,-1
 495 305 l 1,16,17
 495 136 495 136 503 102 c 1,18,19
 547 100 547 100 574 100 c 0,20,21
 737 100 737 100 784 123 c 1,22,23
 796 93 796 93 796 54 c 0,24,25
 796 20 796 20 769.5 9 c 128,-1,26
 743 -2 743 -2 664 -2 c 0,27,28
 425 -2 425 -2 387 0 c 0,29,30
 358 1 358 1 348 14 c 128,-1,31
 338 27 338 27 338 57 c 0,32,33
 338 71 338 71 340 187 c 1,34,-1
 312 187 l 2,35,36
 296 187 296 187 228 189 c 1,37,38
 145 45 145 45 122 -10 c 1,39,40
 50 -2 50 -2 25 13 c 128,-1,41
 0 28 0 28 0 54 c 0,42,43
 0 69 0 69 15 99.5 c 128,-1,44
 30 130 30 130 70 200 c 128,-1,45
 110 270 110 270 137 321 c 0,46,47
 237 511 237 511 296 654 c 1,48,49
 416 666 416 666 590 666 c 0,50,51
 734 666 734 666 777 650 c 0,52,53
 796 643 796 643 796 610 c 0,54,55
 796 571 796 571 784 542 c 1,56,57
 718 563 718 563 561 563 c 0,58,59
 541 563 541 563 491 561 c 1,5,6
EndSplineSet
EndChar

StartChar: Ccedilla
Encoding: 199 199 134
Width: 629
GlyphClass: 2
Flags: W
LayerCount: 2
Fore
SplineSet
525 177 m 1,0,1
 601 142 601 142 601 95 c 0,2,3
 601 66 601 66 576.5 44 c 128,-1,4
 552 22 552 22 515.5 11 c 128,-1,5
 479 0 479 0 446 -5 c 128,-1,6
 413 -10 413 -10 386 -10 c 0,7,8
 373 -10 373 -10 347 -8 c 1,9,10
 342 -23 342 -23 342 -30 c 0,11,12
 342 -41 342 -41 356 -51 c 128,-1,13
 370 -61 370 -61 386.5 -70 c 128,-1,14
 403 -79 403 -79 417 -98.5 c 128,-1,15
 431 -118 431 -118 431 -144 c 0,16,17
 431 -183 431 -183 384.5 -217.5 c 128,-1,18
 338 -252 338 -252 271 -252 c 0,19,20
 236 -252 236 -252 218.5 -239 c 128,-1,21
 201 -226 201 -226 201 -207 c 0,22,23
 201 -180 201 -180 226 -153 c 1,24,25
 239 -166 239 -166 260 -166 c 0,26,27
 290 -166 290 -166 290 -128 c 0,28,29
 290 -108 290 -108 267.5 -90 c 128,-1,30
 245 -72 245 -72 245 -54 c 0,31,32
 245 -34 245 -34 262 7 c 1,33,34
 160 36 160 36 96 116 c 128,-1,35
 32 196 32 196 32 332 c 0,36,37
 32 492 32 492 127 582.5 c 128,-1,38
 222 673 222 673 385 673 c 0,39,40
 472 673 472 673 531.5 641.5 c 128,-1,41
 591 610 591 610 591 564 c 0,42,43
 591 529 591 529 562 507 c 128,-1,44
 533 485 533 485 485 479 c 1,45,46
 468 525 468 525 431 548.5 c 128,-1,47
 394 572 394 572 352 572 c 0,48,49
 283 572 283 572 238.5 509 c 128,-1,50
 194 446 194 446 194 352 c 0,51,52
 194 241 194 241 239.5 166 c 128,-1,53
 285 91 285 91 367 91 c 0,54,55
 413 91 413 91 455.5 112 c 128,-1,56
 498 133 498 133 525 177 c 1,0,1
EndSplineSet
EndChar

StartChar: Egrave
Encoding: 200 200 135
Width: 532
GlyphClass: 2
Flags: W
LayerCount: 2
Fore
SplineSet
207 561 m 1,0,1
 211 529 211 529 211 407 c 1,2,-1
 290 407 l 2,3,4
 354 407 354 407 408 413 c 1,5,6
 414 400 414 400 414 371 c 0,7,8
 414 334 414 334 397 319.5 c 128,-1,9
 380 305 380 305 336 305 c 2,10,-1
 211 305 l 1,11,12
 211 136 211 136 219 102 c 1,13,14
 263 100 263 100 290 100 c 0,15,16
 453 100 453 100 500 123 c 1,17,18
 512 93 512 93 512 54 c 0,19,20
 512 20 512 20 485.5 9 c 128,-1,21
 459 -2 459 -2 380 -2 c 0,22,23
 141 -2 141 -2 103 0 c 0,24,25
 74 1 74 1 64 14 c 128,-1,26
 54 27 54 27 54 57 c 0,27,28
 54 73 54 73 55 131 c 128,-1,29
 56 189 56 189 56 224 c 2,30,-1
 56 424 l 2,31,32
 56 565 56 565 43 657 c 1,33,34
 172 666 172 666 306 666 c 0,35,36
 450 666 450 666 493 650 c 0,37,38
 512 643 512 643 512 610 c 0,39,40
 512 571 512 571 500 542 c 1,41,42
 434 563 434 563 277 563 c 0,43,44
 257 563 257 563 207 561 c 1,0,1
147 948 m 1,45,46
 167 922 167 922 203 895 c 128,-1,47
 239 868 239 868 268 850.5 c 128,-1,48
 297 833 297 833 319.5 811.5 c 128,-1,49
 342 790 342 790 342 771 c 0,50,51
 342 744 342 744 303 716 c 1,52,53
 266 743 266 743 204.5 774.5 c 128,-1,54
 143 806 143 806 111.5 828.5 c 128,-1,55
 80 851 80 851 80 877 c 0,56,57
 80 916 80 916 147 948 c 1,45,46
EndSplineSet
EndChar

StartChar: Eacute
Encoding: 201 201 136
Width: 532
GlyphClass: 2
Flags: W
LayerCount: 2
Fore
SplineSet
207 561 m 1,0,1
 211 529 211 529 211 407 c 1,2,-1
 290 407 l 2,3,4
 354 407 354 407 408 413 c 1,5,6
 414 400 414 400 414 371 c 0,7,8
 414 334 414 334 397 319.5 c 128,-1,9
 380 305 380 305 336 305 c 2,10,-1
 211 305 l 1,11,12
 211 136 211 136 219 102 c 1,13,14
 263 100 263 100 290 100 c 0,15,16
 453 100 453 100 500 123 c 1,17,18
 512 93 512 93 512 54 c 0,19,20
 512 20 512 20 485.5 9 c 128,-1,21
 459 -2 459 -2 380 -2 c 0,22,23
 141 -2 141 -2 103 0 c 0,24,25
 74 1 74 1 64 14 c 128,-1,26
 54 27 54 27 54 57 c 0,27,28
 54 73 54 73 55 131 c 128,-1,29
 56 189 56 189 56 224 c 2,30,-1
 56 424 l 2,31,32
 56 565 56 565 43 657 c 1,33,34
 172 666 172 666 306 666 c 0,35,36
 450 666 450 666 493 650 c 0,37,38
 512 643 512 643 512 610 c 0,39,40
 512 571 512 571 500 542 c 1,41,42
 434 563 434 563 277 563 c 0,43,44
 257 563 257 563 207 561 c 1,0,1
446 822 m 0,45,46
 422 807 422 807 335 770.5 c 128,-1,47
 248 734 248 734 230 716 c 1,48,49
 195 744 195 744 195 767 c 0,50,51
 195 786 195 786 221 805.5 c 128,-1,52
 247 825 247 825 281 840 c 128,-1,53
 315 855 315 855 355.5 881.5 c 128,-1,54
 396 908 396 908 417 936 c 1,55,56
 470 907 470 907 470 867 c 0,57,58
 470 838 470 838 446 822 c 0,45,46
EndSplineSet
EndChar

StartChar: Ecircumflex
Encoding: 202 202 137
Width: 532
GlyphClass: 2
Flags: W
LayerCount: 2
Fore
SplineSet
207 561 m 1,0,1
 211 529 211 529 211 407 c 1,2,-1
 290 407 l 2,3,4
 354 407 354 407 408 413 c 1,5,6
 414 400 414 400 414 371 c 0,7,8
 414 334 414 334 397 319.5 c 128,-1,9
 380 305 380 305 336 305 c 2,10,-1
 211 305 l 1,11,12
 211 136 211 136 219 102 c 1,13,14
 263 100 263 100 290 100 c 0,15,16
 453 100 453 100 500 123 c 1,17,18
 512 93 512 93 512 54 c 0,19,20
 512 20 512 20 485.5 9 c 128,-1,21
 459 -2 459 -2 380 -2 c 0,22,23
 141 -2 141 -2 103 0 c 0,24,25
 74 1 74 1 64 14 c 128,-1,26
 54 27 54 27 54 57 c 0,27,28
 54 73 54 73 55 131 c 128,-1,29
 56 189 56 189 56 224 c 2,30,-1
 56 424 l 2,31,32
 56 565 56 565 43 657 c 1,33,34
 172 666 172 666 306 666 c 0,35,36
 450 666 450 666 493 650 c 0,37,38
 512 643 512 643 512 610 c 0,39,40
 512 571 512 571 500 542 c 1,41,42
 434 563 434 563 277 563 c 0,43,44
 257 563 257 563 207 561 c 1,0,1
277 912 m 1,45,46
 441 822 441 822 441 769 c 0,47,48
 441 752 441 752 423.5 735 c 128,-1,49
 406 718 406 718 379 712 c 1,50,51
 355 740 355 740 329 762 c 128,-1,52
 303 784 303 784 289 792 c 2,53,-1
 275 801 l 1,54,55
 176 720 176 720 152 720 c 0,56,57
 135 720 135 720 123.5 727.5 c 128,-1,58
 112 735 112 735 96 758 c 1,59,60
 178 847 178 847 277 912 c 1,45,46
EndSplineSet
EndChar

StartChar: Edieresis
Encoding: 203 203 138
Width: 532
GlyphClass: 2
Flags: W
LayerCount: 2
Fore
SplineSet
207 561 m 1,0,1
 211 529 211 529 211 407 c 1,2,-1
 290 407 l 2,3,4
 354 407 354 407 408 413 c 1,5,6
 414 400 414 400 414 371 c 0,7,8
 414 334 414 334 397 319.5 c 128,-1,9
 380 305 380 305 336 305 c 2,10,-1
 211 305 l 1,11,12
 211 136 211 136 219 102 c 1,13,14
 263 100 263 100 290 100 c 0,15,16
 453 100 453 100 500 123 c 1,17,18
 512 93 512 93 512 54 c 0,19,20
 512 20 512 20 485.5 9 c 128,-1,21
 459 -2 459 -2 380 -2 c 0,22,23
 141 -2 141 -2 103 0 c 0,24,25
 74 1 74 1 64 14 c 128,-1,26
 54 27 54 27 54 57 c 0,27,28
 54 73 54 73 55 131 c 128,-1,29
 56 189 56 189 56 224 c 2,30,-1
 56 424 l 2,31,32
 56 565 56 565 43 657 c 1,33,34
 172 666 172 666 306 666 c 0,35,36
 450 666 450 666 493 650 c 0,37,38
 512 643 512 643 512 610 c 0,39,40
 512 571 512 571 500 542 c 1,41,42
 434 563 434 563 277 563 c 0,43,44
 257 563 257 563 207 561 c 1,0,1
386 713 m 0,45,46
 348 713 348 713 321.5 739.5 c 128,-1,47
 295 766 295 766 295 807 c 0,48,49
 295 846 295 846 323 873 c 128,-1,50
 351 900 351 900 388 900 c 128,-1,51
 425 900 425 900 451.5 873 c 128,-1,52
 478 846 478 846 478 807 c 0,53,54
 478 766 478 766 450 739.5 c 128,-1,55
 422 713 422 713 386 713 c 0,45,46
157 713 m 0,56,57
 119 713 119 713 92.5 739.5 c 128,-1,58
 66 766 66 766 66 807 c 0,59,60
 66 846 66 846 94 873 c 128,-1,61
 122 900 122 900 159 900 c 128,-1,62
 196 900 196 900 222.5 873 c 128,-1,63
 249 846 249 846 249 807 c 0,64,65
 249 766 249 766 221 739.5 c 128,-1,66
 193 713 193 713 157 713 c 0,56,57
EndSplineSet
EndChar

StartChar: Igrave
Encoding: 204 204 139
Width: 258
GlyphClass: 2
Flags: W
LayerCount: 2
Fore
SplineSet
52 231 m 2,0,-1
 52 431 l 2,1,2
 52 541 52 541 43 658 c 1,3,4
 81 666 81 666 122 666 c 0,5,6
 160 666 160 666 186.5 652.5 c 128,-1,7
 213 639 213 639 213 611 c 0,8,9
 213 606 213 606 209.5 530.5 c 128,-1,10
 206 455 206 455 206 404 c 2,11,-1
 206 203 l 2,12,13
 206 91 206 91 230 11 c 1,14,15
 193 -3 193 -3 139 -3 c 0,16,17
 119 -3 119 -3 106 -0.5 c 128,-1,18
 93 2 93 2 78.5 9.5 c 128,-1,19
 64 17 64 17 57 35.5 c 128,-1,20
 50 54 50 54 50 83 c 0,21,22
 50 102 50 102 51 154.5 c 128,-1,23
 52 207 52 207 52 231 c 2,0,-1
5 948 m 1,24,25
 25 922 25 922 61 895 c 128,-1,26
 97 868 97 868 126 850.5 c 128,-1,27
 155 833 155 833 177.5 811.5 c 128,-1,28
 200 790 200 790 200 771 c 0,29,30
 200 744 200 744 161 716 c 1,31,32
 124 743 124 743 62.5 774.5 c 128,-1,33
 1 806 1 806 -30.5 828.5 c 128,-1,34
 -62 851 -62 851 -62 877 c 0,35,36
 -62 916 -62 916 5 948 c 1,24,25
EndSplineSet
EndChar

StartChar: Iacute
Encoding: 205 205 140
Width: 258
GlyphClass: 2
Flags: W
LayerCount: 2
Fore
SplineSet
52 231 m 2,0,-1
 52 431 l 2,1,2
 52 541 52 541 43 658 c 1,3,4
 81 666 81 666 122 666 c 0,5,6
 160 666 160 666 186.5 652.5 c 128,-1,7
 213 639 213 639 213 611 c 0,8,9
 213 606 213 606 209.5 530.5 c 128,-1,10
 206 455 206 455 206 404 c 2,11,-1
 206 203 l 2,12,13
 206 91 206 91 230 11 c 1,14,15
 193 -3 193 -3 139 -3 c 0,16,17
 119 -3 119 -3 106 -0.5 c 128,-1,18
 93 2 93 2 78.5 9.5 c 128,-1,19
 64 17 64 17 57 35.5 c 128,-1,20
 50 54 50 54 50 83 c 0,21,22
 50 102 50 102 51 154.5 c 128,-1,23
 52 207 52 207 52 231 c 2,0,-1
304 822 m 0,24,25
 280 807 280 807 193 770.5 c 128,-1,26
 106 734 106 734 88 716 c 1,27,28
 53 744 53 744 53 767 c 0,29,30
 53 786 53 786 79 805.5 c 128,-1,31
 105 825 105 825 139 840 c 128,-1,32
 173 855 173 855 213.5 881.5 c 128,-1,33
 254 908 254 908 275 936 c 1,34,35
 328 907 328 907 328 867 c 0,36,37
 328 838 328 838 304 822 c 0,24,25
EndSplineSet
EndChar

StartChar: Icircumflex
Encoding: 206 206 141
Width: 258
GlyphClass: 2
Flags: W
LayerCount: 2
Fore
SplineSet
52 231 m 2,0,-1
 52 431 l 2,1,2
 52 541 52 541 43 658 c 1,3,4
 81 666 81 666 122 666 c 0,5,6
 160 666 160 666 186.5 652.5 c 128,-1,7
 213 639 213 639 213 611 c 0,8,9
 213 606 213 606 209.5 530.5 c 128,-1,10
 206 455 206 455 206 404 c 2,11,-1
 206 203 l 2,12,13
 206 91 206 91 230 11 c 1,14,15
 193 -3 193 -3 139 -3 c 0,16,17
 119 -3 119 -3 106 -0.5 c 128,-1,18
 93 2 93 2 78.5 9.5 c 128,-1,19
 64 17 64 17 57 35.5 c 128,-1,20
 50 54 50 54 50 83 c 0,21,22
 50 102 50 102 51 154.5 c 128,-1,23
 52 207 52 207 52 231 c 2,0,-1
135 912 m 1,24,25
 299 822 299 822 299 769 c 0,26,27
 299 752 299 752 281.5 735 c 128,-1,28
 264 718 264 718 237 712 c 1,29,30
 213 740 213 740 187 762 c 128,-1,31
 161 784 161 784 147 792 c 2,32,-1
 133 801 l 1,33,34
 34 720 34 720 10 720 c 0,35,36
 -7 720 -7 720 -18.5 727.5 c 128,-1,37
 -30 735 -30 735 -46 758 c 1,38,39
 36 847 36 847 135 912 c 1,24,25
EndSplineSet
EndChar

StartChar: Idieresis
Encoding: 207 207 142
Width: 258
GlyphClass: 2
Flags: W
LayerCount: 2
Fore
SplineSet
52 231 m 2,0,-1
 52 431 l 2,1,2
 52 541 52 541 43 658 c 1,3,4
 81 666 81 666 122 666 c 0,5,6
 160 666 160 666 186.5 652.5 c 128,-1,7
 213 639 213 639 213 611 c 0,8,9
 213 606 213 606 209.5 530.5 c 128,-1,10
 206 455 206 455 206 404 c 2,11,-1
 206 203 l 2,12,13
 206 91 206 91 230 11 c 1,14,15
 193 -3 193 -3 139 -3 c 0,16,17
 119 -3 119 -3 106 -0.5 c 128,-1,18
 93 2 93 2 78.5 9.5 c 128,-1,19
 64 17 64 17 57 35.5 c 128,-1,20
 50 54 50 54 50 83 c 0,21,22
 50 102 50 102 51 154.5 c 128,-1,23
 52 207 52 207 52 231 c 2,0,-1
15 713 m 0,24,25
 -23 713 -23 713 -49.5 739.5 c 128,-1,26
 -76 766 -76 766 -76 807 c 0,27,28
 -76 846 -76 846 -48 873 c 128,-1,29
 -20 900 -20 900 17 900 c 128,-1,30
 54 900 54 900 80.5 873 c 128,-1,31
 107 846 107 846 107 807 c 0,32,33
 107 766 107 766 79 739.5 c 128,-1,34
 51 713 51 713 15 713 c 0,24,25
244 713 m 0,35,36
 206 713 206 713 179.5 739.5 c 128,-1,37
 153 766 153 766 153 807 c 0,38,39
 153 846 153 846 181 873 c 128,-1,40
 209 900 209 900 246 900 c 128,-1,41
 283 900 283 900 309.5 873 c 128,-1,42
 336 846 336 846 336 807 c 0,43,44
 336 766 336 766 308 739.5 c 128,-1,45
 280 713 280 713 244 713 c 0,35,36
EndSplineSet
EndChar

StartChar: Eth
Encoding: 208 208 143
Width: 689
GlyphClass: 2
Flags: W
LayerCount: 2
Fore
SplineSet
73 53 m 1,0,1
 83 131 83 131 87 305 c 1,2,3
 41 304 41 304 -4 299 c 1,4,5
 -10 312 -10 312 -10 341 c 0,6,7
 -10 378 -10 378 7 392.5 c 128,-1,8
 24 407 24 407 68 407 c 2,9,-1
 88 407 l 1,10,11
 88 562 88 562 75 661 c 1,12,13
 144 673 144 673 249 673 c 0,14,15
 336 673 336 673 406.5 656 c 128,-1,16
 477 639 477 639 535 601.5 c 128,-1,17
 593 564 593 564 625 496 c 128,-1,18
 657 428 657 428 657 333 c 0,19,20
 657 183 657 183 567 86.5 c 128,-1,21
 477 -10 477 -10 311 -10 c 0,22,23
 158 -10 158 -10 73 53 c 1,0,1
239 570 m 1,24,25
 243 511 243 511 243 430 c 2,26,-1
 243 407 l 1,27,-1
 261 407 l 2,28,29
 325 407 325 407 379 413 c 1,30,31
 385 400 385 400 385 371 c 0,32,33
 385 334 385 334 368 319.5 c 128,-1,34
 351 305 351 305 307 305 c 2,35,-1
 241 305 l 1,36,37
 238 200 238 200 229 119 c 1,38,39
 284 91 284 91 332 91 c 0,40,41
 410 91 410 91 451.5 154.5 c 128,-1,42
 493 218 493 218 493 313 c 0,43,44
 493 442 493 442 439.5 507.5 c 128,-1,45
 386 573 386 573 286 573 c 0,46,47
 262 573 262 573 239 570 c 1,24,25
EndSplineSet
EndChar

StartChar: Ntilde
Encoding: 209 209 144
Width: 652
GlyphClass: 2
Flags: W
LayerCount: 2
Fore
SplineSet
608 4 m 1,0,1
 576 -3 576 -3 546 -3 c 0,2,3
 461 -3 461 -3 431 44 c 0,4,5
 392 105 392 105 342 194 c 0,6,7
 250 359 250 359 205 431 c 1,8,-1
 205 203 l 2,9,10
 205 76 205 76 226 10 c 1,11,12
 197 -3 197 -3 151 -3 c 0,13,14
 101 -3 101 -3 80 11.5 c 128,-1,15
 59 26 59 26 59 66 c 0,16,17
 59 82 59 82 60.5 139 c 128,-1,18
 62 196 62 196 62 231 c 2,19,-1
 62 431 l 2,20,21
 62 592 62 592 43 653 c 1,22,23
 91 667 91 667 130 667 c 0,24,25
 202 667 202 667 238 623 c 0,26,27
 311 532 311 532 457 275 c 1,28,-1
 456 431 l 2,29,30
 456 568 456 568 449 659 c 1,31,32
 491 666 491 666 511 666 c 0,33,34
 609 666 609 666 609 608 c 0,35,36
 609 604 609 604 605 523.5 c 128,-1,37
 601 443 601 443 601 404 c 2,38,-1
 601 233 l 2,39,40
 601 95 601 95 608 4 c 1,0,1
515 817 m 0,41,42
 515 782 515 782 475 749.5 c 128,-1,43
 435 717 435 717 387 717 c 0,44,45
 363 717 363 717 319 738.5 c 128,-1,46
 275 760 275 760 258 760 c 0,47,48
 236 760 236 760 190 720 c 1,49,50
 151 734 151 734 151 761 c 0,51,52
 151 795 151 795 191.5 828 c 128,-1,53
 232 861 232 861 279 861 c 0,54,55
 303 861 303 861 347.5 839.5 c 128,-1,56
 392 818 392 818 409 818 c 0,57,58
 432 818 432 818 476 858 c 1,59,60
 489 856 489 856 502 844.5 c 128,-1,61
 515 833 515 833 515 817 c 0,41,42
EndSplineSet
EndChar

StartChar: Ograve
Encoding: 210 210 145
Width: 728
GlyphClass: 2
Flags: W
LayerCount: 2
Fore
SplineSet
363 -10 m 0,0,1
 212 -10 212 -10 122 83 c 128,-1,2
 32 176 32 176 32 331 c 0,3,4
 32 488 32 488 121.5 580.5 c 128,-1,5
 211 673 211 673 363 673 c 0,6,7
 516 673 516 673 606 580.5 c 128,-1,8
 696 488 696 488 696 331 c 0,9,10
 696 176 696 176 605.5 83 c 128,-1,11
 515 -10 515 -10 363 -10 c 0,0,1
532 313 m 0,12,13
 532 379 532 379 516.5 435 c 128,-1,14
 501 491 501 491 461.5 531.5 c 128,-1,15
 422 572 422 572 364 572 c 0,16,17
 286 572 286 572 240 513 c 128,-1,18
 194 454 194 454 194 362 c 0,19,20
 194 292 194 292 209.5 233.5 c 128,-1,21
 225 175 225 175 264.5 133 c 128,-1,22
 304 91 304 91 362 91 c 0,23,24
 443 91 443 91 487.5 152.5 c 128,-1,25
 532 214 532 214 532 313 c 0,12,13
234 948 m 1,26,27
 254 922 254 922 290 895 c 128,-1,28
 326 868 326 868 355 850.5 c 128,-1,29
 384 833 384 833 406.5 811.5 c 128,-1,30
 429 790 429 790 429 771 c 0,31,32
 429 744 429 744 390 716 c 1,33,34
 353 743 353 743 291.5 774.5 c 128,-1,35
 230 806 230 806 198.5 828.5 c 128,-1,36
 167 851 167 851 167 877 c 0,37,38
 167 916 167 916 234 948 c 1,26,27
EndSplineSet
EndChar

StartChar: Oacute
Encoding: 211 211 146
Width: 728
GlyphClass: 2
Flags: W
LayerCount: 2
Fore
SplineSet
363 -10 m 0,0,1
 212 -10 212 -10 122 83 c 128,-1,2
 32 176 32 176 32 331 c 0,3,4
 32 488 32 488 121.5 580.5 c 128,-1,5
 211 673 211 673 363 673 c 0,6,7
 516 673 516 673 606 580.5 c 128,-1,8
 696 488 696 488 696 331 c 0,9,10
 696 176 696 176 605.5 83 c 128,-1,11
 515 -10 515 -10 363 -10 c 0,0,1
532 313 m 0,12,13
 532 379 532 379 516.5 435 c 128,-1,14
 501 491 501 491 461.5 531.5 c 128,-1,15
 422 572 422 572 364 572 c 0,16,17
 286 572 286 572 240 513 c 128,-1,18
 194 454 194 454 194 362 c 0,19,20
 194 292 194 292 209.5 233.5 c 128,-1,21
 225 175 225 175 264.5 133 c 128,-1,22
 304 91 304 91 362 91 c 0,23,24
 443 91 443 91 487.5 152.5 c 128,-1,25
 532 214 532 214 532 313 c 0,12,13
533 822 m 0,26,27
 509 807 509 807 422 770.5 c 128,-1,28
 335 734 335 734 317 716 c 1,29,30
 282 744 282 744 282 767 c 0,31,32
 282 786 282 786 308 805.5 c 128,-1,33
 334 825 334 825 368 840 c 128,-1,34
 402 855 402 855 442.5 881.5 c 128,-1,35
 483 908 483 908 504 936 c 1,36,37
 557 907 557 907 557 867 c 0,38,39
 557 838 557 838 533 822 c 0,26,27
EndSplineSet
EndChar

StartChar: Ocircumflex
Encoding: 212 212 147
Width: 728
GlyphClass: 2
Flags: W
LayerCount: 2
Fore
SplineSet
363 -10 m 0,0,1
 212 -10 212 -10 122 83 c 128,-1,2
 32 176 32 176 32 331 c 0,3,4
 32 488 32 488 121.5 580.5 c 128,-1,5
 211 673 211 673 363 673 c 0,6,7
 516 673 516 673 606 580.5 c 128,-1,8
 696 488 696 488 696 331 c 0,9,10
 696 176 696 176 605.5 83 c 128,-1,11
 515 -10 515 -10 363 -10 c 0,0,1
532 313 m 0,12,13
 532 379 532 379 516.5 435 c 128,-1,14
 501 491 501 491 461.5 531.5 c 128,-1,15
 422 572 422 572 364 572 c 0,16,17
 286 572 286 572 240 513 c 128,-1,18
 194 454 194 454 194 362 c 0,19,20
 194 292 194 292 209.5 233.5 c 128,-1,21
 225 175 225 175 264.5 133 c 128,-1,22
 304 91 304 91 362 91 c 0,23,24
 443 91 443 91 487.5 152.5 c 128,-1,25
 532 214 532 214 532 313 c 0,12,13
364 912 m 1,26,27
 528 822 528 822 528 769 c 0,28,29
 528 752 528 752 510.5 735 c 128,-1,30
 493 718 493 718 466 712 c 1,31,32
 442 740 442 740 416 762 c 128,-1,33
 390 784 390 784 376 792 c 2,34,-1
 362 801 l 1,35,36
 263 720 263 720 239 720 c 0,37,38
 222 720 222 720 210.5 727.5 c 128,-1,39
 199 735 199 735 183 758 c 1,40,41
 265 847 265 847 364 912 c 1,26,27
EndSplineSet
EndChar

StartChar: Otilde
Encoding: 213 213 148
Width: 728
GlyphClass: 2
Flags: W
LayerCount: 2
Fore
SplineSet
363 -10 m 0,0,1
 212 -10 212 -10 122 83 c 128,-1,2
 32 176 32 176 32 331 c 0,3,4
 32 488 32 488 121.5 580.5 c 128,-1,5
 211 673 211 673 363 673 c 0,6,7
 516 673 516 673 606 580.5 c 128,-1,8
 696 488 696 488 696 331 c 0,9,10
 696 176 696 176 605.5 83 c 128,-1,11
 515 -10 515 -10 363 -10 c 0,0,1
532 313 m 0,12,13
 532 379 532 379 516.5 435 c 128,-1,14
 501 491 501 491 461.5 531.5 c 128,-1,15
 422 572 422 572 364 572 c 0,16,17
 286 572 286 572 240 513 c 128,-1,18
 194 454 194 454 194 362 c 0,19,20
 194 292 194 292 209.5 233.5 c 128,-1,21
 225 175 225 175 264.5 133 c 128,-1,22
 304 91 304 91 362 91 c 0,23,24
 443 91 443 91 487.5 152.5 c 128,-1,25
 532 214 532 214 532 313 c 0,12,13
547 817 m 0,26,27
 547 782 547 782 507 749.5 c 128,-1,28
 467 717 467 717 419 717 c 0,29,30
 395 717 395 717 351 738.5 c 128,-1,31
 307 760 307 760 290 760 c 0,32,33
 268 760 268 760 222 720 c 1,34,35
 183 734 183 734 183 761 c 0,36,37
 183 795 183 795 223.5 828 c 128,-1,38
 264 861 264 861 311 861 c 0,39,40
 335 861 335 861 379.5 839.5 c 128,-1,41
 424 818 424 818 441 818 c 0,42,43
 464 818 464 818 508 858 c 1,44,45
 521 856 521 856 534 844.5 c 128,-1,46
 547 833 547 833 547 817 c 0,26,27
EndSplineSet
EndChar

StartChar: Odieresis
Encoding: 214 214 149
Width: 728
GlyphClass: 2
Flags: W
LayerCount: 2
Fore
SplineSet
363 -10 m 0,0,1
 212 -10 212 -10 122 83 c 128,-1,2
 32 176 32 176 32 331 c 0,3,4
 32 488 32 488 121.5 580.5 c 128,-1,5
 211 673 211 673 363 673 c 0,6,7
 516 673 516 673 606 580.5 c 128,-1,8
 696 488 696 488 696 331 c 0,9,10
 696 176 696 176 605.5 83 c 128,-1,11
 515 -10 515 -10 363 -10 c 0,0,1
532 313 m 0,12,13
 532 379 532 379 516.5 435 c 128,-1,14
 501 491 501 491 461.5 531.5 c 128,-1,15
 422 572 422 572 364 572 c 0,16,17
 286 572 286 572 240 513 c 128,-1,18
 194 454 194 454 194 362 c 0,19,20
 194 292 194 292 209.5 233.5 c 128,-1,21
 225 175 225 175 264.5 133 c 128,-1,22
 304 91 304 91 362 91 c 0,23,24
 443 91 443 91 487.5 152.5 c 128,-1,25
 532 214 532 214 532 313 c 0,12,13
473 713 m 0,26,27
 435 713 435 713 408.5 739.5 c 128,-1,28
 382 766 382 766 382 807 c 0,29,30
 382 846 382 846 410 873 c 128,-1,31
 438 900 438 900 475 900 c 128,-1,32
 512 900 512 900 538.5 873 c 128,-1,33
 565 846 565 846 565 807 c 0,34,35
 565 766 565 766 537 739.5 c 128,-1,36
 509 713 509 713 473 713 c 0,26,27
244 713 m 0,37,38
 206 713 206 713 179.5 739.5 c 128,-1,39
 153 766 153 766 153 807 c 0,40,41
 153 846 153 846 181 873 c 128,-1,42
 209 900 209 900 246 900 c 128,-1,43
 283 900 283 900 309.5 873 c 128,-1,44
 336 846 336 846 336 807 c 0,45,46
 336 766 336 766 308 739.5 c 128,-1,47
 280 713 280 713 244 713 c 0,37,38
EndSplineSet
EndChar

StartChar: multiply
Encoding: 215 215 150
Width: 574
GlyphClass: 2
Flags: W
LayerCount: 2
Fore
SplineSet
345 252 m 1,0,1
 360 237 360 237 420 183.5 c 128,-1,2
 480 130 480 130 518 99 c 1,3,4
 485 46 485 46 445 46 c 0,5,6
 427 46 427 46 412 61 c 0,7,8
 392 80 392 80 350 127 c 128,-1,9
 308 174 308 174 287 195 c 1,10,11
 192 101 192 101 128 22 c 1,12,13
 109 35 109 35 100.5 42 c 128,-1,14
 92 49 92 49 83 63.5 c 128,-1,15
 74 78 74 78 74 95 c 0,16,17
 74 114 74 114 88 128 c 0,18,19
 95 135 95 135 139 172.5 c 128,-1,20
 183 210 183 210 229 253 c 1,21,22
 129 350 129 350 55 414 c 1,23,24
 90 468 90 468 127 468 c 0,25,26
 146 468 146 468 161 452 c 0,27,28
 168 445 168 445 207.5 399.5 c 128,-1,29
 247 354 247 354 288 310 c 1,30,31
 420 454 420 454 446 486 c 1,32,33
 466 475 466 475 482.5 454.5 c 128,-1,34
 499 434 499 434 499 413 c 0,35,36
 499 395 499 395 484 380 c 0,37,38
 466 361 466 361 417 318 c 128,-1,39
 368 275 368 275 345 252 c 1,0,1
EndSplineSet
EndChar

StartChar: Oslash
Encoding: 216 216 151
Width: 728
GlyphClass: 2
Flags: W
LayerCount: 2
Fore
SplineSet
363 -10 m 0,0,1
 286 -10 286 -10 226 14 c 1,2,-1
 203 -27 l 2,3,4
 181 -67 181 -67 175 -84 c 1,5,6
 129 -79 129 -79 129 -53 c 0,7,8
 129 -43 129 -43 154 2 c 2,9,-1
 175 40 l 1,10,11
 32 130 32 130 32 331 c 0,12,13
 32 488 32 488 121.5 580.5 c 128,-1,14
 211 673 211 673 363 673 c 0,15,16
 443 673 443 673 508 645 c 1,17,-1
 531 687 l 2,18,19
 541 705 541 705 559 744 c 1,20,21
 605 739 605 739 605 713 c 0,22,23
 605 702 605 702 583 663 c 2,24,-1
 559 619 l 1,25,26
 624 575 624 575 660 501 c 128,-1,27
 696 427 696 427 696 331 c 0,28,29
 696 176 696 176 605.5 83 c 128,-1,30
 515 -10 515 -10 363 -10 c 0,0,1
364 572 m 0,31,32
 286 572 286 572 240 513 c 128,-1,33
 194 454 194 454 194 362 c 0,34,35
 194 236 194 236 241 161 c 1,36,-1
 451 541 l 1,37,38
 413 572 413 572 364 572 c 0,31,32
532 313 m 0,39,40
 532 424 532 424 490 495 c 1,41,-1
 282 116 l 1,42,43
 316 91 316 91 362 91 c 0,44,45
 443 91 443 91 487.5 152.5 c 128,-1,46
 532 214 532 214 532 313 c 0,39,40
EndSplineSet
EndChar

StartChar: Ugrave
Encoding: 217 217 152
Width: 681
GlyphClass: 2
Flags: W
LayerCount: 2
Fore
SplineSet
457 77 m 1,0,1
 415 36 415 36 360.5 13 c 128,-1,2
 306 -10 306 -10 258 -10 c 0,3,4
 164 -10 164 -10 109.5 34.5 c 128,-1,5
 55 79 55 79 55 192 c 0,6,7
 55 251 55 251 59.5 352 c 128,-1,8
 64 453 64 453 64 501 c 0,9,10
 64 595 64 595 47 652 c 1,11,12
 84 666 84 666 128 666 c 0,13,14
 182 666 182 666 204 644 c 128,-1,15
 226 622 226 622 226 562 c 0,16,17
 226 540 226 540 219.5 407.5 c 128,-1,18
 213 275 213 275 213 198 c 0,19,20
 213 147 213 147 241.5 120.5 c 128,-1,21
 270 94 270 94 307 94 c 0,22,23
 345 94 345 94 388.5 116.5 c 128,-1,24
 432 139 432 139 459 169 c 1,25,26
 459 176 459 176 459.5 201.5 c 128,-1,27
 460 227 460 227 460 288.5 c 128,-1,28
 460 350 460 350 460 446 c 0,29,30
 460 548 460 548 451 658 c 1,31,32
 489 666 489 666 529 666 c 0,33,34
 573 666 573 666 597 651.5 c 128,-1,35
 621 637 621 637 621 612 c 2,36,-1
 618 534 l 2,37,38
 614 455 614 455 614 366 c 2,39,-1
 614 259 l 2,40,41
 614 152 614 152 619 104 c 128,-1,42
 624 56 624 56 638 11 c 1,43,44
 601 -3 601 -3 547 -3 c 0,45,46
 498 -3 498 -3 480 14 c 128,-1,47
 462 31 462 31 457 77 c 1,0,1
212 948 m 1,48,49
 232 922 232 922 268 895 c 128,-1,50
 304 868 304 868 333 850.5 c 128,-1,51
 362 833 362 833 384.5 811.5 c 128,-1,52
 407 790 407 790 407 771 c 0,53,54
 407 744 407 744 368 716 c 1,55,56
 331 743 331 743 269.5 774.5 c 128,-1,57
 208 806 208 806 176.5 828.5 c 128,-1,58
 145 851 145 851 145 877 c 0,59,60
 145 916 145 916 212 948 c 1,48,49
EndSplineSet
EndChar

StartChar: Uacute
Encoding: 218 218 153
Width: 681
GlyphClass: 2
Flags: W
LayerCount: 2
Fore
SplineSet
457 77 m 1,0,1
 415 36 415 36 360.5 13 c 128,-1,2
 306 -10 306 -10 258 -10 c 0,3,4
 164 -10 164 -10 109.5 34.5 c 128,-1,5
 55 79 55 79 55 192 c 0,6,7
 55 251 55 251 59.5 352 c 128,-1,8
 64 453 64 453 64 501 c 0,9,10
 64 595 64 595 47 652 c 1,11,12
 84 666 84 666 128 666 c 0,13,14
 182 666 182 666 204 644 c 128,-1,15
 226 622 226 622 226 562 c 0,16,17
 226 540 226 540 219.5 407.5 c 128,-1,18
 213 275 213 275 213 198 c 0,19,20
 213 147 213 147 241.5 120.5 c 128,-1,21
 270 94 270 94 307 94 c 0,22,23
 345 94 345 94 388.5 116.5 c 128,-1,24
 432 139 432 139 459 169 c 1,25,26
 459 176 459 176 459.5 201.5 c 128,-1,27
 460 227 460 227 460 288.5 c 128,-1,28
 460 350 460 350 460 446 c 0,29,30
 460 548 460 548 451 658 c 1,31,32
 489 666 489 666 529 666 c 0,33,34
 573 666 573 666 597 651.5 c 128,-1,35
 621 637 621 637 621 612 c 2,36,-1
 618 534 l 2,37,38
 614 455 614 455 614 366 c 2,39,-1
 614 259 l 2,40,41
 614 152 614 152 619 104 c 128,-1,42
 624 56 624 56 638 11 c 1,43,44
 601 -3 601 -3 547 -3 c 0,45,46
 498 -3 498 -3 480 14 c 128,-1,47
 462 31 462 31 457 77 c 1,0,1
511 822 m 0,48,49
 487 807 487 807 400 770.5 c 128,-1,50
 313 734 313 734 295 716 c 1,51,52
 260 744 260 744 260 767 c 0,53,54
 260 786 260 786 286 805.5 c 128,-1,55
 312 825 312 825 346 840 c 128,-1,56
 380 855 380 855 420.5 881.5 c 128,-1,57
 461 908 461 908 482 936 c 1,58,59
 535 907 535 907 535 867 c 0,60,61
 535 838 535 838 511 822 c 0,48,49
EndSplineSet
EndChar

StartChar: Ucircumflex
Encoding: 219 219 154
Width: 681
GlyphClass: 2
Flags: W
LayerCount: 2
Fore
SplineSet
457 77 m 1,0,1
 415 36 415 36 360.5 13 c 128,-1,2
 306 -10 306 -10 258 -10 c 0,3,4
 164 -10 164 -10 109.5 34.5 c 128,-1,5
 55 79 55 79 55 192 c 0,6,7
 55 251 55 251 59.5 352 c 128,-1,8
 64 453 64 453 64 501 c 0,9,10
 64 595 64 595 47 652 c 1,11,12
 84 666 84 666 128 666 c 0,13,14
 182 666 182 666 204 644 c 128,-1,15
 226 622 226 622 226 562 c 0,16,17
 226 540 226 540 219.5 407.5 c 128,-1,18
 213 275 213 275 213 198 c 0,19,20
 213 147 213 147 241.5 120.5 c 128,-1,21
 270 94 270 94 307 94 c 0,22,23
 345 94 345 94 388.5 116.5 c 128,-1,24
 432 139 432 139 459 169 c 1,25,26
 459 176 459 176 459.5 201.5 c 128,-1,27
 460 227 460 227 460 288.5 c 128,-1,28
 460 350 460 350 460 446 c 0,29,30
 460 548 460 548 451 658 c 1,31,32
 489 666 489 666 529 666 c 0,33,34
 573 666 573 666 597 651.5 c 128,-1,35
 621 637 621 637 621 612 c 2,36,-1
 618 534 l 2,37,38
 614 455 614 455 614 366 c 2,39,-1
 614 259 l 2,40,41
 614 152 614 152 619 104 c 128,-1,42
 624 56 624 56 638 11 c 1,43,44
 601 -3 601 -3 547 -3 c 0,45,46
 498 -3 498 -3 480 14 c 128,-1,47
 462 31 462 31 457 77 c 1,0,1
342 912 m 1,48,49
 506 822 506 822 506 769 c 0,50,51
 506 752 506 752 488.5 735 c 128,-1,52
 471 718 471 718 444 712 c 1,53,54
 420 740 420 740 394 762 c 128,-1,55
 368 784 368 784 354 792 c 2,56,-1
 340 801 l 1,57,58
 241 720 241 720 217 720 c 0,59,60
 200 720 200 720 188.5 727.5 c 128,-1,61
 177 735 177 735 161 758 c 1,62,63
 243 847 243 847 342 912 c 1,48,49
EndSplineSet
EndChar

StartChar: Udieresis
Encoding: 220 220 155
Width: 681
GlyphClass: 2
Flags: W
LayerCount: 2
Fore
SplineSet
457 77 m 1,0,1
 415 36 415 36 360.5 13 c 128,-1,2
 306 -10 306 -10 258 -10 c 0,3,4
 164 -10 164 -10 109.5 34.5 c 128,-1,5
 55 79 55 79 55 192 c 0,6,7
 55 251 55 251 59.5 352 c 128,-1,8
 64 453 64 453 64 501 c 0,9,10
 64 595 64 595 47 652 c 1,11,12
 84 666 84 666 128 666 c 0,13,14
 182 666 182 666 204 644 c 128,-1,15
 226 622 226 622 226 562 c 0,16,17
 226 540 226 540 219.5 407.5 c 128,-1,18
 213 275 213 275 213 198 c 0,19,20
 213 147 213 147 241.5 120.5 c 128,-1,21
 270 94 270 94 307 94 c 0,22,23
 345 94 345 94 388.5 116.5 c 128,-1,24
 432 139 432 139 459 169 c 1,25,26
 459 176 459 176 459.5 201.5 c 128,-1,27
 460 227 460 227 460 288.5 c 128,-1,28
 460 350 460 350 460 446 c 0,29,30
 460 548 460 548 451 658 c 1,31,32
 489 666 489 666 529 666 c 0,33,34
 573 666 573 666 597 651.5 c 128,-1,35
 621 637 621 637 621 612 c 2,36,-1
 618 534 l 2,37,38
 614 455 614 455 614 366 c 2,39,-1
 614 259 l 2,40,41
 614 152 614 152 619 104 c 128,-1,42
 624 56 624 56 638 11 c 1,43,44
 601 -3 601 -3 547 -3 c 0,45,46
 498 -3 498 -3 480 14 c 128,-1,47
 462 31 462 31 457 77 c 1,0,1
451 713 m 0,48,49
 413 713 413 713 386.5 739.5 c 128,-1,50
 360 766 360 766 360 807 c 0,51,52
 360 846 360 846 388 873 c 128,-1,53
 416 900 416 900 453 900 c 128,-1,54
 490 900 490 900 516.5 873 c 128,-1,55
 543 846 543 846 543 807 c 0,56,57
 543 766 543 766 515 739.5 c 128,-1,58
 487 713 487 713 451 713 c 0,48,49
222 713 m 0,59,60
 184 713 184 713 157.5 739.5 c 128,-1,61
 131 766 131 766 131 807 c 0,62,63
 131 846 131 846 159 873 c 128,-1,64
 187 900 187 900 224 900 c 128,-1,65
 261 900 261 900 287.5 873 c 128,-1,66
 314 846 314 846 314 807 c 0,67,68
 314 766 314 766 286 739.5 c 128,-1,69
 258 713 258 713 222 713 c 0,59,60
EndSplineSet
EndChar

StartChar: Yacute
Encoding: 221 221 156
Width: 565
GlyphClass: 2
Flags: W
LayerCount: 2
Fore
SplineSet
298 391 m 1,0,1
 333 445 333 445 374.5 542.5 c 128,-1,2
 416 640 416 640 417 673 c 1,3,4
 561 658 561 658 561 598 c 0,5,6
 561 589 561 589 554.5 573.5 c 128,-1,7
 548 558 548 558 533.5 535 c 128,-1,8
 519 512 519 512 506 492.5 c 128,-1,9
 493 473 493 473 469.5 441 c 128,-1,10
 446 409 446 409 434 393 c 128,-1,11
 422 377 422 377 396 343 c 128,-1,12
 370 309 370 309 364 301 c 1,13,-1
 364 203 l 2,14,15
 364 91 364 91 388 11 c 1,16,17
 351 -3 351 -3 297 -3 c 0,18,19
 277 -3 277 -3 264 -0.5 c 128,-1,20
 251 2 251 2 236.5 9.5 c 128,-1,21
 222 17 222 17 215 35.5 c 128,-1,22
 208 54 208 54 208 83 c 0,23,24
 208 102 208 102 209 154.5 c 128,-1,25
 210 207 210 207 210 231 c 2,26,-1
 210 294 l 1,27,28
 64 569 64 569 -7 600 c 1,29,30
 44 669 44 669 100 669 c 128,-1,31
 156 669 156 669 192 606 c 0,32,33
 223 550 223 550 298 391 c 1,0,1
468 822 m 0,34,35
 444 807 444 807 357 770.5 c 128,-1,36
 270 734 270 734 252 716 c 1,37,38
 217 744 217 744 217 767 c 0,39,40
 217 786 217 786 243 805.5 c 128,-1,41
 269 825 269 825 303 840 c 128,-1,42
 337 855 337 855 377.5 881.5 c 128,-1,43
 418 908 418 908 439 936 c 1,44,45
 492 907 492 907 492 867 c 0,46,47
 492 838 492 838 468 822 c 0,34,35
EndSplineSet
EndChar

StartChar: Thorn
Encoding: 222 222 157
Width: 543
GlyphClass: 2
Flags: W
LayerCount: 2
Fore
SplineSet
52 231 m 2,0,-1
 52 431 l 2,1,2
 52 541 52 541 43 658 c 1,3,4
 81 666 81 666 122 666 c 0,5,6
 160 666 160 666 186.5 652.5 c 128,-1,7
 213 639 213 639 213 611 c 0,8,9
 213 606 213 606 211 568 c 1,10,11
 520 566 520 566 520 352 c 0,12,13
 520 245 520 245 457.5 183 c 128,-1,14
 395 121 395 121 307 121 c 0,15,16
 256 121 256 121 207 150 c 1,17,18
 210 76 210 76 230 11 c 1,19,20
 193 -3 193 -3 139 -3 c 0,21,22
 119 -3 119 -3 106 -0.5 c 128,-1,23
 93 2 93 2 78.5 9.5 c 128,-1,24
 64 17 64 17 57 35.5 c 128,-1,25
 50 54 50 54 50 83 c 0,26,27
 50 102 50 102 51 154.5 c 128,-1,28
 52 207 52 207 52 231 c 2,0,-1
266 219 m 0,29,30
 309 219 309 219 333 253 c 128,-1,31
 357 287 357 287 357 345 c 0,32,33
 357 414 357 414 327 440.5 c 128,-1,34
 297 467 297 467 234 467 c 1,35,-1
 207 464 l 1,36,37
 206 444 206 444 206 404 c 2,38,-1
 206 234 l 1,39,40
 238 219 238 219 266 219 c 0,29,30
EndSplineSet
EndChar

StartChar: germandbls
Encoding: 223 223 158
Width: 620
GlyphClass: 2
Flags: W
LayerCount: 2
Fore
SplineSet
207 459 m 2,0,-1
 207 186 l 2,1,2
 207 150 207 150 207.5 109.5 c 128,-1,3
 208 69 208 69 208 61 c 0,4,5
 208 28 208 28 179.5 12.5 c 128,-1,6
 151 -3 151 -3 110 -3 c 128,-1,7
 69 -3 69 -3 42 8 c 1,8,9
 62 75 62 75 62 205 c 2,10,-1
 62 464 l 2,11,12
 62 532 62 532 103 581 c 128,-1,13
 144 630 144 630 202 651.5 c 128,-1,14
 260 673 260 673 326 673 c 0,15,16
 404 673 404 673 458.5 642 c 128,-1,17
 513 611 513 611 513 558 c 0,18,19
 513 526 513 526 502 502 c 128,-1,20
 491 478 491 478 475.5 464.5 c 128,-1,21
 460 451 460 451 444.5 440.5 c 128,-1,22
 429 430 429 430 418 418.5 c 128,-1,23
 407 407 407 407 407 394 c 0,24,25
 407 370 407 370 426 349 c 128,-1,26
 445 328 445 328 472 310.5 c 128,-1,27
 499 293 499 293 526 273 c 128,-1,28
 553 253 553 253 572 220.5 c 128,-1,29
 591 188 591 188 591 148 c 0,30,31
 591 89 591 89 538 39.5 c 128,-1,32
 485 -10 485 -10 411 -10 c 0,33,34
 348 -10 348 -10 305 15 c 128,-1,35
 262 40 262 40 262 74 c 0,36,37
 262 127 262 127 332 151 c 1,38,39
 355 87 355 87 397 87 c 0,40,41
 414 87 414 87 427.5 101 c 128,-1,42
 441 115 441 115 441 134 c 0,43,44
 441 162 441 162 415 188.5 c 128,-1,45
 389 215 389 215 358 233 c 128,-1,46
 327 251 327 251 301 281.5 c 128,-1,47
 275 312 275 312 275 348 c 0,48,49
 275 369 275 369 284 386.5 c 128,-1,50
 293 404 293 404 306 416.5 c 128,-1,51
 319 429 319 429 332 441.5 c 128,-1,52
 345 454 345 454 354 471 c 128,-1,53
 363 488 363 488 363 507 c 0,54,55
 363 541 363 541 345.5 558.5 c 128,-1,56
 328 576 328 576 302 576 c 0,57,58
 266 576 266 576 236.5 544.5 c 128,-1,59
 207 513 207 513 207 459 c 2,0,-1
EndSplineSet
EndChar

StartChar: agrave
Encoding: 224 224 159
Width: 494
GlyphClass: 2
Flags: W
LayerCount: 2
Fore
SplineSet
128 314 m 1,0,1
 40 330 40 330 40 389 c 0,2,3
 40 429 40 429 97.5 457 c 128,-1,4
 155 485 155 485 236 485 c 0,5,6
 341 485 341 485 391 445 c 128,-1,7
 441 405 441 405 441 312 c 0,8,9
 441 304 441 304 440 253 c 128,-1,10
 439 202 439 202 439 177 c 0,11,12
 439 62 439 62 458 5 c 1,13,14
 414 -7 414 -7 380 -7 c 0,15,16
 308 -7 308 -7 296 51 c 1,17,18
 272 23 272 23 234.5 6.5 c 128,-1,19
 197 -10 197 -10 159 -10 c 0,20,21
 104 -10 104 -10 66.5 25.5 c 128,-1,22
 29 61 29 61 29 131 c 0,23,24
 29 187 29 187 51.5 213 c 128,-1,25
 74 239 74 239 113 252 c 0,26,27
 189 276 189 276 293 282 c 1,28,29
 293 343 293 343 279.5 367.5 c 128,-1,30
 266 392 266 392 223 392 c 0,31,32
 198 392 198 392 169.5 371 c 128,-1,33
 141 350 141 350 128 314 c 1,0,1
292 210 m 1,34,35
 262 205 262 205 246 201 c 128,-1,36
 230 197 230 197 211.5 188.5 c 128,-1,37
 193 180 193 180 185.5 166.5 c 128,-1,38
 178 153 178 153 178 133 c 0,39,40
 178 108 178 108 190 95.5 c 128,-1,41
 202 83 202 83 220 83 c 0,42,43
 262 83 262 83 290 108 c 1,44,45
 289 117 289 117 289 138 c 0,46,47
 289 174 289 174 292 210 c 1,34,35
113 755 m 1,48,49
 133 729 133 729 169 702 c 128,-1,50
 205 675 205 675 234 657.5 c 128,-1,51
 263 640 263 640 285.5 618.5 c 128,-1,52
 308 597 308 597 308 578 c 0,53,54
 308 551 308 551 269 523 c 1,55,56
 232 550 232 550 170.5 581.5 c 128,-1,57
 109 613 109 613 77.5 635.5 c 128,-1,58
 46 658 46 658 46 684 c 0,59,60
 46 723 46 723 113 755 c 1,48,49
EndSplineSet
EndChar

StartChar: aacute
Encoding: 225 225 160
Width: 494
GlyphClass: 2
Flags: W
LayerCount: 2
Fore
SplineSet
128 314 m 1,0,1
 40 330 40 330 40 389 c 0,2,3
 40 429 40 429 97.5 457 c 128,-1,4
 155 485 155 485 236 485 c 0,5,6
 341 485 341 485 391 445 c 128,-1,7
 441 405 441 405 441 312 c 0,8,9
 441 304 441 304 440 253 c 128,-1,10
 439 202 439 202 439 177 c 0,11,12
 439 62 439 62 458 5 c 1,13,14
 414 -7 414 -7 380 -7 c 0,15,16
 308 -7 308 -7 296 51 c 1,17,18
 272 23 272 23 234.5 6.5 c 128,-1,19
 197 -10 197 -10 159 -10 c 0,20,21
 104 -10 104 -10 66.5 25.5 c 128,-1,22
 29 61 29 61 29 131 c 0,23,24
 29 187 29 187 51.5 213 c 128,-1,25
 74 239 74 239 113 252 c 0,26,27
 189 276 189 276 293 282 c 1,28,29
 293 343 293 343 279.5 367.5 c 128,-1,30
 266 392 266 392 223 392 c 0,31,32
 198 392 198 392 169.5 371 c 128,-1,33
 141 350 141 350 128 314 c 1,0,1
292 210 m 1,34,35
 262 205 262 205 246 201 c 128,-1,36
 230 197 230 197 211.5 188.5 c 128,-1,37
 193 180 193 180 185.5 166.5 c 128,-1,38
 178 153 178 153 178 133 c 0,39,40
 178 108 178 108 190 95.5 c 128,-1,41
 202 83 202 83 220 83 c 0,42,43
 262 83 262 83 290 108 c 1,44,45
 289 117 289 117 289 138 c 0,46,47
 289 174 289 174 292 210 c 1,34,35
412 629 m 0,48,49
 388 614 388 614 301 577.5 c 128,-1,50
 214 541 214 541 196 523 c 1,51,52
 161 551 161 551 161 574 c 0,53,54
 161 593 161 593 187 612.5 c 128,-1,55
 213 632 213 632 247 647 c 128,-1,56
 281 662 281 662 321.5 688.5 c 128,-1,57
 362 715 362 715 383 743 c 1,58,59
 436 714 436 714 436 674 c 0,60,61
 436 645 436 645 412 629 c 0,48,49
EndSplineSet
EndChar

StartChar: acircumflex
Encoding: 226 226 161
Width: 494
GlyphClass: 2
Flags: W
LayerCount: 2
Fore
SplineSet
128 314 m 1,0,1
 40 330 40 330 40 389 c 0,2,3
 40 429 40 429 97.5 457 c 128,-1,4
 155 485 155 485 236 485 c 0,5,6
 341 485 341 485 391 445 c 128,-1,7
 441 405 441 405 441 312 c 0,8,9
 441 304 441 304 440 253 c 128,-1,10
 439 202 439 202 439 177 c 0,11,12
 439 62 439 62 458 5 c 1,13,14
 414 -7 414 -7 380 -7 c 0,15,16
 308 -7 308 -7 296 51 c 1,17,18
 272 23 272 23 234.5 6.5 c 128,-1,19
 197 -10 197 -10 159 -10 c 0,20,21
 104 -10 104 -10 66.5 25.5 c 128,-1,22
 29 61 29 61 29 131 c 0,23,24
 29 187 29 187 51.5 213 c 128,-1,25
 74 239 74 239 113 252 c 0,26,27
 189 276 189 276 293 282 c 1,28,29
 293 343 293 343 279.5 367.5 c 128,-1,30
 266 392 266 392 223 392 c 0,31,32
 198 392 198 392 169.5 371 c 128,-1,33
 141 350 141 350 128 314 c 1,0,1
292 210 m 1,34,35
 262 205 262 205 246 201 c 128,-1,36
 230 197 230 197 211.5 188.5 c 128,-1,37
 193 180 193 180 185.5 166.5 c 128,-1,38
 178 153 178 153 178 133 c 0,39,40
 178 108 178 108 190 95.5 c 128,-1,41
 202 83 202 83 220 83 c 0,42,43
 262 83 262 83 290 108 c 1,44,45
 289 117 289 117 289 138 c 0,46,47
 289 174 289 174 292 210 c 1,34,35
243 719 m 1,48,49
 407 629 407 629 407 576 c 0,50,51
 407 559 407 559 389.5 542 c 128,-1,52
 372 525 372 525 345 519 c 1,53,54
 321 547 321 547 295 569.5 c 128,-1,55
 269 592 269 592 255 600 c 2,56,-1
 241 608 l 1,57,58
 142 527 142 527 118 527 c 0,59,60
 101 527 101 527 89.5 534.5 c 128,-1,61
 78 542 78 542 62 565 c 1,62,63
 144 654 144 654 243 719 c 1,48,49
EndSplineSet
EndChar

StartChar: atilde
Encoding: 227 227 162
Width: 494
GlyphClass: 2
Flags: W
LayerCount: 2
Fore
SplineSet
128 314 m 1,0,1
 40 330 40 330 40 389 c 0,2,3
 40 429 40 429 97.5 457 c 128,-1,4
 155 485 155 485 236 485 c 0,5,6
 341 485 341 485 391 445 c 128,-1,7
 441 405 441 405 441 312 c 0,8,9
 441 304 441 304 440 253 c 128,-1,10
 439 202 439 202 439 177 c 0,11,12
 439 62 439 62 458 5 c 1,13,14
 414 -7 414 -7 380 -7 c 0,15,16
 308 -7 308 -7 296 51 c 1,17,18
 272 23 272 23 234.5 6.5 c 128,-1,19
 197 -10 197 -10 159 -10 c 0,20,21
 104 -10 104 -10 66.5 25.5 c 128,-1,22
 29 61 29 61 29 131 c 0,23,24
 29 187 29 187 51.5 213 c 128,-1,25
 74 239 74 239 113 252 c 0,26,27
 189 276 189 276 293 282 c 1,28,29
 293 343 293 343 279.5 367.5 c 128,-1,30
 266 392 266 392 223 392 c 0,31,32
 198 392 198 392 169.5 371 c 128,-1,33
 141 350 141 350 128 314 c 1,0,1
292 210 m 1,34,35
 262 205 262 205 246 201 c 128,-1,36
 230 197 230 197 211.5 188.5 c 128,-1,37
 193 180 193 180 185.5 166.5 c 128,-1,38
 178 153 178 153 178 133 c 0,39,40
 178 108 178 108 190 95.5 c 128,-1,41
 202 83 202 83 220 83 c 0,42,43
 262 83 262 83 290 108 c 1,44,45
 289 117 289 117 289 138 c 0,46,47
 289 174 289 174 292 210 c 1,34,35
426 634 m 0,48,49
 426 599 426 599 386 566.5 c 128,-1,50
 346 534 346 534 298 534 c 0,51,52
 274 534 274 534 230 555.5 c 128,-1,53
 186 577 186 577 169 577 c 0,54,55
 147 577 147 577 101 537 c 1,56,57
 62 551 62 551 62 578 c 0,58,59
 62 612 62 612 102.5 645 c 128,-1,60
 143 678 143 678 190 678 c 0,61,62
 214 678 214 678 258.5 656.5 c 128,-1,63
 303 635 303 635 320 635 c 0,64,65
 343 635 343 635 387 675 c 1,66,67
 400 673 400 673 413 661.5 c 128,-1,68
 426 650 426 650 426 634 c 0,48,49
EndSplineSet
EndChar

StartChar: adieresis
Encoding: 228 228 163
Width: 494
GlyphClass: 2
Flags: W
LayerCount: 2
Fore
SplineSet
128 314 m 1,0,1
 40 330 40 330 40 389 c 0,2,3
 40 429 40 429 97.5 457 c 128,-1,4
 155 485 155 485 236 485 c 0,5,6
 341 485 341 485 391 445 c 128,-1,7
 441 405 441 405 441 312 c 0,8,9
 441 304 441 304 440 253 c 128,-1,10
 439 202 439 202 439 177 c 0,11,12
 439 62 439 62 458 5 c 1,13,14
 414 -7 414 -7 380 -7 c 0,15,16
 308 -7 308 -7 296 51 c 1,17,18
 272 23 272 23 234.5 6.5 c 128,-1,19
 197 -10 197 -10 159 -10 c 0,20,21
 104 -10 104 -10 66.5 25.5 c 128,-1,22
 29 61 29 61 29 131 c 0,23,24
 29 187 29 187 51.5 213 c 128,-1,25
 74 239 74 239 113 252 c 0,26,27
 189 276 189 276 293 282 c 1,28,29
 293 343 293 343 279.5 367.5 c 128,-1,30
 266 392 266 392 223 392 c 0,31,32
 198 392 198 392 169.5 371 c 128,-1,33
 141 350 141 350 128 314 c 1,0,1
292 210 m 1,34,35
 262 205 262 205 246 201 c 128,-1,36
 230 197 230 197 211.5 188.5 c 128,-1,37
 193 180 193 180 185.5 166.5 c 128,-1,38
 178 153 178 153 178 133 c 0,39,40
 178 108 178 108 190 95.5 c 128,-1,41
 202 83 202 83 220 83 c 0,42,43
 262 83 262 83 290 108 c 1,44,45
 289 117 289 117 289 138 c 0,46,47
 289 174 289 174 292 210 c 1,34,35
352 520 m 0,48,49
 314 520 314 520 287.5 546.5 c 128,-1,50
 261 573 261 573 261 614 c 0,51,52
 261 653 261 653 289 680 c 128,-1,53
 317 707 317 707 354 707 c 128,-1,54
 391 707 391 707 417.5 680 c 128,-1,55
 444 653 444 653 444 614 c 0,56,57
 444 574 444 574 416 547 c 128,-1,58
 388 520 388 520 352 520 c 0,48,49
123 520 m 0,59,60
 85 520 85 520 58.5 546.5 c 128,-1,61
 32 573 32 573 32 614 c 0,62,63
 32 653 32 653 60 680 c 128,-1,64
 88 707 88 707 125 707 c 128,-1,65
 162 707 162 707 188.5 680 c 128,-1,66
 215 653 215 653 215 614 c 0,67,68
 215 574 215 574 187 547 c 128,-1,69
 159 520 159 520 123 520 c 0,59,60
EndSplineSet
EndChar

StartChar: aring
Encoding: 229 229 164
Width: 494
GlyphClass: 2
Flags: W
LayerCount: 2
Fore
SplineSet
128 314 m 1,0,1
 40 330 40 330 40 389 c 0,2,3
 40 429 40 429 97.5 457 c 128,-1,4
 155 485 155 485 236 485 c 0,5,6
 341 485 341 485 391 445 c 128,-1,7
 441 405 441 405 441 312 c 0,8,9
 441 304 441 304 440 253 c 128,-1,10
 439 202 439 202 439 177 c 0,11,12
 439 62 439 62 458 5 c 1,13,14
 414 -7 414 -7 380 -7 c 0,15,16
 308 -7 308 -7 296 51 c 1,17,18
 272 23 272 23 234.5 6.5 c 128,-1,19
 197 -10 197 -10 159 -10 c 0,20,21
 104 -10 104 -10 66.5 25.5 c 128,-1,22
 29 61 29 61 29 131 c 0,23,24
 29 187 29 187 51.5 213 c 128,-1,25
 74 239 74 239 113 252 c 0,26,27
 189 276 189 276 293 282 c 1,28,29
 293 343 293 343 279.5 367.5 c 128,-1,30
 266 392 266 392 223 392 c 0,31,32
 198 392 198 392 169.5 371 c 128,-1,33
 141 350 141 350 128 314 c 1,0,1
292 210 m 1,34,35
 262 205 262 205 246 201 c 128,-1,36
 230 197 230 197 211.5 188.5 c 128,-1,37
 193 180 193 180 185.5 166.5 c 128,-1,38
 178 153 178 153 178 133 c 0,39,40
 178 108 178 108 190 95.5 c 128,-1,41
 202 83 202 83 220 83 c 0,42,43
 262 83 262 83 290 108 c 1,44,45
 289 117 289 117 289 138 c 0,46,47
 289 174 289 174 292 210 c 1,34,35
243 540 m 0,48,49
 192 540 192 540 159.5 572 c 128,-1,50
 127 604 127 604 127 656 c 0,51,52
 127 709 127 709 159.5 741 c 128,-1,53
 192 773 192 773 243 773 c 0,54,55
 295 773 295 773 326.5 741 c 128,-1,56
 358 709 358 709 358 656 c 0,57,58
 358 604 358 604 326.5 572 c 128,-1,59
 295 540 295 540 243 540 c 0,48,49
297 651 m 0,60,61
 297 682 297 682 282 702.5 c 128,-1,62
 267 723 267 723 243 723 c 0,63,64
 218 723 218 723 203 706 c 128,-1,65
 188 689 188 689 188 661 c 0,66,67
 188 630 188 630 203 610 c 128,-1,68
 218 590 218 590 243 590 c 0,69,70
 269 590 269 590 283 606.5 c 128,-1,71
 297 623 297 623 297 651 c 0,60,61
EndSplineSet
EndChar

StartChar: ae
Encoding: 230 230 165
Width: 752
GlyphClass: 2
Flags: W
LayerCount: 2
Fore
SplineSet
533 390 m 0,0,1
 497 390 497 390 470 357.5 c 128,-1,2
 443 325 443 325 442 262 c 1,3,4
 470 264 470 264 481.5 265.5 c 128,-1,5
 493 267 493 267 514.5 272 c 128,-1,6
 536 277 536 277 545.5 285.5 c 128,-1,7
 555 294 555 294 563 309.5 c 128,-1,8
 571 325 571 325 571 348 c 0,9,10
 571 364 571 364 560 377 c 128,-1,11
 549 390 549 390 533 390 c 0,0,1
220 83 m 0,12,13
 264 83 264 83 310 119 c 1,14,15
 293 159 293 159 290 209 c 1,16,17
 251 202 251 202 231 196.5 c 128,-1,18
 211 191 211 191 194.5 175 c 128,-1,19
 178 159 178 159 178 133 c 0,20,21
 178 108 178 108 190 95.5 c 128,-1,22
 202 83 202 83 220 83 c 0,12,13
541 485 m 0,23,24
 615 485 615 485 669 448 c 128,-1,25
 723 411 723 411 723 338 c 0,26,27
 723 190 723 190 511 190 c 0,28,29
 492 190 492 190 442 192 c 1,30,31
 442 135 442 135 470.5 109 c 128,-1,32
 499 83 499 83 541 83 c 0,33,34
 615 83 615 83 656 131 c 1,35,36
 679 120 679 120 693.5 101.5 c 128,-1,37
 708 83 708 83 708 64 c 0,38,39
 708 34 708 34 672.5 16 c 128,-1,40
 637 -2 637 -2 603.5 -6 c 128,-1,41
 570 -10 570 -10 539 -10 c 0,42,43
 402 -10 402 -10 335 77 c 1,44,45
 250 -10 250 -10 159 -10 c 0,46,47
 104 -10 104 -10 66.5 25.5 c 128,-1,48
 29 61 29 61 29 131 c 0,49,50
 29 187 29 187 51.5 213 c 128,-1,51
 74 239 74 239 113 252 c 0,52,53
 189 276 189 276 293 282 c 1,54,55
 292 344 292 344 279 368 c 128,-1,56
 266 392 266 392 223 392 c 0,57,58
 198 392 198 392 169.5 371 c 128,-1,59
 141 350 141 350 128 314 c 1,60,61
 40 330 40 330 40 389 c 0,62,63
 40 429 40 429 97.5 457 c 128,-1,64
 155 485 155 485 236 485 c 0,65,66
 348 485 348 485 393 433 c 1,67,68
 453 485 453 485 541 485 c 0,23,24
EndSplineSet
EndChar

StartChar: ccedilla
Encoding: 231 231 166
Width: 477
GlyphClass: 2
Flags: W
LayerCount: 2
Fore
SplineSet
281 85 m 0,0,1
 312 85 312 85 339.5 100.5 c 128,-1,2
 367 116 367 116 377 143 c 1,3,4
 422 127 422 127 436 112 c 128,-1,5
 450 97 450 97 450 76 c 0,6,7
 450 35 450 35 402 12.5 c 128,-1,8
 354 -10 354 -10 277 -10 c 2,9,-1
 270 -10 l 1,10,11
 266 -26 266 -26 266 -30 c 0,12,13
 266 -41 266 -41 280 -51 c 128,-1,14
 294 -61 294 -61 310.5 -70 c 128,-1,15
 327 -79 327 -79 341 -98.5 c 128,-1,16
 355 -118 355 -118 355 -144 c 0,17,18
 355 -183 355 -183 308.5 -217.5 c 128,-1,19
 262 -252 262 -252 195 -252 c 0,20,21
 160 -252 160 -252 142.5 -239 c 128,-1,22
 125 -226 125 -226 125 -207 c 0,23,24
 125 -180 125 -180 150 -153 c 1,25,26
 163 -166 163 -166 184 -166 c 0,27,28
 214 -166 214 -166 214 -128 c 0,29,30
 214 -108 214 -108 191.5 -90 c 128,-1,31
 169 -72 169 -72 169 -54 c 0,32,33
 169 -33 169 -33 184 3 c 1,34,35
 111 25 111 25 70 83 c 128,-1,36
 29 141 29 141 29 227 c 0,37,38
 29 293 29 293 51.5 344 c 128,-1,39
 74 395 74 395 110 425 c 128,-1,40
 146 455 146 455 188 470 c 128,-1,41
 230 485 230 485 273 485 c 0,42,43
 336 485 336 485 393.5 459 c 128,-1,44
 451 433 451 433 451 387 c 0,45,46
 451 326 451 326 353 314 c 1,47,48
 344 348 344 348 321 368 c 128,-1,49
 298 388 298 388 270 388 c 0,50,51
 233 388 233 388 206 350.5 c 128,-1,52
 179 313 179 313 179 240 c 0,53,54
 179 85 179 85 281 85 c 0,0,1
EndSplineSet
EndChar

StartChar: egrave
Encoding: 232 232 167
Width: 492
GlyphClass: 2
Flags: W
LayerCount: 2
Fore
SplineSet
281 485 m 0,0,1
 355 485 355 485 409 448 c 128,-1,2
 463 411 463 411 463 338 c 0,3,4
 463 190 463 190 251 190 c 0,5,6
 232 190 232 190 182 192 c 1,7,8
 182 135 182 135 210.5 109 c 128,-1,9
 239 83 239 83 281 83 c 0,10,11
 355 83 355 83 396 131 c 1,12,13
 419 120 419 120 433.5 101.5 c 128,-1,14
 448 83 448 83 448 64 c 0,15,16
 448 34 448 34 412.5 16 c 128,-1,17
 377 -2 377 -2 343.5 -6 c 128,-1,18
 310 -10 310 -10 279 -10 c 0,19,20
 169 -10 169 -10 99 50.5 c 128,-1,21
 29 111 29 111 29 235 c 0,22,23
 29 317 29 317 67.5 375.5 c 128,-1,24
 106 434 106 434 161.5 459.5 c 128,-1,25
 217 485 217 485 281 485 c 0,0,1
273 390 m 0,26,27
 237 390 237 390 210 357.5 c 128,-1,28
 183 325 183 325 182 262 c 1,29,30
 210 264 210 264 221.5 265.5 c 128,-1,31
 233 267 233 267 254.5 272 c 128,-1,32
 276 277 276 277 285.5 285.5 c 128,-1,33
 295 294 295 294 303 309.5 c 128,-1,34
 311 325 311 325 311 348 c 0,35,36
 311 364 311 364 300 377 c 128,-1,37
 289 390 289 390 273 390 c 0,26,27
116 755 m 1,38,39
 136 729 136 729 172 702 c 128,-1,40
 208 675 208 675 237 657.5 c 128,-1,41
 266 640 266 640 288.5 618.5 c 128,-1,42
 311 597 311 597 311 578 c 0,43,44
 311 551 311 551 272 523 c 1,45,46
 235 550 235 550 173.5 581.5 c 128,-1,47
 112 613 112 613 80.5 635.5 c 128,-1,48
 49 658 49 658 49 684 c 0,49,50
 49 723 49 723 116 755 c 1,38,39
EndSplineSet
EndChar

StartChar: eacute
Encoding: 233 233 168
Width: 492
GlyphClass: 2
Flags: W
LayerCount: 2
Fore
SplineSet
281 485 m 0,0,1
 355 485 355 485 409 448 c 128,-1,2
 463 411 463 411 463 338 c 0,3,4
 463 190 463 190 251 190 c 0,5,6
 232 190 232 190 182 192 c 1,7,8
 182 135 182 135 210.5 109 c 128,-1,9
 239 83 239 83 281 83 c 0,10,11
 355 83 355 83 396 131 c 1,12,13
 419 120 419 120 433.5 101.5 c 128,-1,14
 448 83 448 83 448 64 c 0,15,16
 448 34 448 34 412.5 16 c 128,-1,17
 377 -2 377 -2 343.5 -6 c 128,-1,18
 310 -10 310 -10 279 -10 c 0,19,20
 169 -10 169 -10 99 50.5 c 128,-1,21
 29 111 29 111 29 235 c 0,22,23
 29 317 29 317 67.5 375.5 c 128,-1,24
 106 434 106 434 161.5 459.5 c 128,-1,25
 217 485 217 485 281 485 c 0,0,1
273 390 m 0,26,27
 237 390 237 390 210 357.5 c 128,-1,28
 183 325 183 325 182 262 c 1,29,30
 210 264 210 264 221.5 265.5 c 128,-1,31
 233 267 233 267 254.5 272 c 128,-1,32
 276 277 276 277 285.5 285.5 c 128,-1,33
 295 294 295 294 303 309.5 c 128,-1,34
 311 325 311 325 311 348 c 0,35,36
 311 364 311 364 300 377 c 128,-1,37
 289 390 289 390 273 390 c 0,26,27
415 629 m 0,38,39
 391 614 391 614 304 577.5 c 128,-1,40
 217 541 217 541 199 523 c 1,41,42
 164 551 164 551 164 574 c 0,43,44
 164 593 164 593 190 612.5 c 128,-1,45
 216 632 216 632 250 647 c 128,-1,46
 284 662 284 662 324.5 688.5 c 128,-1,47
 365 715 365 715 386 743 c 1,48,49
 439 714 439 714 439 674 c 0,50,51
 439 645 439 645 415 629 c 0,38,39
EndSplineSet
EndChar

StartChar: ecircumflex
Encoding: 234 234 169
Width: 492
GlyphClass: 2
Flags: W
LayerCount: 2
Fore
SplineSet
281 485 m 0,0,1
 355 485 355 485 409 448 c 128,-1,2
 463 411 463 411 463 338 c 0,3,4
 463 190 463 190 251 190 c 0,5,6
 232 190 232 190 182 192 c 1,7,8
 182 135 182 135 210.5 109 c 128,-1,9
 239 83 239 83 281 83 c 0,10,11
 355 83 355 83 396 131 c 1,12,13
 419 120 419 120 433.5 101.5 c 128,-1,14
 448 83 448 83 448 64 c 0,15,16
 448 34 448 34 412.5 16 c 128,-1,17
 377 -2 377 -2 343.5 -6 c 128,-1,18
 310 -10 310 -10 279 -10 c 0,19,20
 169 -10 169 -10 99 50.5 c 128,-1,21
 29 111 29 111 29 235 c 0,22,23
 29 317 29 317 67.5 375.5 c 128,-1,24
 106 434 106 434 161.5 459.5 c 128,-1,25
 217 485 217 485 281 485 c 0,0,1
273 390 m 0,26,27
 237 390 237 390 210 357.5 c 128,-1,28
 183 325 183 325 182 262 c 1,29,30
 210 264 210 264 221.5 265.5 c 128,-1,31
 233 267 233 267 254.5 272 c 128,-1,32
 276 277 276 277 285.5 285.5 c 128,-1,33
 295 294 295 294 303 309.5 c 128,-1,34
 311 325 311 325 311 348 c 0,35,36
 311 364 311 364 300 377 c 128,-1,37
 289 390 289 390 273 390 c 0,26,27
246 719 m 1,38,39
 410 629 410 629 410 576 c 0,40,41
 410 559 410 559 392.5 542 c 128,-1,42
 375 525 375 525 348 519 c 1,43,44
 324 547 324 547 298 569.5 c 128,-1,45
 272 592 272 592 258 600 c 2,46,-1
 244 608 l 1,47,48
 145 527 145 527 121 527 c 0,49,50
 104 527 104 527 92.5 534.5 c 128,-1,51
 81 542 81 542 65 565 c 1,52,53
 147 654 147 654 246 719 c 1,38,39
EndSplineSet
EndChar

StartChar: edieresis
Encoding: 235 235 170
Width: 492
GlyphClass: 2
Flags: W
LayerCount: 2
Fore
SplineSet
281 485 m 0,0,1
 355 485 355 485 409 448 c 128,-1,2
 463 411 463 411 463 338 c 0,3,4
 463 190 463 190 251 190 c 0,5,6
 232 190 232 190 182 192 c 1,7,8
 182 135 182 135 210.5 109 c 128,-1,9
 239 83 239 83 281 83 c 0,10,11
 355 83 355 83 396 131 c 1,12,13
 419 120 419 120 433.5 101.5 c 128,-1,14
 448 83 448 83 448 64 c 0,15,16
 448 34 448 34 412.5 16 c 128,-1,17
 377 -2 377 -2 343.5 -6 c 128,-1,18
 310 -10 310 -10 279 -10 c 0,19,20
 169 -10 169 -10 99 50.5 c 128,-1,21
 29 111 29 111 29 235 c 0,22,23
 29 317 29 317 67.5 375.5 c 128,-1,24
 106 434 106 434 161.5 459.5 c 128,-1,25
 217 485 217 485 281 485 c 0,0,1
273 390 m 0,26,27
 237 390 237 390 210 357.5 c 128,-1,28
 183 325 183 325 182 262 c 1,29,30
 210 264 210 264 221.5 265.5 c 128,-1,31
 233 267 233 267 254.5 272 c 128,-1,32
 276 277 276 277 285.5 285.5 c 128,-1,33
 295 294 295 294 303 309.5 c 128,-1,34
 311 325 311 325 311 348 c 0,35,36
 311 364 311 364 300 377 c 128,-1,37
 289 390 289 390 273 390 c 0,26,27
355 520 m 0,38,39
 317 520 317 520 290.5 546.5 c 128,-1,40
 264 573 264 573 264 614 c 0,41,42
 264 653 264 653 292 680 c 128,-1,43
 320 707 320 707 357 707 c 128,-1,44
 394 707 394 707 420.5 680 c 128,-1,45
 447 653 447 653 447 614 c 0,46,47
 447 574 447 574 419 547 c 128,-1,48
 391 520 391 520 355 520 c 0,38,39
126 520 m 0,49,50
 88 520 88 520 61.5 546.5 c 128,-1,51
 35 573 35 573 35 614 c 0,52,53
 35 653 35 653 63 680 c 128,-1,54
 91 707 91 707 128 707 c 128,-1,55
 165 707 165 707 191.5 680 c 128,-1,56
 218 653 218 653 218 614 c 0,57,58
 218 574 218 574 190 547 c 128,-1,59
 162 520 162 520 126 520 c 0,49,50
EndSplineSet
EndChar

StartChar: igrave
Encoding: 236 236 171
Width: 257
GlyphClass: 2
Flags: W
LayerCount: 2
Fore
SplineSet
130 478 m 0,0,1
 168 478 168 478 189 465 c 128,-1,2
 210 452 210 452 210 414 c 0,3,4
 210 408 210 408 206.5 326 c 128,-1,5
 203 244 203 244 203 203 c 0,6,7
 203 61 203 61 220 10 c 1,8,9
 178 -3 178 -3 137 -3 c 0,10,11
 90 -3 90 -3 71.5 13.5 c 128,-1,12
 53 30 53 30 53 62 c 0,13,14
 53 78 53 78 54.5 137 c 128,-1,15
 56 196 56 196 56 231 c 0,16,17
 56 374 56 374 49 465 c 1,18,19
 87 478 87 478 130 478 c 0,0,1
4 755 m 1,20,21
 24 729 24 729 60 702 c 128,-1,22
 96 675 96 675 125 657.5 c 128,-1,23
 154 640 154 640 176.5 618.5 c 128,-1,24
 199 597 199 597 199 578 c 0,25,26
 199 551 199 551 160 523 c 1,27,28
 123 550 123 550 61.5 581.5 c 128,-1,29
 0 613 0 613 -31.5 635.5 c 128,-1,30
 -63 658 -63 658 -63 684 c 0,31,32
 -63 723 -63 723 4 755 c 1,20,21
EndSplineSet
EndChar

StartChar: iacute
Encoding: 237 237 172
Width: 257
GlyphClass: 2
Flags: W
LayerCount: 2
Fore
SplineSet
130 478 m 0,0,1
 168 478 168 478 189 465 c 128,-1,2
 210 452 210 452 210 414 c 0,3,4
 210 408 210 408 206.5 326 c 128,-1,5
 203 244 203 244 203 203 c 0,6,7
 203 61 203 61 220 10 c 1,8,9
 178 -3 178 -3 137 -3 c 0,10,11
 90 -3 90 -3 71.5 13.5 c 128,-1,12
 53 30 53 30 53 62 c 0,13,14
 53 78 53 78 54.5 137 c 128,-1,15
 56 196 56 196 56 231 c 0,16,17
 56 374 56 374 49 465 c 1,18,19
 87 478 87 478 130 478 c 0,0,1
303 629 m 0,20,21
 279 614 279 614 192 577.5 c 128,-1,22
 105 541 105 541 87 523 c 1,23,24
 52 551 52 551 52 574 c 0,25,26
 52 593 52 593 78 612.5 c 128,-1,27
 104 632 104 632 138 647 c 128,-1,28
 172 662 172 662 212.5 688.5 c 128,-1,29
 253 715 253 715 274 743 c 1,30,31
 327 714 327 714 327 674 c 0,32,33
 327 645 327 645 303 629 c 0,20,21
EndSplineSet
EndChar

StartChar: icircumflex
Encoding: 238 238 173
Width: 257
GlyphClass: 2
Flags: W
LayerCount: 2
Fore
SplineSet
130 478 m 0,0,1
 168 478 168 478 189 465 c 128,-1,2
 210 452 210 452 210 414 c 0,3,4
 210 408 210 408 206.5 326 c 128,-1,5
 203 244 203 244 203 203 c 0,6,7
 203 61 203 61 220 10 c 1,8,9
 178 -3 178 -3 137 -3 c 0,10,11
 90 -3 90 -3 71.5 13.5 c 128,-1,12
 53 30 53 30 53 62 c 0,13,14
 53 78 53 78 54.5 137 c 128,-1,15
 56 196 56 196 56 231 c 0,16,17
 56 374 56 374 49 465 c 1,18,19
 87 478 87 478 130 478 c 0,0,1
134 719 m 1,20,21
 298 629 298 629 298 576 c 0,22,23
 298 559 298 559 280.5 542 c 128,-1,24
 263 525 263 525 236 519 c 1,25,26
 212 547 212 547 186 569.5 c 128,-1,27
 160 592 160 592 146 600 c 2,28,-1
 132 608 l 1,29,30
 33 527 33 527 9 527 c 0,31,32
 -8 527 -8 527 -19.5 534.5 c 128,-1,33
 -31 542 -31 542 -47 565 c 1,34,35
 35 654 35 654 134 719 c 1,20,21
EndSplineSet
EndChar

StartChar: idieresis
Encoding: 239 239 174
Width: 257
GlyphClass: 2
Flags: W
LayerCount: 2
Fore
SplineSet
130 478 m 0,0,1
 168 478 168 478 189 465 c 128,-1,2
 210 452 210 452 210 414 c 0,3,4
 210 408 210 408 206.5 326 c 128,-1,5
 203 244 203 244 203 203 c 0,6,7
 203 61 203 61 220 10 c 1,8,9
 178 -3 178 -3 137 -3 c 0,10,11
 90 -3 90 -3 71.5 13.5 c 128,-1,12
 53 30 53 30 53 62 c 0,13,14
 53 78 53 78 54.5 137 c 128,-1,15
 56 196 56 196 56 231 c 0,16,17
 56 374 56 374 49 465 c 1,18,19
 87 478 87 478 130 478 c 0,0,1
243 520 m 0,20,21
 205 520 205 520 178.5 546.5 c 128,-1,22
 152 573 152 573 152 614 c 0,23,24
 152 653 152 653 180 680 c 128,-1,25
 208 707 208 707 245 707 c 128,-1,26
 282 707 282 707 308.5 680 c 128,-1,27
 335 653 335 653 335 614 c 0,28,29
 335 574 335 574 307 547 c 128,-1,30
 279 520 279 520 243 520 c 0,20,21
14 520 m 0,31,32
 -24 520 -24 520 -50.5 546.5 c 128,-1,33
 -77 573 -77 573 -77 614 c 0,34,35
 -77 653 -77 653 -49 680 c 128,-1,36
 -21 707 -21 707 16 707 c 128,-1,37
 53 707 53 707 79.5 680 c 128,-1,38
 106 653 106 653 106 614 c 0,39,40
 106 574 106 574 78 547 c 128,-1,41
 50 520 50 520 14 520 c 0,31,32
EndSplineSet
EndChar

StartChar: eth
Encoding: 240 240 175
Width: 547
GlyphClass: 2
Flags: W
LayerCount: 2
Fore
SplineSet
76 630 m 1,0,1
 72 646 72 646 72 661 c 0,2,3
 72 681 72 681 85 689.5 c 128,-1,4
 98 698 98 698 131 698 c 0,5,6
 212 698 212 698 288 661 c 1,7,-1
 380 734 l 1,8,9
 412 704 412 704 412 678 c 0,10,11
 412 661 412 661 387 642 c 2,12,-1
 355 618 l 1,13,14
 430 559 430 559 472.5 466 c 128,-1,15
 515 373 515 373 515 269 c 0,16,17
 515 149 515 149 454 69.5 c 128,-1,18
 393 -10 393 -10 271 -10 c 0,19,20
 162 -10 162 -10 95.5 56 c 128,-1,21
 29 122 29 122 29 232 c 128,-1,22
 29 342 29 342 92.5 411 c 128,-1,23
 156 480 156 480 238 480 c 0,24,25
 307 480 307 480 340 448 c 1,26,27
 311 519 311 519 272 559 c 1,28,-1
 190 498 l 1,29,30
 152 524 152 524 152 551 c 0,31,32
 152 569 152 569 175 585 c 0,33,34
 183 590 183 590 206 605 c 1,35,36
 153 630 153 630 76 630 c 1,0,1
363 218 m 0,37,38
 363 294 363 294 338 341.5 c 128,-1,39
 313 389 313 389 270 389 c 0,40,41
 225 389 225 389 201 351.5 c 128,-1,42
 177 314 177 314 177 246 c 0,43,44
 177 177 177 177 202 131.5 c 128,-1,45
 227 86 227 86 270 86 c 0,46,47
 314 86 314 86 338.5 122 c 128,-1,48
 363 158 363 158 363 218 c 0,37,38
EndSplineSet
EndChar

StartChar: ntilde
Encoding: 241 241 176
Width: 557
GlyphClass: 2
Flags: W
LayerCount: 2
Fore
SplineSet
39 465 m 1,0,1
 80 478 80 478 117 478 c 0,2,3
 190 478 190 478 200 419 c 1,4,5
 265 484 265 484 348 484 c 0,6,7
 416 484 416 484 460 445 c 128,-1,8
 504 406 504 406 504 334 c 0,9,10
 504 332 504 332 502.5 262 c 128,-1,11
 501 192 501 192 501 156 c 0,12,13
 501 70 501 70 518 10 c 1,14,15
 475 -3 475 -3 431 -3 c 0,16,17
 351 -3 351 -3 351 58 c 0,18,19
 351 94 351 94 354 190.5 c 128,-1,20
 357 287 357 287 357 307 c 0,21,22
 357 348 357 348 340.5 368.5 c 128,-1,23
 324 389 324 389 298 389 c 0,24,25
 256 389 256 389 205 340 c 1,26,27
 207 212 207 212 207 155 c 0,28,29
 207 67 207 67 212 1 c 1,30,31
 179 -2 179 -2 153 -2 c 0,32,33
 53 -2 53 -2 53 46 c 0,34,35
 53 50 53 50 55.5 116 c 128,-1,36
 58 182 58 182 58 253 c 0,37,38
 58 416 58 416 39 465 c 1,0,1
461 634 m 0,39,40
 461 599 461 599 421 566.5 c 128,-1,41
 381 534 381 534 333 534 c 0,42,43
 309 534 309 534 265 555.5 c 128,-1,44
 221 577 221 577 204 577 c 0,45,46
 182 577 182 577 136 537 c 1,47,48
 97 551 97 551 97 578 c 0,49,50
 97 612 97 612 137.5 645 c 128,-1,51
 178 678 178 678 225 678 c 0,52,53
 249 678 249 678 293.5 656.5 c 128,-1,54
 338 635 338 635 355 635 c 0,55,56
 378 635 378 635 422 675 c 1,57,58
 435 673 435 673 448 661.5 c 128,-1,59
 461 650 461 650 461 634 c 0,39,40
EndSplineSet
EndChar

StartChar: ograve
Encoding: 242 242 177
Width: 543
GlyphClass: 2
Flags: W
LayerCount: 2
Fore
SplineSet
271 -10 m 128,-1,1
 162 -10 162 -10 95.5 56 c 128,-1,2
 29 122 29 122 29 232 c 0,3,4
 29 347 29 347 95.5 416 c 128,-1,5
 162 485 162 485 271 485 c 128,-1,6
 380 485 380 485 447 416 c 128,-1,7
 514 347 514 347 514 232 c 0,8,9
 514 122 514 122 447 56 c 128,-1,0
 380 -10 380 -10 271 -10 c 128,-1,1
365 212 m 0,10,11
 365 288 365 288 340 338.5 c 128,-1,12
 315 389 315 389 271 389 c 0,13,14
 228 389 228 389 203.5 348 c 128,-1,15
 179 307 179 307 179 240 c 0,16,17
 179 174 179 174 203.5 130.5 c 128,-1,18
 228 87 228 87 271 87 c 0,19,20
 316 87 316 87 340.5 121.5 c 128,-1,21
 365 156 365 156 365 212 c 0,10,11
141 755 m 1,22,23
 161 729 161 729 197 702 c 128,-1,24
 233 675 233 675 262 657.5 c 128,-1,25
 291 640 291 640 313.5 618.5 c 128,-1,26
 336 597 336 597 336 578 c 0,27,28
 336 551 336 551 297 523 c 1,29,30
 260 550 260 550 198.5 581.5 c 128,-1,31
 137 613 137 613 105.5 635.5 c 128,-1,32
 74 658 74 658 74 684 c 0,33,34
 74 723 74 723 141 755 c 1,22,23
EndSplineSet
EndChar

StartChar: oacute
Encoding: 243 243 178
Width: 543
GlyphClass: 2
Flags: W
LayerCount: 2
Fore
SplineSet
271 -10 m 128,-1,1
 162 -10 162 -10 95.5 56 c 128,-1,2
 29 122 29 122 29 232 c 0,3,4
 29 347 29 347 95.5 416 c 128,-1,5
 162 485 162 485 271 485 c 128,-1,6
 380 485 380 485 447 416 c 128,-1,7
 514 347 514 347 514 232 c 0,8,9
 514 122 514 122 447 56 c 128,-1,0
 380 -10 380 -10 271 -10 c 128,-1,1
365 212 m 0,10,11
 365 288 365 288 340 338.5 c 128,-1,12
 315 389 315 389 271 389 c 0,13,14
 228 389 228 389 203.5 348 c 128,-1,15
 179 307 179 307 179 240 c 0,16,17
 179 174 179 174 203.5 130.5 c 128,-1,18
 228 87 228 87 271 87 c 0,19,20
 316 87 316 87 340.5 121.5 c 128,-1,21
 365 156 365 156 365 212 c 0,10,11
440 629 m 0,22,23
 416 614 416 614 329 577.5 c 128,-1,24
 242 541 242 541 224 523 c 1,25,26
 189 551 189 551 189 574 c 0,27,28
 189 593 189 593 215 612.5 c 128,-1,29
 241 632 241 632 275 647 c 128,-1,30
 309 662 309 662 349.5 688.5 c 128,-1,31
 390 715 390 715 411 743 c 1,32,33
 464 714 464 714 464 674 c 0,34,35
 464 645 464 645 440 629 c 0,22,23
EndSplineSet
EndChar

StartChar: ocircumflex
Encoding: 244 244 179
Width: 543
GlyphClass: 2
Flags: W
LayerCount: 2
Fore
SplineSet
271 -10 m 128,-1,1
 162 -10 162 -10 95.5 56 c 128,-1,2
 29 122 29 122 29 232 c 0,3,4
 29 347 29 347 95.5 416 c 128,-1,5
 162 485 162 485 271 485 c 128,-1,6
 380 485 380 485 447 416 c 128,-1,7
 514 347 514 347 514 232 c 0,8,9
 514 122 514 122 447 56 c 128,-1,0
 380 -10 380 -10 271 -10 c 128,-1,1
365 212 m 0,10,11
 365 288 365 288 340 338.5 c 128,-1,12
 315 389 315 389 271 389 c 0,13,14
 228 389 228 389 203.5 348 c 128,-1,15
 179 307 179 307 179 240 c 0,16,17
 179 174 179 174 203.5 130.5 c 128,-1,18
 228 87 228 87 271 87 c 0,19,20
 316 87 316 87 340.5 121.5 c 128,-1,21
 365 156 365 156 365 212 c 0,10,11
271 719 m 1,22,23
 435 629 435 629 435 576 c 0,24,25
 435 559 435 559 417.5 542 c 128,-1,26
 400 525 400 525 373 519 c 1,27,28
 349 547 349 547 323 569.5 c 128,-1,29
 297 592 297 592 283 600 c 2,30,-1
 269 608 l 1,31,32
 170 527 170 527 146 527 c 0,33,34
 129 527 129 527 117.5 534.5 c 128,-1,35
 106 542 106 542 90 565 c 1,36,37
 172 654 172 654 271 719 c 1,22,23
EndSplineSet
EndChar

StartChar: otilde
Encoding: 245 245 180
Width: 543
GlyphClass: 2
Flags: W
LayerCount: 2
Fore
SplineSet
271 -10 m 128,-1,1
 162 -10 162 -10 95.5 56 c 128,-1,2
 29 122 29 122 29 232 c 0,3,4
 29 347 29 347 95.5 416 c 128,-1,5
 162 485 162 485 271 485 c 128,-1,6
 380 485 380 485 447 416 c 128,-1,7
 514 347 514 347 514 232 c 0,8,9
 514 122 514 122 447 56 c 128,-1,0
 380 -10 380 -10 271 -10 c 128,-1,1
365 212 m 0,10,11
 365 288 365 288 340 338.5 c 128,-1,12
 315 389 315 389 271 389 c 0,13,14
 228 389 228 389 203.5 348 c 128,-1,15
 179 307 179 307 179 240 c 0,16,17
 179 174 179 174 203.5 130.5 c 128,-1,18
 228 87 228 87 271 87 c 0,19,20
 316 87 316 87 340.5 121.5 c 128,-1,21
 365 156 365 156 365 212 c 0,10,11
454 634 m 0,22,23
 454 599 454 599 414 566.5 c 128,-1,24
 374 534 374 534 326 534 c 0,25,26
 302 534 302 534 258 555.5 c 128,-1,27
 214 577 214 577 197 577 c 0,28,29
 175 577 175 577 129 537 c 1,30,31
 90 551 90 551 90 578 c 0,32,33
 90 612 90 612 130.5 645 c 128,-1,34
 171 678 171 678 218 678 c 0,35,36
 242 678 242 678 286.5 656.5 c 128,-1,37
 331 635 331 635 348 635 c 0,38,39
 371 635 371 635 415 675 c 1,40,41
 428 673 428 673 441 661.5 c 128,-1,42
 454 650 454 650 454 634 c 0,22,23
EndSplineSet
EndChar

StartChar: odieresis
Encoding: 246 246 181
Width: 543
GlyphClass: 2
Flags: W
LayerCount: 2
Fore
SplineSet
271 -10 m 128,-1,1
 162 -10 162 -10 95.5 56 c 128,-1,2
 29 122 29 122 29 232 c 0,3,4
 29 347 29 347 95.5 416 c 128,-1,5
 162 485 162 485 271 485 c 128,-1,6
 380 485 380 485 447 416 c 128,-1,7
 514 347 514 347 514 232 c 0,8,9
 514 122 514 122 447 56 c 128,-1,0
 380 -10 380 -10 271 -10 c 128,-1,1
365 212 m 0,10,11
 365 288 365 288 340 338.5 c 128,-1,12
 315 389 315 389 271 389 c 0,13,14
 228 389 228 389 203.5 348 c 128,-1,15
 179 307 179 307 179 240 c 0,16,17
 179 174 179 174 203.5 130.5 c 128,-1,18
 228 87 228 87 271 87 c 0,19,20
 316 87 316 87 340.5 121.5 c 128,-1,21
 365 156 365 156 365 212 c 0,10,11
380 520 m 0,22,23
 342 520 342 520 315.5 546.5 c 128,-1,24
 289 573 289 573 289 614 c 0,25,26
 289 653 289 653 317 680 c 128,-1,27
 345 707 345 707 382 707 c 128,-1,28
 419 707 419 707 445.5 680 c 128,-1,29
 472 653 472 653 472 614 c 0,30,31
 472 574 472 574 444 547 c 128,-1,32
 416 520 416 520 380 520 c 0,22,23
151 520 m 0,33,34
 113 520 113 520 86.5 546.5 c 128,-1,35
 60 573 60 573 60 614 c 0,36,37
 60 653 60 653 88 680 c 128,-1,38
 116 707 116 707 153 707 c 128,-1,39
 190 707 190 707 216.5 680 c 128,-1,40
 243 653 243 653 243 614 c 0,41,42
 243 574 243 574 215 547 c 128,-1,43
 187 520 187 520 151 520 c 0,33,34
EndSplineSet
EndChar

StartChar: divide
Encoding: 247 247 182
Width: 574
GlyphClass: 2
Flags: W
LayerCount: 2
Fore
SplineSet
282 -6 m 0,0,1
 250 -6 250 -6 228.5 16 c 128,-1,2
 207 38 207 38 207 72 c 0,3,4
 207 104 207 104 229 126.5 c 128,-1,5
 251 149 251 149 282 149 c 0,6,7
 312 149 312 149 333.5 126.5 c 128,-1,8
 355 104 355 104 355 72 c 0,9,10
 355 37 355 37 334 15.5 c 128,-1,11
 313 -6 313 -6 282 -6 c 0,0,1
510 260 m 0,12,13
 510 235 510 235 496 217.5 c 128,-1,14
 482 200 482 200 459 200 c 0,15,16
 442 200 442 200 377.5 205.5 c 128,-1,17
 313 211 313 211 283 211 c 0,18,19
 170 211 170 211 67 200 c 1,20,21
 63 221 63 221 63 242 c 0,22,23
 63 265 63 265 75.5 283.5 c 128,-1,24
 88 302 88 302 114 302 c 0,25,26
 118 302 118 302 181.5 297 c 128,-1,27
 245 292 245 292 291 292 c 0,28,29
 435 292 435 292 504 302 c 1,30,31
 510 290 510 290 510 260 c 0,12,13
282 359 m 0,32,33
 250 359 250 359 228.5 380.5 c 128,-1,34
 207 402 207 402 207 437 c 0,35,36
 207 469 207 469 229 491.5 c 128,-1,37
 251 514 251 514 282 514 c 0,38,39
 312 514 312 514 333.5 491.5 c 128,-1,40
 355 469 355 469 355 437 c 0,41,42
 355 402 355 402 334 380.5 c 128,-1,43
 313 359 313 359 282 359 c 0,32,33
EndSplineSet
EndChar

